<svg version="1.0" xmlns="http://www.w3.org/2000/svg"
 width="300.000000pt" height="230.000000pt" viewBox="0 0 300.000000 230.000000"
 preserveAspectRatio="xMidYMid meet">
<g transform="translate(0.000000,230.000000) scale(0.050000,-0.050000)"
fill="#000000" stroke="none">
<path d="M5611 4410 c202 -567 -4 -1085 -551 -1387 -165 -91 -142 -111 61 -51
581 170 831 683 609 1248 -47 119 -156 293 -119 190z"/>
<path d="M340 4295 c-170 -278 -149 -756 43 -999 122 -154 421 -318 627 -345
117 -15 112 -9 -110 134 -468 300 -658 698 -542 1140 39 153 37 161 -18 70z"/>
<path d="M3180 3920 c0 -189 -143 -321 -377 -347 -142 -15 -221 -65 -274 -171
-25 -49 -65 -99 -91 -113 -44 -23 -126 -147 -109 -164 4 -5 63 6 131 23 500
129 624 -83 307 -524 -239 -333 -249 -586 -33 -851 85 -104 162 -208 242 -325
55 -81 13 306 -54 501 -106 307 -84 578 75 912 56 117 58 130 32 182 -37 70
-37 68 12 68 56 0 71 -74 42 -211 -38 -183 -29 -361 27 -534 59 -185 64 -350
18 -566 -47 -221 -7 -666 82 -920 172 -488 787 -692 1256 -417 215 126 235
179 29 79 -501 -244 -1269 164 -1330 705 -19 173 36 205 75 43 124 -520 642
-782 1083 -547 149 80 170 125 30 67 -551 -230 -1361 498 -1033 930 227 300
225 445 -11 850 -55 93 -60 118 -69 360 -9 228 -15 268 -55 323 -61 85 -60 87
57 87 215 0 311 222 187 433 -49 85 -108 123 -79 52 58 -145 22 -261 -99 -319
-42 -19 -64 -42 -57 -59 6 -16 -3 -27 -21 -27 -20 0 -27 -11 -20 -30 9 -23 -5
-30 -56 -31 l-67 0 50 -42 c42 -35 44 -40 10 -34 -26 5 -41 -6 -45 -33 -6 -34
-4 -35 15 -10 18 24 20 21 10 -16 -7 -25 -3 -58 9 -73 20 -24 -27 -32 -54 -10
-7 5 -39 13 -67 17 -12 1 -17 15 -11 30 14 39 -64 56 -149 32 -91 -27 -239
-26 -198 0 22 14 10 19 -48 20 -73 0 -76 2 -47 35 16 19 36 55 44 79 31 103
312 185 361 106 7 -11 30 -20 51 -20 22 0 39 9 39 20 0 11 15 20 34 20 18 0
58 29 89 65 30 36 56 54 56 40 1 -14 -8 -25 -19 -25 -11 0 -20 -9 -20 -20 0
-52 73 -13 104 55 58 124 63 180 27 274 -55 145 -91 157 -91 31z"/>
<path d="M400 3863 c0 -73 145 -326 255 -445 210 -226 470 -379 865 -508 511
-167 647 -280 882 -730 l68 -130 6 86 c30 408 -253 746 -746 893 -99 30 -225
68 -280 85 -375 113 -827 432 -979 692 -60 104 -71 112 -71 57z"/>
<path d="M5545 3796 c-180 -318 -599 -601 -1115 -755 -516 -153 -716 -337
-800 -734 -56 -261 -26 -369 47 -172 56 151 116 247 163 259 21 6 44 26 50 46
13 40 218 240 246 240 11 0 24 18 30 40 12 46 147 111 418 201 490 163 808
440 997 866 58 132 37 138 -36 9z m-1456 -1052 c-10 -9 -81 -74 -157 -145 -96
-90 -127 -111 -101 -69 54 89 112 151 179 193 61 37 116 52 79 21z"/>
<path d="M2613 3407 c-59 -59 -70 -98 -21 -79 17 7 56 12 87 12 30 0 76 18
101 40 25 22 56 41 68 42 12 1 0 9 -28 18 -95 30 -153 21 -207 -33z"/>
<path d="M5803 3359 c-82 -233 -472 -497 -947 -641 -271 -82 -458 -164 -570
-249 -88 -68 -73 -82 47 -41 52 18 225 55 385 84 690 122 1011 347 1110 778 8
33 19 76 24 95 19 61 -27 37 -49 -26z"/>
<path d="M181 3345 c-1 -62 54 -197 129 -315 190 -299 470 -440 1030 -520 127
-17 274 -45 329 -61 199 -58 215 -29 44 80 -123 78 -346 165 -639 249 -415
120 -646 273 -864 572 -28 39 -29 39 -29 -5z"/>
<path d="M1331 2822 c-6 -11 40 -34 104 -52 196 -57 489 -221 635 -355 l135
-123 -51 100 c-100 197 -302 335 -584 397 -77 18 -160 36 -184 41 -24 6 -49 2
-55 -8z"/>
<path d="M4580 2810 c-274 -56 -440 -146 -597 -323 -194 -218 -193 -300 2
-104 173 174 492 342 790 417 183 46 21 54 -195 10z"/>
<path d="M5370 2531 c-165 -113 -330 -162 -745 -221 -406 -58 -574 -102 -713
-190 -119 -76 -115 -80 139 -168 376 -129 538 -135 818 -31 137 52 219 130 98
94 -123 -36 -549 -29 -791 14 -330 57 -264 82 294 112 580 31 782 106 977 363
84 111 58 120 -77 27z"/>
<path d="M604 2518 c131 -234 474 -379 893 -379 278 0 618 -35 687 -71 67 -35
95 -24 57 21 -76 91 -357 173 -761 222 -311 38 -529 100 -737 211 -183 98
-196 97 -139 -4z"/>
<path d="M1104 1991 c143 -126 488 -183 745 -122 152 35 371 126 371 154 0 21
19 22 -290 -13 -330 -37 -543 -37 -720 0 -175 37 -171 38 -106 -19z"/>
<path d="M3820 1893 c0 -202 482 -346 731 -218 130 67 151 106 45 81 -185 -43
-413 5 -751 157 -14 6 -25 -2 -25 -20z"/>
<path d="M2040 1817 c-169 -88 -337 -123 -500 -106 l-110 11 47 -40 c190 -166
613 -74 734 160 39 76 20 73 -171 -25z"/>
<path d="M2300 1754 c-47 -98 -135 -166 -286 -220 -49 -17 8 -40 97 -39 178 3
320 160 281 313 -18 74 -35 64 -92 -54z"/>
<path d="M3714 1827 c-98 -98 87 -307 270 -307 115 1 166 32 85 51 -108 26
-206 88 -262 164 -78 107 -78 107 -93 92z"/>
<path d="M2813 1430 c-69 -505 -800 -884 -1128 -584 -52 47 -60 24 -14 -42
277 -395 1190 32 1197 560 2 148 -37 196 -55 66z"/>
<path d="M2865 1156 c-143 -538 -795 -872 -1231 -631 -158 88 -160 43 -2 -62
465 -308 1101 -44 1237 514 42 170 38 336 -4 179z"/>
<path d="M2974 1074 c-26 -370 -243 -703 -564 -867 l-140 -72 90 10 c463 51
737 454 671 986 -20 158 -43 134 -57 -57z"/>
<path d="M3121 765 c7 -371 243 -598 603 -581 l126 6 -116 38 c-232 76 -463
278 -557 487 -42 91 -57 105 -56 50z"/>
</g>
</svg>
