<svg xmlns="http://www.w3.org/2000/svg" width="25" height="25" viewBox="0 0 60 60"
    fill="none" class="group-hover:text-dark-blue mb-2">
    <path
        d="M44.08 30V58.77C44.08 59.99 44.08 60 42.88 60H17.09C15.93 60 15.92 60 15.92 58.8V1.19C15.92 0 15.92 0 17.1 0H43C44.11 0 44.12 0 44.12 1.16L44.08 30ZM16.62 58.65C16.8883 58.549 17.1212 58.3717 17.29 58.14C18.57 56.82 19.81 55.47 21.12 54.14C21.3706 53.9003 21.5658 53.6087 21.6918 53.2857C21.8179 52.9627 21.8719 52.6161 21.85 52.27V7.23C21.8633 7.04823 21.8391 6.86567 21.7789 6.69364C21.7187 6.52162 21.6238 6.36381 21.5 6.23C20 4.65 18.45 3.06 16.91 1.48C16.8732 1.44627 16.825 1.42756 16.775 1.42756C16.7251 1.42756 16.6769 1.44627 16.64 1.48L16.62 58.65ZM43.3 58.65V1.48C41.69 3 40.19 4.53 38.65 6C38.4733 6.16652 38.3365 6.37085 38.2499 6.59771C38.1634 6.82457 38.1292 7.06807 38.15 7.31V52.41C38.1165 52.7019 38.1514 52.9975 38.2521 53.2736C38.3528 53.5496 38.5164 53.7983 38.73 54C39.73 54.9 40.57 55.85 41.48 56.8C42.0424 57.4774 42.6505 58.1156 43.3 58.71V58.65ZM37.39 7.38L33.31 11.38C33.2044 11.494 33.1268 11.6312 33.0834 11.7804C33.04 11.9297 33.032 12.0871 33.06 12.24V47.61C33.0345 47.7522 33.04 47.8982 33.0762 48.038C33.1125 48.1778 33.1786 48.3082 33.27 48.42L37.34 52.18L37.39 7.38ZM22.57 52.68L26.72 48.34C26.8598 48.113 26.9097 47.8419 26.86 47.58V12.38C26.8632 12.1951 26.8295 12.0114 26.7608 11.8397C26.6922 11.668 26.5899 11.5117 26.46 11.38C25.31 10.21 24.2 9 23.07 7.86C22.94 7.73 22.86 7.48 22.56 7.59L22.57 52.68ZM17.37 0.77C17.37 1.16 17.66 1.32 17.86 1.53C19.15 2.86 20.48 4.18 21.75 5.53C21.9327 5.7332 22.1589 5.89265 22.4116 5.99652C22.6644 6.10039 22.9373 6.14601 23.21 6.13C27.11 6.13 31.01 6.01 34.91 6.13C35.8098 6.23185 36.7206 6.1015 37.5556 5.75138C38.3906 5.40127 39.122 4.84306 39.68 4.13C40.749 2.93738 41.8806 1.80245 43.07 0.73L17.37 0.77ZM17.14 59.21H42.83C41.21 57.5 39.57 55.83 38 54.21C37.8656 54.0897 37.7063 54.0005 37.5335 53.9486C37.3606 53.8968 37.1785 53.8836 37 53.91H23C22.7661 53.9012 22.5331 53.9452 22.3185 54.0386C22.1038 54.1321 21.913 54.2727 21.76 54.45C20.98 55.29 20.18 56.12 19.38 56.94L17.14 59.21ZM32.42 47.44V12.26C31.79 12.9 31.29 13.43 30.76 13.93C30.6237 14.0578 30.5158 14.2129 30.4435 14.3852C30.3711 14.5575 30.3359 14.7432 30.34 14.93V44.8C30.3172 44.9436 30.3259 45.0905 30.3656 45.2304C30.4054 45.3703 30.4751 45.4998 30.57 45.61L32.42 47.44ZM27.63 12.52V47.44C28.24 46.81 28.72 46.27 29.25 45.76C29.4094 45.6093 29.534 45.4256 29.6151 45.2218C29.6963 45.018 29.7321 44.799 29.72 44.58V15.36C29.7454 15.2054 29.738 15.0472 29.6984 14.8956C29.6588 14.744 29.5878 14.6024 29.49 14.48L27.63 12.52ZM22.94 53.27H37.05L33.05 49.07C32.9661 48.9874 32.8658 48.9233 32.7556 48.882C32.6453 48.8406 32.5276 48.8229 32.41 48.83H27.64C27.5353 48.8138 27.4282 48.8206 27.3263 48.85C27.2244 48.8793 27.1301 48.9305 27.05 49L22.94 53.27ZM22.94 6.77L27 11C27.1111 11.0932 27.241 11.1611 27.3808 11.1991C27.5207 11.2371 27.6672 11.2442 27.81 11.22H32C32.2206 11.2295 32.4405 11.1906 32.6444 11.106C32.8483 11.0213 33.0311 10.893 33.18 10.73C34.31 9.57 35.46 8.42 36.6 7.27C36.73 7.14 36.98 7.05 36.89 6.76L22.94 6.77ZM32.11 48.12L30.37 46.26C30.3128 46.1879 30.2301 46.1404 30.139 46.1274C30.0478 46.1144 29.9552 46.1368 29.88 46.19L29.82 46.26L28 48.13L32.11 48.12ZM28.17 12L27.95 12.27C28.52 12.76 29.1 13.27 29.66 13.72C29.86 13.87 30.04 13.93 30.22 13.72C30.8174 13.1863 31.3662 12.6007 31.86 11.97L28.17 12Z"
        fill="currentColor"></path>
</svg>