<svg version="1.1" id="Layer_1" class="text-white" width="44" height="30" xmlns="http://www.w3.org/2000/svg"
    xmlns:xlink="http://www.w3.org/1999/xlink" x="0px" y="0px" viewBox="0 0 44 30"
    style="enable-background:new 0 0 44 30;" xml:space="preserve">
    <style type="text/css">
        .st0 {
            fill: rgb(255,215,0);
        }
    </style>
    <g>
        <g>
            <path class="st0"
                d="M22.03,30L2.24,10.2L12.44,0h19.28l10.05,10.05l-4.69,4.69l-1.82-1.82l2.87-2.87l-7.47-7.47H13.51L5.88,10.2    l16.15,16.15l8.57-8.57l-6.7-6.7l0,0c1.01-1.01,2.64-1.01,3.65,0l6.7,6.7L22.03,30z" />
        </g>
        <g>
            <path class="st0"
                d="M21.85,22.63L10.17,10.96L12,9.13l9.85,9.85l3.5-3.5l0,0c1.01,1.01,1.01,2.64,0,3.65L21.85,22.63z" />
        </g>
    </g>
</svg>