<?xml version="1.0" standalone="no"?>
<!DOCTYPE svg PUBLIC "-//W3C//DTD SVG 20010904//EN"
 "http://www.w3.org/TR/2001/REC-SVG-20010904/DTD/svg10.dtd">
<svg version="1.0" xmlns="http://www.w3.org/2000/svg"
 width="450.000000pt" height="410.000000pt" viewBox="0 0 450.000000 410.000000"
 preserveAspectRatio="xMidYMid meet">
<metadata>
Created by potrace 1.10, written by Peter Selinger 2001-2011
</metadata>
<g transform="translate(0.000000,410.000000) scale(0.050000,-0.050000)"
fill="#000000" stroke="none">
<path d="M4354 7492 c-28 -26 -57 -43 -63 -37 -6 6 -29 -5 -51 -25 -34 -30
-44 -32 -75 -8 -19 14 -28 19 -20 9 8 -9 3 -32 -10 -49 -23 -29 -21 -29 15 -2
40 29 40 29 2 -15 -20 -24 -44 -40 -52 -35 -9 5 -20 -9 -26 -32 -8 -28 -20
-37 -38 -27 -14 9 -20 8 -12 0 8 -9 1 -29 -15 -45 -16 -16 -24 -37 -18 -47 6
-10 -4 -13 -23 -5 -24 9 -30 5 -19 -12 10 -16 0 -29 -27 -36 -23 -6 -42 -19
-42 -30 0 -10 -8 -13 -18 -7 -17 10 -49 -61 -44 -95 2 -10 -5 -12 -16 -5 -22
13 -186 -139 -168 -157 7 -6 2 -12 -12 -12 -30 0 -84 -51 -114 -108 -11 -23
-32 -40 -45 -37 -12 3 -23 -13 -23 -34 0 -21 -16 -48 -35 -59 -28 -17 -29 -21
-5 -22 18 -1 11 -12 -20 -30 -27 -16 -44 -29 -36 -29 8 -1 -9 -24 -36 -52 -28
-27 -47 -61 -43 -75 5 -13 -12 -43 -37 -67 -25 -23 -40 -48 -33 -55 7 -7 -5
-26 -26 -44 -22 -17 -25 -25 -9 -18 24 10 24 8 -2 -14 -17 -14 -32 -39 -33
-56 -3 -72 -77 -321 -92 -307 -8 9 -9 0 -2 -19 8 -19 4 -34 -9 -34 -12 0 -22
9 -22 20 0 11 -8 20 -18 20 -10 0 -13 -19 -7 -41 6 -25 21 -37 38 -31 20 8 26
-7 24 -54 -2 -47 -5 -52 -11 -19 -5 25 -18 45 -30 45 -12 0 -16 -23 -10 -55 7
-35 -1 -68 -21 -90 -18 -21 -22 -35 -9 -35 13 0 18 -13 11 -30 -6 -16 -1 -30
12 -30 13 0 17 -10 10 -22 -8 -12 -2 -30 13 -39 19 -12 28 -70 30 -191 2 -106
-3 -163 -14 -146 -11 19 -17 -4 -18 -67 0 -52 -7 -94 -15 -93 -8 2 -19 1 -25
-2 -5 -2 -131 -7 -280 -11 -148 -3 -295 -11 -325 -16 -30 -6 -55 -1 -55 10 0
11 -15 5 -33 -13 -17 -18 -51 -30 -75 -27 -23 3 -55 -2 -70 -12 -20 -12 -24
-10 -13 8 10 15 -8 12 -48 -8 -51 -27 -60 -42 -50 -77 13 -44 13 -44 -20 -4
-19 22 -27 27 -19 12 11 -21 4 -26 -29 -17 -24 6 -43 3 -43 -7 0 -10 -24 -13
-53 -5 -35 8 -48 6 -40 -8 20 -32 -48 -49 -83 -20 -26 21 -29 20 -15 -3 13
-22 9 -26 -17 -16 -22 9 -29 6 -21 -8 25 -40 -138 -179 -219 -186 -10 -1 -28
-19 -40 -40 -44 -77 -100 -132 -112 -112 -7 12 -31 -1 -56 -30 -24 -27 -40
-50 -36 -50 4 0 -17 -27 -48 -60 -62 -67 -105 -79 -87 -25 8 27 6 29 -9 7 -11
-15 -18 -49 -15 -74 4 -31 -7 -51 -32 -59 -20 -6 -37 -21 -37 -32 0 -33 -143
-157 -166 -144 -11 8 -14 3 -6 -10 9 -14 -7 -31 -41 -44 -45 -17 -50 -25 -26
-40 26 -17 13 -28 -26 -21 -8 1 -15 -8 -15 -19 0 -28 -51 -79 -79 -79 -11 0
-21 -18 -21 -40 0 -27 -13 -40 -40 -40 -22 0 -39 -7 -38 -15 6 -38 -4 -66 -20
-56 -10 6 -14 -7 -8 -29 20 -74 59 -69 132 19 62 73 351 352 414 398 38 28
120 97 181 152 236 215 311 259 242 141 -54 -92 -31 -88 97 14 89 71 99 85 67
97 -88 32 -168 -2 -310 -136 -52 -49 -105 -86 -118 -81 -20 6 131 160 262 266
92 75 254 190 268 190 8 0 42 22 77 49 41 30 97 51 154 55 67 4 89 14 85 37
-12 74 793 134 1033 76 44 -11 67 103 31 157 -16 24 -29 75 -29 111 0 37 -10
77 -22 89 -39 39 15 47 59 8 33 -28 41 -52 33 -104 l-10 -68 35 75 c19 41 45
75 57 75 13 0 46 35 74 78 62 93 174 127 174 53 0 -23 -14 -62 -31 -86 -27
-39 12 -171 42 -141 59 62 102 323 50 306 -28 -9 -61 10 -119 68 l-81 81 -53
-105 c-29 -57 -59 -130 -66 -163 -23 -102 -54 -78 -75 58 l-19 130 86 85 c47
46 86 92 86 101 0 24 -105 114 -135 114 -36 1 -31 -92 5 -106 42 -16 37 -58
-10 -99 -76 -64 -87 -45 -74 131 17 237 72 359 124 275 20 -33 47 -23 54 21 8
51 46 52 46 1 0 -42 65 -122 98 -122 12 0 46 46 76 103 l54 102 -89 -10 c-108
-12 -107 -18 -9 130 75 112 78 122 45 147 -51 39 -59 36 -115 -47 -28 -41 -74
-106 -102 -145 -28 -38 -58 -82 -67 -98 -12 -21 -24 -22 -53 -5 -21 12 -27 22
-14 22 13 1 49 44 79 96 165 288 340 514 568 735 80 77 208 212 285 300 222
253 318 347 342 338 13 -5 41 5 63 23 21 18 26 25 11 17 -17 -8 -38 -1 -52 19
-22 30 -29 29 -76 -15z m-1499 -2666 c-30 -5 -84 -5 -120 0 -36 4 -11 8 55 8
66 0 95 -4 65 -8z"/>
<path d="M4447 7318 c10 -99 8 -121 -11 -102 -13 13 -31 24 -40 24 -24 0 -19
-96 5 -104 12 -4 26 -47 32 -96 l10 -90 -39 48 -39 49 -12 -119 c-35 -347 -57
-651 -46 -661 39 -39 73 18 73 122 0 100 4 111 43 111 42 0 43 5 31 220 -11
221 0 267 40 165 18 -46 21 -33 18 88 -2 79 -14 155 -25 170 -13 15 -15 45 -7
67 8 22 10 69 5 105 -6 41 -2 65 12 65 13 0 23 -11 24 -25 1 -33 70 -115 97
-115 11 0 81 -92 155 -205 115 -175 414 -515 454 -515 25 0 -61 120 -173 241
-118 128 -248 313 -239 342 3 9 -5 17 -17 17 -12 0 -17 15 -10 32 9 24 4 29
-19 20 -18 -6 -26 -3 -19 8 7 11 -6 46 -28 77 -23 32 -35 64 -27 71 8 8 -2 8
-20 1 -22 -8 -39 -2 -47 19 -7 17 -21 26 -31 20 -11 -7 -30 1 -43 18 -13 16
-46 36 -72 44 l-48 15 13 -127z"/>
<path d="M4361 7315 c-143 -352 -240 -706 -214 -779 14 -38 12 -79 -7 -140
l-28 -86 -12 70 -13 70 -44 -100 c-24 -55 -57 -124 -73 -153 -39 -70 -38 -89
10 -137 58 -58 63 -52 60 75 -4 161 -4 165 30 152 17 -6 30 -30 30 -53 0 -55
44 -174 64 -174 22 0 20 47 -5 111 -11 30 -15 60 -8 67 22 22 64 -57 54 -105
-4 -26 10 -82 33 -125 57 -106 58 -180 2 -108 l-39 50 -4 -105 c-2 -58 -4
-120 -5 -138 -3 -52 44 -55 51 -3 12 81 79 58 114 -39 39 -106 53 -106 79 -4
19 76 17 83 -33 114 -29 18 -57 36 -62 40 -6 4 3 16 20 27 22 16 18 18 -16 8
-32 -9 -45 -4 -45 17 0 34 66 64 76 34 15 -43 37 -19 37 39 0 44 -9 61 -36 63
-64 4 -73 7 -90 25 -10 11 -7 13 6 5 13 -7 28 0 34 16 7 19 1 25 -18 18 -23
-9 -29 10 -29 91 0 87 -6 102 -38 102 -43 0 -78 126 -46 167 31 39 44 170 18
178 -28 10 8 205 69 375 22 61 40 128 39 150 0 22 11 58 26 80 25 39 54 150
39 150 -4 0 -16 -20 -26 -45z"/>
<path d="M4608 6975 c8 -47 31 -122 53 -166 21 -45 39 -96 39 -114 0 -64 25
-95 77 -95 29 0 43 -7 32 -15 -29 -20 -7 -229 26 -240 39 -13 73 82 47 131
-12 23 -22 64 -22 93 0 28 -7 51 -16 51 -26 0 -98 140 -124 240 -52 204 -140
294 -112 115z"/>
<path d="M4940 6971 c0 -8 52 -66 115 -129 63 -63 154 -157 203 -209 98 -105
123 -115 118 -44 -3 26 -11 44 -18 40 -7 -5 -25 5 -38 21 -17 21 -18 30 -2 30
12 0 22 14 22 31 0 17 -8 26 -19 20 -10 -6 -24 -2 -31 9 -7 11 -22 15 -34 8
-11 -7 -54 22 -95 64 -41 43 -87 81 -103 85 -15 3 -32 12 -38 20 -21 27 -80
67 -80 54z"/>
<path d="M4781 6858 c-1 -45 52 -145 99 -188 60 -54 49 -12 -29 111 -39 60
-70 95 -70 77z"/>
<path d="M4521 6780 c0 -28 8 -81 19 -119 16 -57 12 -84 -22 -150 -40 -77 -42
-99 -28 -426 l14 -345 48 0 c35 0 48 -11 48 -41 0 -23 9 -36 20 -29 11 7 20
27 20 44 0 18 32 80 72 140 62 94 70 118 58 187 -12 71 -50 132 -50 80 0 -27
-105 -179 -125 -180 -58 -3 2 163 86 239 49 43 54 57 36 100 -20 46 -22 47
-36 11 -20 -53 -42 -12 -50 94 -7 95 -57 319 -88 395 l-20 50 -2 -50z"/>
<path d="M4060 6739 c0 -34 -8 -57 -17 -51 -14 9 -63 -68 -63 -99 0 -29 37 -2
46 34 8 28 22 38 43 30 34 -13 64 65 44 117 -20 52 -53 33 -53 -31z"/>
<path d="M3889 6655 c-11 -25 -74 -146 -139 -269 -105 -197 -134 -298 -67
-231 12 12 34 17 49 11 16 -6 28 0 28 12 0 12 -9 22 -20 22 -35 0 -22 42 65
198 81 146 84 150 95 92 10 -53 13 -55 23 -17 7 24 4 52 -6 62 -11 11 -10 40
2 73 37 96 11 135 -30 47z"/>
<path d="M4920 6571 c0 -27 9 -54 20 -61 11 -7 20 -21 20 -32 0 -11 -10 -14
-23 -6 -16 9 -19 -7 -12 -54 5 -37 1 -87 -10 -111 -16 -35 -9 -58 37 -118 65
-85 86 -62 42 47 -33 83 -14 151 37 131 45 -17 35 32 -32 148 -67 118 -79 126
-79 56z"/>
<path d="M5072 6554 c19 -114 74 -224 89 -181 8 20 2 61 -14 91 -15 30 -27 71
-27 93 0 21 -13 44 -29 50 -24 9 -27 -2 -19 -53z"/>
<path d="M3725 6550 c-14 -16 -25 -47 -25 -69 0 -23 -9 -41 -20 -41 -11 0 -20
-11 -19 -25 1 -41 99 84 99 126 0 46 -2 46 -35 9z"/>
<path d="M4683 6534 c-28 -34 -15 -154 17 -154 30 0 36 28 23 108 -11 69 -16
74 -40 46z"/>
<path d="M5340 6454 c0 -109 310 -416 337 -334 8 25 4 26 -22 4 -28 -23 -42
-9 -112 112 -45 75 -95 149 -112 163 -17 14 -31 38 -31 53 0 16 -13 28 -30 28
-16 0 -30 -12 -30 -26z"/>
<path d="M3551 6341 c-19 -21 -28 -49 -20 -63 10 -16 24 -6 44 31 35 68 23 84
-24 32z"/>
<path d="M5240 6330 c0 -14 14 -37 32 -51 38 -32 148 -190 148 -213 0 -52
-178 0 -198 58 l-21 59 -61 -43 c-33 -23 -60 -49 -60 -56 0 -25 197 -184 227
-184 18 0 33 -22 37 -53 3 -30 17 -58 31 -62 15 -5 21 3 14 21 -7 18 13 49 52
79 l64 50 -35 158 c-19 86 -42 172 -52 189 -22 43 -178 85 -178 48z"/>
<path d="M3773 6115 c-22 -82 -14 -150 20 -163 50 -20 58 3 17 48 -28 31 -32
46 -14 64 28 28 32 96 6 96 -9 0 -23 -20 -29 -45z"/>
<path d="M3594 6128 c-7 -8 -14 -38 -14 -66 0 -29 7 -42 15 -30 8 12 27 26 41
30 21 7 20 15 -1 44 -14 20 -33 30 -41 22z"/>
<path d="M4890 6064 c-41 -29 -78 -124 -56 -146 50 -50 156 22 108 73 -10 10
-21 35 -25 53 -4 19 -16 28 -27 20z"/>
<path d="M4013 5966 c-7 -7 -13 -35 -13 -61 0 -33 -9 -46 -26 -39 -30 11 -81
-145 -63 -192 20 -52 -46 -83 -131 -61 -81 22 -85 19 -111 -91 -3 -15 -17 -35
-30 -43 -48 -29 -4 -125 52 -114 28 5 55 1 62 -9 6 -10 22 -15 35 -10 17 7 22
-19 17 -93 -9 -125 25 -107 54 28 98 450 125 539 167 539 10 0 14 -12 8 -26
-5 -14 16 -61 48 -104 65 -86 73 -114 28 -97 -42 16 -38 -20 7 -60 63 -58 94
32 43 128 -12 20 -24 75 -29 122 -4 49 -21 91 -39 101 -18 10 -32 31 -32 46 0
32 -29 55 -47 36z m-194 -435 c28 -33 9 -158 -21 -140 -10 7 -13 20 -7 31 7
10 5 18 -5 16 -49 -8 -66 8 -66 62 0 67 55 84 99 31z"/>
<path d="M5029 5950 c-5 -16 -13 -43 -18 -59 -5 -16 -46 -53 -92 -82 -93 -59
-95 -70 -30 -299 18 -66 42 -165 53 -220 10 -55 24 -117 31 -138 9 -29 4 -35
-21 -26 -20 8 -32 2 -32 -15 0 -16 -18 -41 -40 -57 -22 -15 -34 -34 -27 -41
26 -25 81 -13 117 27 20 22 54 40 75 40 22 0 35 11 30 25 -5 14 -24 24 -42 22
-53 -4 -38 42 47 145 44 54 80 104 80 113 0 60 45 -9 83 -127 l46 -141 42 52
42 53 33 -85 34 -85 97 109 97 109 -79 155 c-93 182 -76 175 -179 76 -99 -95
-102 -94 -148 59 -35 117 -53 141 -78 100 -7 -12 -21 -15 -31 -9 -25 15 -24
84 1 92 12 4 7 51 -13 122 -32 114 -59 143 -78 85z m51 -185 c0 -20 -20 -45
-45 -56 -25 -11 -43 -31 -40 -45 3 -13 -8 -24 -25 -24 -46 0 -36 42 24 104 62
65 86 71 86 21z m106 -208 c30 -63 26 -117 -8 -117 -10 0 -18 17 -18 39 0 66
-35 64 -78 -5 -80 -131 -115 -147 -129 -60 -10 59 -5 83 23 106 20 17 42 46
49 65 24 63 125 45 161 -28z m162 -252 c18 -36 24 -65 13 -65 -30 0 -86 95
-71 120 17 27 16 27 58 -55z"/>
<path d="M5597 5945 c-50 -33 -52 -38 -24 -91 38 -72 21 -94 -72 -94 -44 0
-87 -13 -101 -30 -22 -26 -20 -29 7 -18 19 7 45 4 58 -7 43 -33 113 -44 102
-15 -5 15 9 32 32 40 23 7 41 30 41 51 0 22 12 39 27 39 15 0 24 18 21 45 -2
25 -5 61 -6 80 -2 44 -18 44 -85 0z"/>
<path d="M3633 5903 c-37 -40 -44 -83 -13 -83 11 0 20 -13 20 -29 0 -47 54
-14 80 49 39 94 -20 137 -87 63z"/>
<path d="M5780 5810 c0 -38 -8 -70 -18 -70 -10 0 -18 -41 -17 -91 1 -50 -9
-101 -22 -114 -17 -17 -23 -7 -23 42 0 52 -7 64 -35 59 -26 -5 -35 -26 -36
-82 0 -69 4 -75 45 -65 55 14 55 16 18 -268 -16 -114 -24 -219 -19 -233 6 -13
0 -30 -12 -37 -30 -19 -26 -51 7 -51 16 0 32 -10 36 -22 4 -13 19 -8 37 14 26
31 25 34 -3 24 -38 -15 -35 74 15 398 17 112 25 213 18 224 -27 45 11 127 41
88 24 -31 30 -32 47 -6 14 21 12 32 -6 36 -16 3 -24 36 -22 94 1 49 -5 84 -14
78 -9 -5 -11 4 -5 21 7 17 2 31 -10 31 -12 0 -22 -31 -22 -70z"/>
<path d="M3770 5788 c-28 -69 -26 -108 8 -108 8 0 14 20 14 45 -2 32 11 47 43
51 52 8 60 54 13 72 -46 18 -45 18 -78 -60z"/>
<path d="M3363 5669 c-30 -66 -31 -63 23 -73 41 -8 44 -2 37 58 -9 79 -28 84
-60 15z"/>
<path d="M4728 5532 c-7 -19 -3 -45 9 -57 16 -16 25 -12 35 13 7 19 3 45 -9
57 -16 16 -25 12 -35 -13z"/>
<path d="M4381 5502 c-12 -22 -40 -45 -64 -53 -247 -78 -359 -315 -185 -392
118 -52 124 -44 152 180 22 180 41 221 66 143 7 -22 21 -40 31 -40 11 0 19
-16 19 -35 0 -27 14 -20 60 29 73 77 75 101 11 117 -29 8 -44 23 -38 39 16 43
-29 54 -52 12z m-184 -259 c38 -33 61 -123 32 -123 -12 0 -133 60 -147 72 -7
7 56 88 68 88 2 0 23 -17 47 -37z"/>
<path d="M4532 5329 c-6 -17 -4 -69 6 -115 10 -46 17 -106 15 -134 -3 -57 10
-57 152 4 97 42 119 90 83 185 -30 77 -231 124 -256 60z"/>
<path d="M5839 5265 c-28 -295 -29 -325 -4 -334 15 -6 33 5 41 24 15 37 64 57
64 27 0 -10 -11 -23 -25 -29 -39 -15 89 -11 145 5 l50 15 -45 15 c-25 8 -40
23 -34 33 6 11 -3 19 -20 19 -17 0 -31 9 -31 19 0 11 -12 15 -27 9 -15 -6 -33
4 -40 21 -6 17 -26 31 -44 31 -27 0 -30 14 -19 80 7 44 8 80 2 80 -7 0 -13 -7
-13 -15z"/>
<path d="M4339 5155 c-13 -47 -31 -107 -40 -135 -9 -27 -23 -180 -30 -340 -7
-159 -16 -321 -20 -360 -4 -38 -7 -127 -8 -196 l-1 -126 -70 53 c-38 30 -70
65 -70 79 0 14 -22 74 -49 133 -76 168 -83 215 -33 212 23 -2 42 -17 42 -35 0
-19 20 -33 50 -35 63 -6 66 -17 -40 168 -93 163 -105 226 -72 372 17 73 -6
128 -29 69 -9 -23 -21 -25 -60 -7 -65 30 -63 39 31 125 107 99 88 108 -40 20
-58 -40 -112 -72 -122 -72 -39 0 -15 -38 27 -44 41 -5 45 -15 40 -119 -4 -98
0 -114 35 -123 62 -16 79 -91 59 -255 -16 -128 -14 -157 20 -228 51 -108 103
-291 83 -291 -42 0 -118 152 -108 216 10 60 -1 76 -132 203 -122 119 -214 252
-106 155 29 -27 50 -29 111 -12 69 19 85 58 22 58 -15 0 -60 32 -99 71 l-70
71 -20 -52 c-11 -29 -20 -66 -20 -81 0 -38 0 -38 -148 34 l-128 64 -80 -64
c-44 -35 -90 -63 -102 -63 -31 0 -28 -40 3 -41 14 -1 53 -57 88 -125 34 -68
71 -124 82 -124 11 0 85 -70 164 -155 154 -165 154 -165 299 -111 l48 17 -66
69 c-49 51 -78 66 -111 58 -31 -8 -65 7 -114 50 -39 34 -84 62 -101 62 -18 0
-37 9 -44 20 -7 11 6 20 29 20 54 0 53 54 -2 114 -24 25 -39 51 -33 57 17 17
154 -78 155 -107 3 -79 127 -179 200 -160 170 44 168 44 154 7 -57 -148 39
-382 140 -343 25 10 72 -96 52 -116 -6 -7 3 -12 20 -12 18 0 38 9 45 20 23 37
50 21 50 -29 0 -27 23 -73 50 -103 28 -30 50 -60 50 -69 0 -8 -22 -19 -50 -24
-27 -5 -50 -3 -50 4 0 16 -14 19 -135 26 -113 7 -110 39 6 68 111 28 135 47
62 47 -34 0 -53 11 -53 30 0 17 -9 30 -19 30 -11 0 -15 12 -10 26 6 16 -12 37
-41 50 -113 52 -148 7 -60 -76 28 -26 50 -53 50 -59 0 -12 -265 -43 -860 -103
-219 -22 -300 -43 -300 -78 0 -28 153 -24 390 10 259 38 409 37 485 -1 42 -20
112 -29 218 -27 304 6 319 4 277 -42 -20 -22 -52 -40 -72 -40 -19 0 -48 -13
-63 -28 -18 -17 -39 -22 -56 -12 -16 10 -51 4 -88 -15 l-61 -33 85 -15 c106
-19 126 -31 113 -66 -9 -22 -24 -23 -69 -8 -99 35 -296 9 -469 -62 -88 -36
-216 -84 -285 -108 -68 -24 -124 -50 -125 -58 0 -25 144 -17 229 14 45 16 133
43 197 61 75 20 111 39 102 54 -10 15 0 18 31 11 24 -7 86 1 138 16 117 36
163 36 163 2 0 -27 -150 -75 -356 -113 -58 -10 -122 -28 -143 -40 -21 -11 -61
-20 -89 -20 -37 0 -48 -8 -39 -30 6 -16 3 -30 -8 -30 -11 0 -58 -56 -105 -125
-48 -69 -102 -138 -120 -155 -73 -64 -112 -229 -68 -293 21 -32 43 -70 50 -87
8 -19 43 35 96 148 49 104 76 186 66 196 -10 10 33 68 103 138 89 89 114 125
94 137 -89 55 64 70 286 28 l58 -11 -85 -38 c-46 -21 -97 -38 -112 -38 -15 0
-42 -22 -60 -50 -18 -27 -41 -50 -52 -50 -29 0 -95 -85 -95 -124 -1 -39 31
-65 48 -38 6 10 27 14 46 9 36 -9 84 38 678 657 l244 254 185 -189 c102 -104
198 -189 214 -189 16 0 92 -23 168 -50 76 -28 156 -50 177 -50 22 0 39 -9 39
-19 0 -26 -128 -48 -195 -33 -45 10 -25 -17 113 -148 92 -88 178 -160 191
-160 12 0 56 -40 98 -90 86 -103 67 -119 -34 -30 -38 33 -73 60 -78 60 -12 0
-63 -179 -53 -186 5 -2 61 -30 125 -60 l117 -56 70 53 c126 97 85 213 -167
469 -81 83 -147 161 -147 173 0 13 -59 47 -132 76 -73 29 -165 79 -205 111
-40 31 -98 64 -128 71 -128 31 -9 68 219 69 68 0 193 10 276 23 144 21 154 20
197 -20 57 -54 79 -55 63 -4 -9 30 -1 42 34 49 80 17 319 37 515 43 156 6 192
13 208 43 11 20 32 48 47 62 38 39 32 77 -23 159 -41 60 -52 66 -63 37 -7 -19
-3 -45 9 -57 43 -43 28 -115 -25 -115 -31 0 -51 -14 -58 -40 -17 -65 -59 -49
-45 18 11 50 6 59 -38 70 -29 7 -70 31 -93 54 -22 22 -51 37 -63 33 -12 -4 15
-34 61 -66 127 -90 120 -166 -8 -79 -40 27 -90 50 -110 50 -57 0 -298 83 -298
103 0 9 21 17 48 17 26 0 57 13 70 28 50 59 108 55 95 -7 -8 -40 -2 -61 19
-69 19 -7 28 -1 24 18 -10 48 70 150 117 150 94 0 115 94 23 108 -75 12 -506
-157 -585 -230 -10 -10 -73 -19 -140 -20 l-121 -1 88 -31 c76 -27 99 -28 160
-5 96 35 146 38 180 11 15 -12 55 -31 89 -42 188 -62 24 -119 -291 -100 -274
16 -471 15 -498 -1 -10 -6 -18 10 -18 37 0 53 160 96 208 56 13 -11 45 -8 82
8 65 29 63 30 -100 41 -44 3 -80 7 -80 9 0 34 -234 13 -299 -28 l-79 -48 89
-18 c69 -13 90 -27 95 -60 7 -47 -71 -106 -94 -72 -19 29 -86 53 -150 54 -100
3 -80 35 188 302 183 183 260 274 260 306 0 36 8 44 37 35 53 -17 331 292 313
348 -10 31 16 60 129 144 165 124 164 121 62 167 l-79 35 -81 -64 c-44 -35
-88 -59 -98 -53 -23 15 -63 172 -63 251 0 33 -9 61 -20 61 -11 0 -20 -12 -20
-27 0 -24 -279 -224 -290 -208 -2 3 -11 35 -22 72 l-18 67 -105 -150 c-115
-166 -119 -174 -75 -174 17 0 30 10 30 22 0 11 26 47 58 80 111 110 128 75 48
-96 -92 -198 -91 -195 -56 -166 16 14 30 18 30 9 0 -8 18 1 40 21 71 64 65 17
-22 -183 -55 -127 -90 -239 -97 -315 -7 -73 -21 -122 -38 -128 -19 -6 -25 10
-21 59 3 37 -1 85 -8 107 -14 44 -23 166 -45 610 -11 236 -21 302 -53 355 -53
87 -57 82 -24 -28 33 -111 12 -99 -36 20 -29 70 -34 75 -36 33 -2 -42 -8 -37
-32 30 -16 44 -25 100 -18 125 20 83 -8 46 -31 -40z m826 -429 c-14 -5 -25
-25 -25 -45 0 -20 -13 -47 -30 -61 -16 -14 -30 -35 -30 -48 0 -13 -19 -39 -42
-59 -38 -33 -39 -38 -10 -83 43 -66 40 -104 -10 -131 -23 -12 -44 -19 -46 -16
-55 75 -82 433 -32 419 62 -17 168 -3 197 27 17 16 36 25 42 18 6 -7 0 -16
-14 -21z m-826 -294 c-19 -17 -22 -10 -12 28 7 28 14 73 16 100 2 28 7 16 12
-28 4 -45 -2 -87 -16 -100z m171 -84 c4 -109 14 -284 21 -388 16 -210 -10
-279 -83 -219 -26 22 -34 22 -48 -2 -33 -52 -41 -6 -47 263 -4 147 -3 257 2
243 5 -14 17 -25 27 -25 10 0 18 11 18 25 -1 65 70 333 85 318 9 -9 20 -106
25 -215z m668 160 c14 -13 -43 -68 -70 -68 -17 0 -26 19 -23 50 3 45 52 55 93
18z m-261 -237 c7 -67 -27 -156 -79 -203 -48 -43 -48 -38 13 228 14 62 57 45
66 -25z m-86 -789 c-12 -20 37 -44 74 -35 14 4 18 3 10 -2 -8 -5 -11 -15 -6
-23 5 -9 -2 -16 -15 -17 -13 -1 -58 -7 -99 -13 -65 -10 -75 -7 -75 28 0 22 13
40 30 40 17 0 30 9 30 20 0 11 14 20 31 20 17 0 26 -8 20 -18z m415 -21 c9 -1
12 -8 7 -17 -14 -21 -233 -29 -233 -8 0 36 20 38 226 25z"/>
<path d="M6442 5078 c-1 -17 22 -43 52 -56 40 -18 47 -29 27 -41 -28 -18 -17
-22 105 -50 75 -17 194 7 194 39 0 25 -115 84 -145 75 -8 -3 -15 5 -15 16 0
12 -8 16 -18 10 -10 -6 -24 0 -30 14 -10 20 -14 20 -24 0 -6 -14 -37 -25 -68
-25 -31 0 -61 11 -67 25 -6 16 -10 14 -11 -7z"/>
<path d="M4040 5022 c0 -26 178 -171 193 -156 6 6 -22 41 -64 78 -92 81 -129
104 -129 78z"/>
<path d="M3605 4942 c-105 -91 -106 -104 -5 -97 44 3 80 12 80 21 0 9 27 -3
60 -26 72 -51 79 -26 11 47 -26 28 -51 69 -55 90 -5 34 -16 30 -91 -35z"/>
<path d="M5269 4939 c-17 -28 -12 -32 71 -48 l70 -13 -47 41 c-53 46 -75 51
-94 20z"/>
<path d="M6278 4929 c-24 -24 -43 -26 -86 -10 -47 18 -60 14 -99 -32 -43 -50
-48 -51 -103 -22 -57 30 -62 28 -174 -51 -126 -89 -141 -114 -70 -114 100 0
129 -49 63 -106 -58 -50 -58 -51 -21 -92 32 -35 35 -50 15 -93 -31 -68 -30
-69 25 -69 26 0 58 -13 72 -30 15 -18 16 -30 4 -30 -19 0 -117 -149 -149 -227
-13 -31 -30 -35 -115 -25 -55 7 -146 18 -203 24 l-102 12 92 87 c51 47 93 97
93 111 0 16 -12 13 -37 -9 -20 -18 -55 -33 -77 -33 -86 0 -122 -103 -62 -180
l39 -49 -61 -16 c-34 -9 -62 -26 -62 -38 0 -12 -13 -16 -29 -10 -19 7 -25 1
-18 -18 6 -16 1 -29 -11 -29 -37 0 -25 -35 16 -45 22 -6 51 6 69 27 18 21 48
38 66 38 25 0 15 -18 -34 -62 -88 -80 -56 -71 245 65 119 53 237 97 263 97 27
0 59 13 73 30 13 16 33 25 43 18 9 -6 67 0 128 12 66 14 121 16 135 5 36 -26
233 -72 324 -75 204 -6 250 -11 250 -30 0 -11 -12 -20 -27 -20 -14 0 -48 -24
-75 -53 -62 -68 -16 -55 128 39 l100 64 -82 6 c-81 6 -81 7 -70 75 14 86 -9
90 -38 7 -19 -56 -27 -61 -84 -49 -173 38 -489 90 -539 91 -40 0 -60 12 -67
41 -14 52 -52 40 -66 -21 -15 -64 -75 -100 -100 -60 -27 41 -25 61 5 55 15 -3
28 21 31 61 4 40 20 71 40 79 66 24 65 105 -1 105 -11 0 -38 20 -60 45 -62 72
5 68 246 -13 114 -38 215 -65 223 -59 25 15 19 67 -8 67 -14 0 3 25 36 55 33
30 82 80 108 110 l47 55 -51 55 c-50 54 -96 129 -96 156 0 8 36 9 80 4 101
-14 102 6 2 61 -91 52 -142 55 -184 13z m73 -90 c34 -55 -49 -121 -112 -88
-60 30 -62 30 -164 -60 -105 -91 -142 -108 -165 -72 -6 11 38 52 98 92 67 45
105 83 99 100 -8 19 16 29 86 34 53 4 108 9 121 11 13 2 29 -5 37 -17z m-251
-298 c0 -27 -98 -61 -111 -39 -25 39 7 73 59 63 29 -5 52 -16 52 -24z m128
-33 c39 -15 42 -48 6 -48 -43 0 -113 59 -71 59 19 1 48 -4 65 -11z"/>
<path d="M6710 4840 c-7 -11 -7 -29 0 -40 19 -31 -26 -24 -81 13 -63 41 -64
39 -71 -85 -6 -120 128 -283 182 -219 21 26 31 26 84 -1 l60 -31 -7 101 c-4
56 -2 102 3 101 6 0 62 -13 125 -28 63 -15 119 -20 125 -11 10 16 -236 200
-267 200 -33 0 -82 -113 -58 -137 28 -28 -53 -123 -106 -123 -82 0 -82 52 0
154 72 91 83 126 39 126 -9 0 -21 -9 -28 -20z"/>
<path d="M6980 4845 c0 -9 72 -58 159 -111 207 -124 276 -183 311 -268 16 -38
39 -66 51 -62 11 3 66 -36 122 -89 56 -52 111 -95 122 -95 22 0 281 -222 401
-345 87 -88 128 -92 84 -8 -17 32 -30 69 -30 82 0 13 -22 36 -49 51 -27 14
-45 34 -39 43 6 9 1 17 -11 17 -11 0 -21 15 -21 32 0 23 -12 29 -39 22 -22 -5
-38 -3 -35 6 6 22 -90 121 -184 189 -45 32 -82 70 -82 85 0 14 -9 26 -20 26
-11 0 -20 15 -20 32 0 27 -5 29 -31 7 -23 -19 -36 -20 -54 -2 -17 17 -17 23 2
23 14 0 20 9 13 20 -7 12 -19 17 -27 12 -16 -10 -109 73 -211 186 -31 35 -69
60 -83 54 -14 -5 -38 5 -53 23 -22 28 -22 30 4 16 17 -10 23 -10 15 -1 -9 10
-62 20 -120 24 -57 4 -113 16 -123 26 -24 24 -52 26 -52 5z"/>
<path d="M5606 4715 c-10 -14 -30 -49 -45 -79 -15 -30 -34 -51 -42 -46 -8 5
-25 -17 -39 -50 -14 -33 -33 -60 -42 -60 -10 0 -18 -13 -18 -28 0 -25 153 -69
168 -49 81 112 133 257 92 257 -11 0 -20 13 -20 29 0 40 -32 55 -54 26z"/>
<path d="M2690 4662 c-33 -19 -90 -50 -127 -70 l-68 -36 87 -88 c100 -102 129
-92 120 44 l-5 91 76 -7 c152 -15 124 -120 -55 -206 -80 -38 -150 -77 -157
-87 -6 -9 -38 -32 -71 -49 -41 -22 -49 -33 -25 -33 19 -1 55 -23 79 -51 24
-27 51 -50 60 -50 33 0 15 59 -28 88 -47 33 -71 18 284 178 70 32 68 30 41 63
-26 31 -15 39 95 73 15 5 -14 34 -65 66 -50 32 -101 70 -113 85 -28 33 -51 31
-128 -11z"/>
<path d="M2289 4603 c-8 -47 -27 -91 -42 -97 -48 -18 -30 -66 24 -66 39 0 50
9 45 37 -3 20 6 51 20 69 22 26 22 41 -3 88 l-30 56 -14 -87z"/>
<path d="M7190 4553 c3 -71 31 -133 60 -133 15 0 39 -11 54 -25 14 -14 50 -36
79 -49 32 -14 52 -38 50 -60 -2 -25 13 -38 52 -42 81 -10 70 38 -27 118 -105
87 -131 112 -163 154 -49 65 -107 85 -105 37z"/>
<path d="M2018 4533 c-56 -46 -99 -193 -57 -193 39 0 199 103 199 128 0 14
-20 44 -45 67 l-45 42 -52 -44z"/>
<path d="M3053 4483 c-18 -20 -33 -58 -33 -85 0 -27 -28 -82 -61 -123 -69 -84
-49 -97 72 -46 76 32 78 38 48 125 -14 40 -14 76 0 113 24 63 19 66 -26 16z"/>
<path d="M7083 4352 c-84 -112 -86 -132 -12 -132 52 0 117 84 87 114 -23 23
-2 91 24 75 10 -6 12 3 6 20 -17 42 -13 45 -105 -77z"/>
<path d="M2340 4385 c0 -37 79 -120 79 -83 1 17 -17 48 -39 68 -22 20 -40 27
-40 15z"/>
<path d="M6765 4370 c-21 -24 -14 -34 40 -62 87 -44 86 -42 46 -86 -43 -48 60
-123 106 -77 37 37 28 64 -59 162 -89 102 -96 105 -133 63z"/>
<path d="M5580 4340 c-27 -20 -43 -44 -34 -53 8 -8 35 5 58 29 57 56 40 72
-24 24z"/>
<path d="M6480 4354 c0 -14 -27 -41 -60 -61 -33 -19 -60 -44 -60 -54 0 -29 33
-23 69 13 17 17 56 38 86 46 74 20 86 82 16 82 -28 0 -51 -11 -51 -26z"/>
<path d="M1795 4337 c18 -18 14 -36 -15 -77 -38 -54 -38 -54 9 -119 56 -76
106 -29 84 79 -6 30 -1 64 10 75 32 32 2 65 -58 65 -40 0 -47 -6 -30 -23z"/>
<path d="M6164 4288 c-70 -31 -101 -79 -71 -109 12 -12 49 12 97 61 83 85 79
94 -26 48z"/>
<path d="M2156 4234 c-64 -77 -63 -79 30 -50 81 25 86 33 49 81 -22 30 -30 27
-79 -31z"/>
<path d="M7280 4265 c1 -42 39 -74 61 -52 13 13 17 33 10 45 -15 25 -71 30
-71 7z"/>
<path d="M2309 4239 c-7 -12 -8 -27 -1 -33 6 -7 2 -24 -10 -39 -29 -35 34 -63
67 -30 17 17 17 23 -1 23 -16 0 -20 17 -12 50 12 50 -17 70 -43 29z"/>
<path d="M6698 4188 c-23 -28 -20 -31 21 -25 27 4 52 18 56 32 12 36 -45 31
-77 -7z"/>
<path d="M1945 4140 l-46 -57 50 -54 c38 -41 57 -49 76 -33 20 17 33 7 53 -39
37 -83 110 -114 160 -69 25 23 43 27 51 13 15 -23 96 -27 167 -8 l46 12 -42
29 c-26 19 -62 24 -100 16 -53 -12 -61 -6 -89 60 -28 67 -35 71 -96 60 -63
-12 -179 66 -158 106 19 40 -34 13 -72 -36z m235 -169 c0 -58 -31 -84 -48 -39
-20 53 -13 88 18 88 18 0 30 -19 30 -49z"/>
<path d="M7490 4180 c-7 -11 -3 -20 7 -20 11 0 23 -20 27 -45 3 -25 23 -48 46
-52 21 -4 49 -21 61 -38 17 -23 27 -25 38 -7 8 14 -1 42 -20 63 -20 22 -31 44
-25 50 6 5 22 -4 36 -21 14 -16 37 -30 52 -30 16 0 28 -8 28 -18 0 -9 29 -29
65 -43 36 -14 76 -38 88 -54 13 -15 45 -25 70 -21 50 8 63 -2 -250 195 -97 61
-199 79 -223 41z"/>
<path d="M2990 4160 c-33 -8 -47 -16 -32 -18 33 -2 80 -61 81 -99 1 -16 -11
-23 -29 -16 -38 15 -40 -45 -4 -94 22 -31 36 -32 115 -13 49 13 107 27 129 33
25 6 102 -26 200 -82 175 -100 190 -105 190 -61 0 17 -9 30 -20 30 -20 0 -52
94 -44 131 3 14 -28 18 -91 10 -223 -26 -280 -10 -336 100 -51 102 -57 105
-159 79z"/>
<path d="M7210 4088 c-22 -17 -37 -44 -34 -60 5 -23 -6 -26 -50 -15 -50 12
-53 10 -29 -19 29 -35 94 -30 173 14 22 12 49 23 60 24 98 10 118 44 40 65
-101 29 -111 28 -160 -9z"/>
<path d="M2640 4027 c-82 -25 -154 -45 -159 -46 -5 0 33 -28 85 -61 52 -32 94
-69 94 -80 0 -36 -86 -140 -116 -140 -18 0 -24 -12 -16 -32 7 -17 12 -41 12
-53 0 -11 41 21 91 73 68 70 101 91 130 82 60 -19 49 47 -11 70 -64 24 -63 45
8 124 49 55 62 61 89 39 37 -31 73 -14 73 34 0 49 -92 45 -280 -10z"/>
<path d="M5244 4056 c-17 -17 -17 -30 -1 -50 32 -38 57 -32 57 13 0 49 -27 66
-56 37z"/>
<path d="M1670 3968 c-66 -37 -136 -67 -155 -67 -51 -1 -43 -54 10 -68 89 -24
122 -12 208 81 135 145 121 157 -63 54z"/>
<path d="M7504 3989 c-21 -24 -21 -31 0 -37 14 -5 57 -18 94 -30 84 -27 176
-28 191 -3 18 28 -56 61 -138 61 -39 0 -71 9 -71 20 0 30 -46 23 -76 -11z"/>
<path d="M1320 3939 c-109 -72 -119 -79 -272 -176 -161 -103 -168 -169 -14
-125 41 12 66 11 70 -1 8 -23 116 -1 116 24 0 9 -23 12 -51 7 -28 -5 -60 -4
-70 3 -27 17 30 69 76 69 59 0 242 59 257 83 8 13 -1 17 -24 11 -95 -26 -188
-34 -188 -16 0 19 15 25 130 52 52 13 55 16 21 29 -33 12 -29 16 25 27 38 8
64 25 64 44 0 45 -39 36 -140 -31z"/>
<path d="M2868 3928 c10 -25 3 -30 -28 -22 -26 7 -40 0 -40 -18 0 -30 41 -35
115 -15 52 14 60 57 13 75 -53 20 -73 14 -60 -20z"/>
<path d="M6890 3848 c-116 -67 -127 -69 -310 -66 -237 4 -275 -2 -160 -25 122
-24 125 -24 165 -7 20 8 35 6 35 -6 0 -11 -22 -25 -49 -32 -135 -34 -110 -113
53 -171 69 -25 210 -81 312 -124 272 -115 451 -92 285 35 -78 60 -83 61 -214
43 -127 -17 -135 -15 -175 31 -23 26 -63 55 -89 63 -59 19 -47 30 60 54 47 11
92 29 99 41 8 12 94 28 192 37 229 19 406 102 406 191 0 29 -80 0 -90 -33 -9
-26 -25 -37 -47 -31 -18 5 -83 19 -143 29 -61 11 -133 25 -160 31 -35 7 -87
-11 -170 -60z"/>
<path d="M1849 3878 c-8 -13 -39 -17 -71 -11 -44 9 -58 4 -58 -19 0 -16 -27
-40 -61 -51 -103 -36 -49 -42 80 -9 143 37 171 26 277 -106 63 -79 162 -99
135 -28 -6 16 -11 33 -11 38 0 20 -58 6 -67 -17 -5 -14 -11 -6 -11 18 -1 27
-14 42 -36 40 -19 -2 -38 13 -42 32 -4 20 5 35 21 35 15 0 45 13 66 30 36 28
33 29 -42 18 -60 -9 -88 -4 -107 20 -31 37 -54 41 -73 10z"/>
<path d="M6104 3823 c-58 -103 -57 -103 37 -103 91 0 116 33 87 117 -28 80
-74 75 -124 -14z"/>
<path d="M2980 3867 c0 -7 23 -43 50 -79 28 -36 50 -75 50 -87 0 -27 34 -28
50 -1 7 11 -17 56 -52 100 -59 73 -98 100 -98 67z"/>
<path d="M3144 3835 c3 -26 23 -48 46 -52 22 -4 61 -25 88 -46 80 -63 75 -22
-8 63 -88 90 -136 103 -126 35z"/>
<path d="M7520 3860 c0 -20 89 -47 269 -79 231 -41 224 -11 -12 48 -174 44
-257 53 -257 31z"/>
<path d="M7937 3849 c85 -36 186 -39 172 -4 -6 15 -54 27 -124 29 l-115 4 67
-29z"/>
<path d="M2292 3823 c-13 -20 43 -103 69 -103 11 0 19 16 19 35 0 39 -72 94
-88 68z"/>
<path d="M8000 3741 c0 -9 47 -21 105 -28 157 -19 199 -16 190 12 -9 27 -295
43 -295 16z"/>
<path d="M1310 3642 c-293 -91 -326 -105 -210 -91 158 19 458 120 459 154 1 8
-1 14 -4 13 -3 -1 -113 -35 -245 -76z"/>
<path d="M1591 3682 c-18 -30 162 -142 230 -142 54 0 60 -4 39 -30 -28 -34
-131 -41 -150 -10 -18 28 -151 25 -386 -10 -319 -48 -306 -60 72 -65 195 -2
480 -17 634 -31 l280 -27 -117 -54 c-144 -67 -144 -67 71 -57 l173 8 -18 49
c-24 62 -24 67 2 67 12 0 16 -9 9 -20 -7 -11 -4 -20 7 -20 23 0 42 118 21 131
-8 5 -33 -14 -55 -42 l-41 -52 -281 122 c-396 171 -478 202 -490 183z"/>
<path d="M7185 3677 c-17 -17 -8 -37 39 -81 l62 -58 107 34 c59 18 107 45 107
59 0 57 -265 96 -315 46z"/>
<path d="M7843 3662 c61 -48 187 -56 241 -15 30 23 27 26 -30 29 -35 1 -109 8
-164 15 l-100 13 53 -42z"/>
<path d="M775 3587 c-88 -63 -97 -92 -20 -68 30 10 80 23 110 30 48 10 53 17
35 51 -27 51 -36 50 -125 -13z"/>
<path d="M2214 3626 c-36 -9 -36 -10 0 -37 36 -28 84 -40 60 -16 -8 7 2 25 21
39 38 29 1 35 -81 14z"/>
<path d="M8286 3602 c-24 -20 -39 -43 -32 -50 7 -6 -10 -12 -38 -12 -57 0
-178 -75 -193 -119 -7 -24 1 -23 43 5 29 19 66 34 82 34 16 0 44 15 62 33 29
28 36 29 52 5 14 -22 20 -19 30 15 6 24 29 48 50 53 25 7 34 21 26 42 -15 40
-27 39 -82 -6z"/>
<path d="M2580 3585 c-99 -11 -104 -23 -68 -146 43 -146 49 -153 81 -93 16 32
39 48 55 42 34 -13 51 37 45 131 -4 75 -10 78 -113 66z"/>
<path d="M7585 3575 c-159 -21 -161 -23 -107 -93 33 -43 44 -46 95 -27 110 41
312 70 326 46 18 -29 82 -5 124 48 44 54 42 55 -74 20 -88 -27 -101 -27 -121
0 -25 34 -33 34 -243 6z"/>
<path d="M2891 3502 c-8 -13 2 -23 23 -24 24 -1 20 -7 -14 -16 l-50 -14 69
-64 c39 -35 81 -64 95 -64 45 0 28 -32 -29 -59 -51 -24 -52 -27 -15 -41 51
-19 100 7 100 54 0 33 25 36 305 42 272 4 386 26 260 50 -32 6 -28 8 15 8 143
0 157 4 130 36 -14 17 -40 28 -58 25 -20 -3 -30 7 -27 27 5 29 -22 33 -200 34
-113 0 -292 6 -398 14 -131 9 -197 6 -206 -8z m396 -108 c-83 -19 -227 -5
-227 22 0 8 70 10 155 6 151 -8 153 -9 72 -28z"/>
<path d="M911 3422 c-13 -21 125 -73 144 -54 17 17 -57 71 -99 71 -18 1 -39
-7 -45 -17z"/>
<path d="M7979 3285 c-90 -85 -198 -186 -238 -225 -41 -38 -80 -86 -87 -105
-7 -20 -29 -41 -49 -47 -149 -46 -201 -94 -125 -114 22 -6 40 -26 40 -46 0
-27 -6 -30 -23 -13 -18 18 -41 8 -96 -42 -40 -36 -153 -113 -252 -172 -98 -59
-183 -110 -187 -114 -4 -3 4 -20 17 -36 28 -34 70 -21 48 13 -8 14 -4 16 10 8
13 -8 18 -23 12 -33 -6 -11 -2 -19 10 -19 11 0 21 10 21 21 0 12 7 17 15 13
25 -15 108 24 96 45 -15 23 51 61 106 61 25 0 43 18 51 50 12 46 41 60 107 51
14 -1 25 11 25 28 0 17 10 31 21 31 12 0 16 8 10 18 -6 10 -2 22 10 26 11 3
22 27 24 52 3 37 13 44 47 35 44 -11 99 31 74 56 -7 7 -1 13 14 13 15 0 21 6
14 12 -14 15 7 36 111 114 41 31 83 52 92 46 9 -6 16 2 16 17 0 15 -12 23 -26
17 -15 -6 -27 0 -27 12 0 12 14 22 31 22 18 0 63 33 100 73 78 82 82 91 36 73
-23 -9 -29 -5 -19 11 8 12 32 23 53 23 22 0 39 9 39 20 0 11 14 20 32 20 20 0
28 11 21 29 -6 17 1 37 16 45 22 13 22 20 0 41 -21 20 -58 -5 -190 -130z"/>
<path d="M2813 3373 c20 -29 55 -52 77 -52 40 0 40 0 0 31 -91 70 -119 78 -77
21z"/>
<path d="M6300 3390 c-77 -30 -68 -36 47 -30 55 2 90 -9 123 -40 56 -53 80
-27 31 34 -47 58 -115 70 -201 36z"/>
<path d="M560 3378 c-23 -16 -24 -23 -4 -31 20 -8 20 -17 2 -39 -19 -23 -8
-28 65 -27 85 1 86 2 42 32 -54 38 -57 61 -10 73 24 6 19 10 -15 11 -27 1 -63
-7 -80 -19z"/>
<path d="M731 3368 c-27 -27 -28 -38 -7 -63 23 -28 27 -26 33 13 4 31 16 41
36 34 17 -7 34 -12 39 -12 4 0 8 -13 8 -28 0 -16 29 -35 65 -43 85 -18 105
-31 75 -49 -17 -10 -15 -18 7 -26 20 -8 35 2 43 27 7 21 26 39 43 39 35 0 94
54 72 65 -8 5 -73 10 -144 12 -81 3 -142 15 -162 34 -41 37 -68 37 -108 -3z"/>
<path d="M5740 3370 c-24 -29 -4 -66 108 -194 31 -35 77 -178 62 -193 -51 -51
-150 3 -150 81 0 50 -7 58 -45 52 -57 -8 -51 -61 17 -150 26 -35 48 -77 48
-95 0 -62 132 -14 160 59 10 27 28 50 40 50 11 0 20 14 20 32 0 17 31 68 70
113 82 96 79 108 -21 75 -60 -20 -77 -20 -90 2 -9 15 -37 27 -61 27 -29 1 -57
24 -82 69 -37 66 -37 67 0 57 23 -6 37 1 37 18 0 36 -82 35 -113 -3z"/>
<path d="M7340 3362 c0 -10 -5 -33 -12 -50 -9 -23 0 -32 30 -32 52 0 79 57 40
82 -36 23 -58 23 -58 0z"/>
<path d="M7575 3336 c-30 -11 -55 -29 -55 -40 0 -11 -13 -15 -29 -9 -20 7 -25
1 -17 -19 9 -24 29 -28 93 -17 71 12 185 66 169 79 -24 19 -116 22 -161 6z"/>
<path d="M1280 3290 c-14 -16 -37 -30 -52 -30 -74 0 -20 -53 57 -56 47 -2 117
-9 155 -15 66 -10 502 86 533 118 8 7 -140 13 -327 13 -279 0 -346 -5 -366
-30z"/>
<path d="M2621 3245 c7 -109 2 -129 -25 -113 -42 27 -220 6 -294 -34 -68 -36
-72 -37 -79 -3 -12 63 -37 69 -90 19 -69 -63 -67 -88 7 -104 33 -7 60 -21 60
-31 0 -22 120 -1 157 28 20 16 34 13 52 -13 38 -52 78 -43 63 14 -14 57 59
116 123 99 30 -8 54 12 102 85 79 120 79 128 -9 128 -70 0 -71 -1 -67 -75z"/>
<path d="M520 3229 c0 -17 8 -26 18 -20 10 6 14 -7 8 -29 -9 -32 7 -48 82 -81
82 -36 135 -80 64 -53 -47 18 -55 -10 -12 -41 23 -15 36 -36 29 -46 -6 -10 1
-14 17 -8 48 19 86 -47 57 -98 l-25 -43 38 43 c41 48 75 39 87 -23 4 -22 36
-53 72 -69 36 -15 65 -41 65 -56 0 -15 8 -22 19 -16 23 15 104 -69 89 -92 -6
-9 4 -17 22 -17 19 0 27 -9 18 -23 -8 -13 -5 -18 6 -11 21 13 146 -98 146
-130 0 -10 8 -13 19 -7 10 6 24 2 31 -9 7 -11 21 -15 31 -9 11 6 28 -12 39
-41 12 -31 48 -64 90 -81 38 -16 70 -43 70 -60 0 -17 8 -26 19 -20 10 6 24 3
31 -9 7 -11 40 -20 75 -20 65 0 136 -48 127 -87 -3 -13 -2 -16 3 -8 13 23 121
18 136 -6 7 -12 24 -17 38 -12 14 5 37 -7 52 -28 14 -20 34 -32 44 -26 9 6 32
-2 50 -16 27 -23 30 -23 16 0 -18 30 99 15 140 -18 21 -17 87 9 173 70 50 35
158 41 188 11 27 -27 152 -37 181 -16 28 21 92 -59 73 -90 -7 -12 -2 -14 11
-6 13 8 19 22 14 30 -5 8 2 15 16 15 14 0 26 -16 28 -37 1 -20 -4 -33 -12 -28
-8 5 -14 -7 -14 -26 0 -81 81 -33 87 53 l6 81 -69 -6 c-60 -6 -67 -2 -58 35
10 37 5 40 -67 27 -43 -7 -105 -18 -138 -24 l-60 -10 55 50 c73 67 69 79 -20
62 -41 -8 -136 -13 -211 -12 -86 1 -132 -5 -124 -18 7 -11 24 -20 39 -20 14 0
38 -14 53 -32 30 -36 -53 -30 -312 26 -77 16 -154 32 -171 34 -69 9 -413 204
-498 282 -17 16 -85 75 -151 133 -66 57 -246 225 -400 374 -327 315 -430 390
-430 312z"/>
<path d="M811 3193 c18 -82 89 -133 89 -63 0 17 -10 30 -21 30 -12 0 -16 17
-10 38 9 26 0 40 -30 48 -37 10 -40 5 -28 -53z"/>
<path d="M6865 3218 c-36 -11 -65 -24 -65 -29 0 -29 68 -109 92 -109 16 0 28
-13 28 -30 0 -19 -19 -30 -50 -30 -27 0 -50 -9 -50 -20 0 -11 17 -20 39 -20
21 0 44 9 51 20 7 11 28 20 48 20 40 0 222 163 222 200 0 14 -37 3 -93 -28
-114 -64 -127 -65 -127 -2 0 55 -1 55 -95 28z"/>
<path d="M7500 3180 c-39 -25 112 -25 170 0 30 13 18 17 -50 18 -49 1 -103 -7
-120 -18z"/>
<path d="M1033 3167 c-26 -26 -12 -62 27 -73 22 -6 44 -3 50 5 12 21 -60 85
-77 68z"/>
<path d="M6220 3165 c0 -9 10 -27 23 -40 18 -18 17 -30 -1 -53 -20 -24 -17
-37 17 -71 22 -22 41 -54 41 -71 0 -16 10 -30 22 -30 13 0 19 -21 13 -50 -9
-48 -6 -50 96 -50 l106 0 -127 128 c-126 127 -137 152 -67 152 21 0 37 9 37
20 0 11 -13 20 -28 20 -16 0 -32 8 -35 17 -10 24 -97 50 -97 28z"/>
<path d="M1590 3139 c-33 -10 -71 -33 -85 -52 -22 -30 -35 -31 -135 -7 -99 24
-115 23 -144 -5 -38 -38 46 -68 245 -86 63 -6 124 -16 135 -23 12 -7 16 5 9
31 -8 31 5 56 46 91 47 39 40 95 -8 70 -1 -1 -30 -9 -63 -19z"/>
<path d="M1869 3138 c-7 -12 -35 -16 -61 -9 -49 12 -68 -18 -23 -36 14 -6 10
-11 -11 -11 -56 -3 -110 -62 -57 -62 23 0 47 10 54 22 9 14 46 17 101 9 72
-11 88 -8 88 18 0 17 10 31 22 31 16 0 15 9 -2 30 -29 35 -92 40 -111 8z"/>
<path d="M4261 3120 c-1 -27 12 -90 28 -140 16 -49 35 -116 41 -147 7 -32 16
-53 22 -48 12 13 -50 315 -73 355 -14 23 -18 18 -18 -20z"/>
<path d="M4633 3015 c-7 -80 -22 -370 -34 -645 -12 -275 -26 -512 -30 -526
-14 -43 -52 -4 -45 46 5 42 -102 299 -119 282 -4 -4 20 -62 52 -130 33 -67 52
-122 43 -122 -9 0 -11 -36 -5 -81 8 -65 2 -90 -35 -129 -31 -33 -42 -64 -35
-100 12 -64 -47 -106 -85 -60 -13 15 -18 37 -12 47 13 20 -97 67 -115 49 -6
-6 -36 -5 -66 3 -77 19 -23 50 88 51 84 0 123 54 65 90 -11 7 -20 30 -20 51 0
75 -179 -24 -203 -112 -13 -47 72 -149 125 -149 10 0 56 -27 101 -60 80 -58
85 -59 124 -25 97 84 122 117 116 150 -4 26 8 35 51 35 31 1 77 17 102 37 l47
35 -52 97 c-28 53 -51 100 -51 104 0 18 95 4 116 -17 17 -17 30 -18 46 -2 40
40 9 96 -77 134 -101 46 -112 92 -24 92 48 0 60 8 55 35 -5 24 -26 35 -66 36
-33 0 -58 7 -55 15 8 23 9 40 5 127 -1 46 5 88 15 94 29 18 227 -187 217 -224
-26 -96 -31 -181 -12 -193 11 -7 14 -23 5 -36 -27 -43 -64 -163 -63 -204 1
-37 2 -37 22 5 31 63 39 58 103 -73 44 -91 53 -131 42 -188 -12 -67 -8 -75 40
-94 70 -26 72 -26 57 12 -10 27 -5 29 28 11 44 -23 66 -13 66 30 0 16 -23 27
-58 27 -51 0 -58 7 -55 55 2 30 -5 55 -14 55 -9 0 -29 35 -43 77 -15 42 -46
97 -69 122 -39 41 -40 49 -13 113 23 56 24 77 4 115 -68 126 67 287 184 222
79 -45 83 -86 6 -70 -47 11 -62 7 -62 -15 0 -16 -6 -57 -12 -92 -23 -112 102
-91 135 23 27 96 57 142 57 87 0 -47 112 -26 170 32 l40 40 -43 -13 c-123 -36
-129 -34 -115 40 14 75 -20 98 -42 28 -16 -50 -81 -36 -132 29 -46 59 -202
145 -186 103 7 -17 2 -31 -9 -31 -12 0 -28 22 -35 50 -7 28 -20 50 -29 50 -51
0 -174 290 -130 307 60 23 191 -138 191 -235 0 -18 10 -32 23 -32 72 0 -82
411 -190 504 -86 75 -87 74 -100 -89z"/>
<path d="M6640 3140 c0 -36 62 -47 92 -17 24 25 20 29 -32 33 -33 3 -60 -5
-60 -16z"/>
<path d="M2722 3068 c-32 -36 -58 -49 -88 -41 -51 14 -116 -38 -100 -79 6 -16
-13 -52 -42 -81 -28 -29 -52 -62 -52 -75 1 -12 46 25 101 82 74 77 104 97 112
75 14 -37 42 -37 80 1 74 75 276 27 297 -70 14 -65 39 -78 57 -30 27 70 -60
207 -131 207 -103 0 -166 16 -161 40 9 39 -26 25 -73 -29z"/>
<path d="M6755 3092 c-46 -35 -44 -52 5 -52 27 0 40 13 40 40 0 47 0 47 -45
12z"/>
<path d="M7395 3083 c-30 -18 -51 -44 -46 -57 5 -13 -48 -55 -120 -96 -138
-77 -142 -82 -101 -135 42 -56 172 9 172 86 0 22 13 39 29 39 54 0 180 98 143
112 -47 18 -40 37 23 62 l55 22 -50 0 c-27 0 -75 -15 -105 -33z"/>
<path d="M924 3045 c4 -20 40 -46 86 -61 43 -14 85 -36 92 -48 8 -12 30 -16
49 -8 27 10 10 25 -73 66 -59 30 -111 61 -115 70 -13 31 -46 15 -39 -19z"/>
<path d="M6027 2970 c-16 -43 54 -121 76 -85 26 40 20 64 -23 91 -34 21 -43
20 -53 -6z"/>
<path d="M1990 2929 c33 -27 67 -49 75 -49 8 0 15 -9 15 -20 0 -11 -13 -20
-30 -20 -17 0 -30 -18 -30 -39 0 -43 91 -101 158 -101 58 0 68 -32 30 -90 -23
-36 -45 -47 -71 -39 -68 21 -38 -30 35 -61 52 -21 69 -39 60 -62 -7 -17 -12
-36 -12 -41 0 -5 -9 -4 -20 3 -11 7 -20 -2 -20 -19 0 -51 49 -35 87 29 32 54
32 62 4 72 -41 16 -40 65 2 112 40 44 -1 95 -104 130 -66 22 -97 93 -36 82 88
-15 54 79 -44 123 -130 57 -175 53 -99 -10z"/>
<path d="M4210 2916 c-8 -36 -26 -93 -40 -126 -94 -216 -156 -456 -71 -275 32
69 69 125 81 125 12 0 17 9 10 20 -7 11 -3 20 9 20 25 0 29 -153 4 -168 -25
-16 -123 -227 -123 -265 0 -22 23 -9 74 40 40 40 78 68 84 62 5 -5 -1 -20 -14
-33 -13 -13 -24 -40 -24 -59 0 -20 -18 -45 -40 -57 -47 -25 -51 -52 -11 -91
24 -25 36 -22 86 20 l57 48 37 -67 c36 -67 131 -170 131 -143 0 23 -63 118
-118 178 -48 53 -51 72 -71 434 -21 381 -35 459 -61 337z"/>
<path d="M1420 2940 c0 -11 -16 -21 -35 -21 -28 -1 -25 -6 11 -24 50 -24 99 4
75 43 -17 28 -51 29 -51 2z"/>
<path d="M1700 2930 c0 -5 41 -47 91 -93 120 -111 145 -156 102 -188 -46 -33
-41 -49 15 -49 26 0 46 -11 45 -25 -2 -14 4 -27 13 -29 34 -10 74 -65 74 -105
0 -49 25 -53 61 -9 26 31 1 67 -48 68 -10 0 -12 14 -6 30 7 17 -13 59 -48 98
-63 72 -73 110 -36 147 18 18 9 22 -35 19 -46 -3 -58 4 -58 36 0 24 -25 54
-60 74 -58 33 -110 46 -110 26z"/>
<path d="M6703 2908 c-36 -25 -40 -37 -22 -60 36 -43 67 -34 106 32 42 72 -1
86 -84 28z"/>
<path d="M2315 2889 c-30 -17 -55 -47 -55 -68 0 -48 78 -77 102 -38 15 24 26
138 13 136 -3 0 -30 -14 -60 -30z"/>
<path d="M2944 2896 c-26 -26 -30 -81 -12 -148 11 -42 148 -103 148 -66 0 10
-9 18 -19 18 -27 0 -92 142 -84 185 7 41 0 44 -33 11z"/>
<path d="M1200 2816 c0 -27 18 -66 40 -86 39 -35 40 -35 40 14 0 27 -18 66
-40 86 -39 35 -40 35 -40 -14z"/>
<path d="M6595 2847 c14 -6 25 -23 25 -39 0 -32 51 -38 70 -8 7 11 -11 29 -40
40 -52 20 -103 26 -55 7z"/>
<path d="M1383 2800 c5 -14 66 -46 135 -71 70 -25 136 -55 147 -66 12 -12 38
-13 65 -3 25 10 54 11 63 4 9 -7 6 0 -8 15 -14 16 -25 45 -25 65 0 49 -34 46
-50 -4 -12 -37 -90 -59 -90 -25 0 9 -47 33 -105 55 -58 22 -113 43 -122 47
-10 4 -14 -3 -10 -17z"/>
<path d="M2740 2796 c0 -12 -16 -41 -35 -63 -34 -38 -33 -39 5 -24 88 34 110
35 122 3 17 -43 48 -41 48 4 0 22 -28 50 -70 70 -47 22 -70 26 -70 10z"/>
<path d="M5685 2799 c-59 -23 -57 -66 3 -98 31 -17 45 -37 37 -57 -8 -20 -4
-26 12 -16 25 16 33 193 8 191 -8 -1 -35 -10 -60 -20z"/>
<path d="M6251 2782 c-6 -10 -70 -39 -141 -65 -83 -30 -127 -56 -121 -72 6
-14 -35 -46 -100 -78 -118 -58 -138 -87 -59 -87 28 0 50 9 50 20 0 21 119 -34
190 -87 40 -31 40 -31 0 -60 -42 -32 -27 -69 32 -82 129 -28 158 -39 158 -58
0 -13 9 -9 20 7 15 22 19 23 20 3 0 -29 49 -21 51 9 8 132 228 366 262 278 6
-16 19 -25 28 -19 10 6 12 25 5 42 -8 20 4 45 30 65 29 21 37 41 26 59 -20 33
-145 -23 -137 -61 3 -13 -30 -25 -80 -29 -47 -3 -85 0 -85 8 0 8 -30 50 -66
92 l-65 77 -74 -44 c-40 -24 -90 -40 -109 -36 -22 4 8 25 79 54 63 26 115 55
115 64 0 23 -15 23 -29 0z m77 -370 c47 -87 30 -112 -74 -112 -140 1 -157 29
-66 111 96 85 95 85 140 1z"/>
<path d="M6855 2708 c-129 -80 -129 -80 -75 -145 66 -78 208 13 223 144 11 91
-3 91 -148 1z"/>
<path d="M2372 2690 c-25 -99 114 -170 149 -77 19 49 -15 104 -64 106 -8 1
-27 6 -43 12 -19 8 -33 -6 -42 -41z"/>
<path d="M5824 2675 c3 -25 15 -45 26 -45 11 0 23 20 26 45 5 31 -3 45 -26 45
-23 0 -31 -14 -26 -45z"/>
<path d="M1371 2682 c-23 -37 146 -162 219 -162 106 0 87 45 -48 117 -124 67
-153 74 -171 45z"/>
<path d="M7214 2649 c-20 -27 -30 -49 -24 -49 29 0 86 41 97 69 19 49 -33 35
-73 -20z"/>
<path d="M2631 2655 c-4 -14 -13 -50 -20 -81 -7 -31 -44 -84 -82 -117 -81 -72
-85 -89 -24 -108 46 -14 93 -34 362 -157 180 -82 214 -87 260 -35 42 46 37 50
-172 155 -173 86 -176 92 -105 197 57 84 51 111 -26 112 -30 0 -76 13 -104 29
-62 36 -79 37 -89 5z"/>
<path d="M3419 2433 c-209 -174 -237 -210 -191 -244 21 -15 43 -25 50 -21 7 4
85 48 173 99 l162 92 -21 91 c-26 111 -18 112 -173 -17z"/>
<path d="M6930 2480 c-22 -9 -75 -18 -117 -19 -76 -1 -78 -3 -66 -61 7 -33 5
-60 -2 -61 -8 0 -55 -9 -105 -18 -82 -16 -95 -13 -148 36 -48 44 -55 46 -42
13 9 -22 18 -58 19 -81 5 -62 31 -94 58 -72 33 27 193 38 193 14 1 -12 15 8
33 44 19 38 47 65 69 65 20 0 46 18 58 40 12 22 30 40 42 40 11 0 39 18 63 40
45 43 20 52 -55 20z"/>
<path d="M3900 2378 c-111 -92 -180 -160 -180 -178 0 -32 55 -23 68 11 6 17
21 26 32 19 11 -7 20 -2 20 11 0 13 14 18 32 11 23 -9 29 -4 22 16 -12 29 18
32 61 5 18 -11 25 6 25 66 0 92 -10 96 -80 39z"/>
<path d="M1809 2338 c-10 -16 155 -138 186 -138 18 0 73 101 61 109 -23 16
-240 41 -247 29z"/>
<path d="M5708 2317 c-17 -28 12 -135 41 -152 14 -8 36 -82 50 -165 13 -82 29
-176 35 -208 16 -81 -25 -50 -43 33 -9 38 -19 53 -24 35 -6 -16 -15 -43 -22
-60 -6 -16 -9 -47 -7 -67 3 -20 -11 -54 -30 -75 -33 -36 -33 -42 -2 -72 36
-36 38 -33 63 81 11 48 17 53 37 30 13 -15 23 -25 21 -21 -1 3 14 51 34 107
35 95 34 157 -2 157 -15 0 -13 63 4 140 9 38 72 86 95 71 10 -6 23 3 29 19 7
17 1 30 -13 30 -16 1 -14 7 5 19 16 10 57 14 90 10 50 -8 43 -1 -39 39 -103
49 -303 80 -322 49z"/>
<path d="M2279 2269 c-40 -43 -43 -54 -18 -70 62 -39 147 42 97 92 -27 26 -36
24 -79 -22z"/>
<path d="M3607 2222 c-25 -66 -11 -90 42 -70 21 8 26 21 14 35 -10 13 -22 40
-26 60 -5 29 -12 23 -30 -25z"/>
<path d="M3940 2225 c-16 -6 -37 -23 -46 -38 -9 -15 -33 -27 -54 -27 -55 0
-68 -35 -18 -51 27 -8 49 -3 60 14 14 22 24 22 57 2 62 -39 74 -31 65 45 -9
72 -12 75 -64 55z"/>
<path d="M4033 2121 c-7 -35 -21 -58 -31 -52 -11 6 -25 3 -32 -9 -7 -11 2 -20
19 -20 17 0 31 -17 31 -39 0 -21 9 -44 20 -51 11 -7 20 -3 20 8 0 11 13 16 28
10 17 -6 38 6 50 29 33 61 26 73 -18 33 -57 -51 -120 -5 -69 51 23 26 27 46
14 70 -16 28 -21 23 -32 -30z"/>
<path d="M5460 2111 c-13 -40 -33 -65 -47 -60 -13 6 -35 -19 -48 -55 l-25 -64
-75 74 -76 74 -63 -45 c-96 -68 -96 -106 0 -204 46 -47 97 -89 112 -94 22 -7
23 -18 4 -53 -15 -28 -17 -56 -6 -77 22 -39 28 -29 74 113 19 61 39 116 43
124 5 8 45 -21 90 -65 45 -43 89 -79 98 -79 14 0 104 172 123 233 6 23 -145
246 -167 247 -8 0 -24 -31 -37 -69z"/>
<path d="M3430 2081 c-13 -21 147 -111 165 -93 16 16 -91 112 -125 112 -15 0
-33 -9 -40 -19z"/>
<path d="M3662 2073 c-30 -37 9 -66 83 -63 60 2 75 -37 24 -65 -69 -39 95
-205 202 -205 27 0 -19 44 -63 61 -39 15 -48 32 -48 96 0 116 -143 242 -198
176z"/>
<path d="M3920 1950 c0 -38 9 -70 20 -70 11 0 20 32 20 70 0 39 -9 70 -20 70
-11 0 -20 -31 -20 -70z"/>
<path d="M4250 1980 c-7 -11 1 -20 18 -20 20 0 34 -29 42 -86 9 -55 28 -96 54
-112 58 -36 63 -17 19 81 -21 48 -44 103 -50 122 -13 38 -63 47 -83 15z"/>
<path d="M3183 1909 c-2 -23 -26 -62 -55 -87 -47 -41 -51 -56 -45 -173 4 -71
0 -129 -9 -129 -24 0 8 -145 39 -176 15 -15 27 -35 27 -45 0 -11 14 -19 30
-19 17 0 30 -13 30 -30 0 -16 -13 -30 -29 -30 -16 0 -35 -11 -43 -23 -10 -16
-4 -20 20 -11 19 8 29 5 23 -5 -18 -28 47 -81 100 -81 61 0 61 13 -1 104 l-50
73 50 40 c50 39 66 83 31 83 -107 0 -207 231 -133 305 18 18 22 39 12 56 -10
15 -8 43 3 64 11 20 16 57 11 81 -8 42 -9 42 -11 3z m-4 -458 c44 -47 46 -111
3 -111 -19 0 -82 110 -82 143 0 31 32 18 79 -32z"/>
<path d="M3509 1866 c-71 -102 -79 -104 -108 -21 -22 63 -24 64 -52 25 -17
-22 -44 -57 -61 -77 -29 -35 -27 -48 25 -165 65 -146 72 -149 140 -68 55 66
87 77 87 30 0 -40 20 -37 79 12 l48 40 -50 154 -50 154 -58 -84z"/>
<path d="M4715 1630 c-50 -225 -47 -245 54 -343 106 -101 110 -101 125 6 8 61
1 85 -32 115 -23 21 -42 49 -42 63 0 14 -13 30 -30 36 -34 13 -41 73 -9 73 12
0 16 9 9 20 -7 12 -20 16 -30 10 -9 -6 -20 10 -24 35 -7 40 -9 38 -21 -15z"/>
<path d="M5818 1620 c-2 -16 -1 -38 0 -47 2 -10 -7 -29 -19 -44 -12 -15 -17
-37 -10 -48 8 -12 4 -21 -8 -21 -11 0 -21 -29 -21 -65 0 -36 -9 -97 -19 -135
-17 -60 -16 -65 7 -35 14 19 37 35 51 35 15 0 19 15 11 40 -9 27 -4 40 15 40
20 0 25 18 19 60 -5 39 0 60 16 60 20 0 20 6 0 30 -14 16 -20 47 -15 68 6 21
2 50 -7 65 -14 22 -18 22 -20 -3z"/>
<path d="M3669 1550 c7 -33 14 -73 17 -90 15 -98 146 -144 225 -79 34 28 79
-43 47 -75 -14 -14 -7 -20 21 -18 48 2 80 43 81 101 0 38 0 38 -28 0 -26 -35
-29 -28 -42 77 -19 151 -30 153 -138 30 -85 -97 -150 -121 -96 -35 31 49 31
74 0 43 -34 -34 -56 -30 -56 11 0 19 -10 49 -22 65 -16 23 -18 16 -9 -30z"/>
<path d="M5435 1544 c-26 -69 -56 -81 -93 -36 -45 54 -94 50 -117 -10 -20 -55
62 -138 136 -138 24 0 126 219 110 236 -6 6 -23 -17 -36 -52z"/>
<path d="M5524 1487 c-25 -28 -54 -69 -65 -89 -31 -58 14 -48 53 12 24 37 50
50 100 50 80 0 89 33 17 60 -63 24 -51 28 -105 -33z"/>
<path d="M4420 1425 c0 -21 32 -112 71 -202 71 -165 84 -369 38 -597 -10 -47
62 -132 100 -120 11 4 27 42 36 85 9 42 24 82 34 88 10 6 1 60 -21 120 -21 60
-38 118 -38 128 0 39 58 -33 70 -87 7 -31 26 -68 42 -82 17 -14 28 -16 25 -6
-2 10 6 54 19 98 37 127 35 130 -85 130 l-108 0 9 65 c6 47 -12 112 -69 234
-77 166 -123 222 -123 146z"/>
<path d="M5106 1414 c-1 -13 -7 -48 -15 -76 -10 -39 -6 -56 18 -65 64 -24 76
117 14 155 -9 6 -17 -1 -17 -14z"/>
<path d="M4317 1288 c-86 -190 -156 -473 -138 -556 9 -38 12 -75 6 -81 -6 -5
-1 -22 10 -36 11 -14 27 -65 35 -115 13 -78 18 -85 38 -52 12 20 42 61 65 91
42 50 43 64 26 252 -25 278 -24 484 3 493 12 4 18 33 15 64 -6 52 -12 47 -60
-60z"/>
<path d="M4191 1336 c-30 -43 -42 -96 -21 -96 24 0 83 76 83 107 0 46 -25 41
-62 -11z"/>
<path d="M3380 1331 c0 -36 33 -58 61 -40 14 8 14 21 -2 41 -31 36 -59 36 -59
-1z"/>
<path d="M5420 1260 c-33 -100 -72 -137 -106 -102 -19 20 -14 33 23 63 26 22
38 39 27 39 -12 0 -33 -11 -48 -25 -103 -95 -115 -101 -146 -75 -17 14 -37 19
-45 11 -14 -14 130 -150 159 -151 7 0 19 17 25 37 9 29 32 38 95 38 146 0 221
130 118 204 -75 53 -71 54 -102 -39z"/>
<path d="M4677 1201 c-8 -84 13 -150 42 -132 8 6 32 -8 51 -29 19 -21 43 -34
53 -28 32 20 17 62 -32 84 -36 17 -50 40 -55 96 -8 104 -50 110 -59 9z"/>
<path d="M3568 1209 c-37 -28 -36 -31 22 -78 33 -28 75 -63 93 -79 49 -42 119
-77 131 -65 52 53 -186 269 -246 222z"/>
<path d="M5650 1217 c-7 -18 -10 -63 -6 -100 l6 -66 33 51 c28 43 29 57 6 99
-22 41 -28 44 -39 16z"/>
<path d="M3841 1201 c-31 -20 -11 -61 30 -61 31 0 40 51 13 68 -9 5 -28 2 -43
-7z"/>
<path d="M3445 1121 c-66 -55 -55 -81 35 -81 88 0 97 15 45 77 -34 41 -36 41
-80 4z"/>
<path d="M3081 1085 c1 -30 10 -73 21 -95 15 -33 17 -28 12 24 -4 35 1 59 10
54 9 -6 16 -26 16 -45 0 -20 12 -52 27 -73 15 -20 23 -53 18 -73 -5 -21 0 -37
13 -37 12 0 22 -19 22 -41 0 -23 9 -36 20 -29 19 12 29 -40 21 -115 -2 -19 6
-35 18 -35 11 0 21 16 21 35 1 28 4 30 18 7 10 -16 14 -39 9 -52 -5 -13 3 -24
17 -25 116 -8 148 -32 382 -284 31 -34 70 -61 87 -61 43 0 -43 116 -116 158
-32 18 -62 47 -68 66 -15 47 -124 136 -166 136 -52 0 -340 464 -326 525 1 8
-10 15 -27 15 -20 0 -30 -19 -29 -55z"/>
<path d="M3948 1092 c-30 -77 -1 -132 49 -94 42 32 45 40 20 79 -31 50 -54 55
-69 15z"/>
<path d="M3285 1044 l-46 -35 84 -114 c103 -140 107 -137 66 42 -35 156 -38
158 -104 107z"/>
<path d="M5052 1000 l-38 -79 53 -42 c29 -23 53 -55 53 -70 0 -53 55 -30 81
34 24 59 23 65 -27 101 -33 24 -54 58 -54 88 0 70 -25 59 -68 -32z"/>
<path d="M5411 1009 c-17 -18 -31 -45 -31 -61 0 -17 -20 -67 -45 -112 -46 -85
-52 -93 -154 -224 -34 -43 -61 -85 -61 -95 0 -25 138 53 171 96 15 20 28 26
28 13 1 -13 -12 -37 -29 -53 -16 -17 -30 -44 -30 -60 0 -17 -9 -36 -20 -43
-11 -7 -20 -30 -20 -52 0 -27 -18 -43 -58 -51 -43 -8 -61 -25 -68 -64 -15 -74
-6 -75 68 -4 50 47 69 56 83 37 14 -20 16 -18 9 5 -5 17 3 48 18 69 16 21 28
53 28 71 0 19 36 79 80 134 107 134 107 209 1 96 -48 -51 -81 -51 -81 -1 0 15
20 33 45 41 25 7 65 32 90 55 34 31 46 34 47 12 2 -15 8 -1 15 32 8 35 32 68
58 80 59 26 57 58 -6 87 -68 31 -100 29 -138 -8z"/>
<path d="M3600 1007 c0 -8 27 -62 61 -121 33 -59 56 -115 50 -125 -20 -31 46
-68 77 -43 21 18 30 15 41 -12 11 -30 16 -31 32 -5 15 24 18 23 19 -6 0 -19
-13 -35 -28 -35 -40 0 -47 -39 -22 -135 23 -91 70 -86 70 8 0 26 16 49 38 56
50 16 69 110 25 126 -48 17 -103 78 -103 114 0 17 -13 31 -28 31 -31 0 -58
-54 -41 -82 6 -10 2 -18 -10 -18 -11 0 -22 11 -23 25 -2 14 -5 34 -7 45 -3 11
-6 32 -8 46 -2 15 -13 20 -26 12 -16 -10 -20 -1 -12 29 9 34 -2 51 -47 74 -32
16 -58 24 -58 16z"/>
<path d="M3833 952 c-12 -31 22 -51 63 -37 20 7 20 15 2 37 -29 36 -51 36 -65
0z"/>
<path d="M3480 927 c0 -10 28 -50 61 -88 l62 -69 -37 67 c-38 70 -86 120 -86
90z"/>
<path d="M4051 789 c-40 -41 -40 -74 2 -65 18 3 40 26 49 51 19 52 -5 59 -51
14z"/>
<path d="M5014 765 c-20 -35 -35 -414 -15 -385 11 17 21 55 21 86 0 30 17 89
37 130 59 116 68 157 34 157 -16 0 -25 -7 -19 -17 15 -24 -11 -96 -36 -96 -13
0 -16 26 -7 70 12 65 5 90 -15 55z"/>
<path d="M3440 743 c0 -9 17 -32 37 -50 34 -31 36 -31 37 2 0 34 -28 64 -59
65 -8 0 -15 -8 -15 -17z"/>
<path d="M4929 717 c-8 -26 -14 -81 -12 -122 1 -41 -5 -75 -14 -75 -21 0 -63
91 -63 135 0 69 -41 -10 -90 -174 -52 -175 -65 -301 -29 -301 23 0 24 4 61
170 15 66 30 104 34 85 10 -50 34 -43 62 18 13 29 28 47 34 41 6 -6 1 -30 -12
-55 -19 -35 -19 -42 3 -35 18 6 32 64 41 177 15 174 10 215 -15 136z"/>
<path d="M3540 697 c0 -19 12 -46 26 -61 14 -14 32 -42 40 -62 8 -20 23 -31
34 -24 11 7 47 -7 80 -30 74 -53 85 -9 20 75 -22 28 -40 71 -40 95 0 39 -10
45 -80 43 -61 -2 -80 -10 -80 -36z"/>
<path d="M4089 576 c29 -97 71 -125 71 -48 0 33 -11 52 -30 52 -17 0 -30 18
-30 40 0 22 -8 40 -18 40 -10 0 -7 -38 7 -84z"/>
<path d="M4390 378 c8 -104 22 -207 31 -231 22 -58 8 -67 -103 -67 -113 0
-115 2 -131 158 -13 128 -37 157 -59 72 -18 -73 -38 -62 -78 45 -48 129 -63
140 -78 57 -16 -85 83 -274 107 -205 11 31 22 24 67 -45 l55 -82 -143 0 c-112
0 -148 8 -175 37 -26 29 -54 35 -138 28 -140 -12 -134 -41 10 -51 63 -5 -200
-7 -585 -6 -503 1 -714 -5 -750 -22 -39 -18 410 -24 2030 -24 1916 0 2075 2
2021 32 -70 37 -29 37 -966 17 -564 -12 -751 -11 -773 7 -19 16 -33 17 -41 3
-8 -12 -56 -21 -108 -21 l-94 0 -2 105 c-2 114 -61 349 -92 368 -13 8 -14 -55
-5 -175z"/>
<path d="M4635 449 c-8 -9 -15 -43 -14 -77 0 -53 3 -57 21 -26 23 39 17 127
-7 103z"/>
<path d="M3773 389 c14 -36 87 -80 87 -51 0 24 -57 82 -81 82 -10 0 -12 -14
-6 -31z"/>
<path d="M3903 302 c2 -83 11 -105 59 -140 69 -51 95 -54 54 -7 -54 61 -100
168 -90 207 6 21 2 38 -8 38 -9 0 -16 -44 -15 -98z"/>
<path d="M4911 182 c-46 -75 112 -106 319 -63 66 13 47 17 -107 19 -158 2
-185 7 -176 32 13 32 -17 42 -36 12z"/>
<path d="M2245 5 c1240 -3 3270 -3 4510 0 1240 3 226 5 -2255 5 -2481 0 -3495
-2 -2255 -5z"/>
</g>
</svg>
