<svg width="206" height="73" viewBox="0 0 206 73" fill="none" xmlns="http://www.w3.org/2000/svg">
<g clip-path="url(#clip0_7265_54)">
<path d="M199.618 72.5796H5.53315C2.47562 72.5796 0 70.104 0 67.0464V6.11274C0 3.05521 2.47562 0.57959 5.53315 0.57959H199.608C202.665 0.57959 205.141 3.05521 205.141 6.11274V67.0366C205.151 70.104 202.675 72.5796 199.618 72.5796Z" fill="white"/>
<path d="M70.3036 38.3946C71.3195 39.2133 71.8324 40.3278 71.8324 41.7481C71.8324 42.6456 71.6154 43.4544 71.1913 44.1645C70.7672 44.8746 70.1162 45.4467 69.2581 45.8609C68.4 46.2752 67.3348 46.4823 66.0822 46.4823C65.0072 46.4823 63.9814 46.3146 62.9754 45.9891C61.9792 45.6637 61.1507 45.21 60.4998 44.6281L61.4959 42.9119C62.0187 43.405 62.6795 43.7996 63.4883 44.0954C64.297 44.3913 65.1551 44.5393 66.0526 44.5393C67.1967 44.5393 68.0844 44.2927 68.7156 43.8094C69.3469 43.3261 69.6625 42.6653 69.6625 41.827C69.6625 40.9196 69.3173 40.2291 68.617 39.7557C67.9167 39.2823 66.7332 39.0554 65.0565 39.0554H61.6044L62.4033 31.1157H70.9743V32.9996H64.228L63.8137 37.1716H65.5102C67.6899 37.1716 69.2877 37.576 70.3036 38.3946Z" fill="#E5712B"/>
<path d="M74.0219 46.0086C73.7359 45.7226 73.588 45.3675 73.588 44.9336C73.588 44.5094 73.7359 44.1642 74.0219 43.8782C74.308 43.5922 74.663 43.4541 75.0674 43.4541C75.4718 43.4541 75.817 43.5922 76.0833 43.8683C76.3595 44.1445 76.4975 44.4996 76.4975 44.9336C76.4975 45.3675 76.3595 45.7226 76.0734 46.0086C75.7874 46.2946 75.4521 46.4327 75.0674 46.4327C74.663 46.4327 74.3178 46.2946 74.0219 46.0086Z" fill="#E5712B"/>
<path d="M81.3008 45.555C80.3639 44.9435 79.634 44.0459 79.1014 42.8722C78.5688 41.6985 78.3025 40.3079 78.3025 38.71C78.3025 37.1122 78.5688 35.7117 79.1014 34.5478C79.634 33.3742 80.3737 32.4865 81.3008 31.8651C82.2378 31.2536 83.303 30.938 84.5063 30.938C85.6899 30.938 86.7551 31.2437 87.6822 31.8651C88.6192 32.4766 89.3491 33.3742 89.8817 34.5478C90.4143 35.7215 90.6806 37.1122 90.6806 38.71C90.6806 40.3079 90.4143 41.7084 89.8817 42.8722C89.3491 44.0459 88.6093 44.9336 87.6822 45.555C86.7452 46.1665 85.6899 46.4722 84.5063 46.4722C83.303 46.4821 82.2378 46.1665 81.3008 45.555ZM87.4258 43.0498C88.1556 42.0536 88.5206 40.6037 88.5206 38.71C88.5206 36.8163 88.1556 35.3665 87.4258 34.3703C86.6959 33.3742 85.7195 32.8711 84.5063 32.8711C83.2734 32.8711 82.297 33.3742 81.5671 34.3703C80.8373 35.3665 80.4724 36.8163 80.4724 38.71C80.4724 40.6037 80.8373 42.0536 81.5671 43.0498C82.297 44.0459 83.2734 44.5489 84.5063 44.5489C85.7195 44.5489 86.6959 44.0459 87.4258 43.0498Z" fill="#E5712B"/>
<path d="M110.801 44.0358C110.87 44.4994 110.584 44.7065 110.16 44.4895L106.698 42.7437C106.284 42.5366 105.593 42.5268 105.179 42.7339L101.698 44.45C101.283 44.6572 100.997 44.45 101.066 43.9865L101.658 40.1498C101.727 39.6862 101.52 39.0353 101.195 38.6999L98.492 35.9185C98.1666 35.5832 98.2751 35.2479 98.7386 35.1788L102.565 34.5574C103.029 34.4785 103.581 34.084 103.798 33.6698L105.603 30.2374C105.82 29.8232 106.175 29.8232 106.382 30.2374L108.158 33.6796C108.375 34.0939 108.927 34.4983 109.381 34.5772L113.208 35.238C113.671 35.3169 113.77 35.6522 113.444 35.9876L110.712 38.7394C110.387 39.0747 110.17 39.7158 110.239 40.1794L110.801 44.0358Z" fill="#E5712B"/>
<g opacity="0.5">
<path d="M105.998 30.1392C106.067 30.1392 106.156 30.2181 106.225 30.3463L108 33.7983C108.247 34.2718 108.838 34.7057 109.361 34.7945L113.188 35.4553C113.336 35.475 113.435 35.5342 113.454 35.6033C113.474 35.6723 113.425 35.7709 113.326 35.8794L110.594 38.6312C110.219 39.006 109.992 39.7063 110.061 40.229L110.614 44.0657C110.633 44.1939 110.614 44.2926 110.574 44.3518C110.564 44.3616 110.535 44.3912 110.466 44.3912C110.407 44.3912 110.328 44.3715 110.249 44.332L106.787 42.5863C106.56 42.4679 106.254 42.4087 105.929 42.4087C105.613 42.4087 105.317 42.4679 105.09 42.5764L101.609 44.2926C101.53 44.332 101.451 44.3518 101.392 44.3518C101.323 44.3518 101.293 44.3222 101.283 44.3123C101.244 44.263 101.224 44.1545 101.244 44.0263L101.836 40.1896C101.915 39.6668 101.688 38.9567 101.323 38.5819L98.6203 35.8005C98.5216 35.692 98.4723 35.5934 98.492 35.5244C98.5118 35.4553 98.6104 35.3961 98.7583 35.3764L102.585 34.755C103.108 34.6663 103.71 34.2323 103.956 33.7687L105.761 30.3364C105.84 30.2181 105.919 30.1392 105.998 30.1392ZM105.998 29.9419C105.86 29.9419 105.712 30.0405 105.603 30.2476L103.798 33.68C103.581 34.0942 103.029 34.4887 102.565 34.5676L98.7386 35.189C98.2751 35.2679 98.1666 35.6033 98.492 35.9287L101.195 38.7101C101.52 39.0455 101.727 39.6964 101.658 40.16L101.066 43.9967C101.017 44.332 101.155 44.5392 101.402 44.5392C101.49 44.5392 101.589 44.5096 101.698 44.4603L105.179 42.7441C105.386 42.6455 105.662 42.5863 105.929 42.5863C106.205 42.5863 106.481 42.6455 106.698 42.7441L110.16 44.4898C110.268 44.549 110.377 44.5687 110.466 44.5687C110.712 44.5687 110.85 44.3715 110.801 44.0263L110.249 40.1896C110.18 39.726 110.397 39.075 110.722 38.7496L113.454 35.9978C113.78 35.6624 113.671 35.3271 113.218 35.2482L109.391 34.5874C108.927 34.5085 108.385 34.1041 108.168 33.6898L106.392 30.2476C106.284 30.0504 106.136 29.9419 105.998 29.9419Z" fill="#E5712B"/>
</g>
<path d="M130.833 44.0358C130.902 44.4994 130.616 44.7065 130.192 44.4895L126.73 42.7437C126.316 42.5366 125.625 42.5268 125.211 42.7339L121.729 44.45C121.315 44.6572 121.029 44.45 121.098 43.9865L121.69 40.1498C121.759 39.6862 121.552 39.0353 121.226 38.6999L118.524 35.9185C118.198 35.5832 118.307 35.2479 118.77 35.1788L122.597 34.5574C123.061 34.4785 123.613 34.084 123.83 33.6698L125.635 30.2374C125.852 29.8232 126.207 29.8232 126.424 30.2374L128.199 33.6796C128.416 34.0939 128.969 34.4983 129.422 34.5772L133.249 35.238C133.713 35.3169 133.812 35.6522 133.486 35.9876L130.754 38.7394C130.429 39.0747 130.212 39.7158 130.281 40.1794L130.833 44.0358Z" fill="#E5712B"/>
<g opacity="0.5">
<path d="M126.03 30.1392C126.099 30.1392 126.187 30.2181 126.256 30.3463L128.032 33.7983C128.278 34.2718 128.87 34.7057 129.393 34.7945L133.22 35.4553C133.368 35.475 133.466 35.5342 133.486 35.6033C133.506 35.6723 133.456 35.7709 133.358 35.8794L130.626 38.6312C130.251 39.006 130.024 39.7063 130.093 40.229L130.645 44.0657C130.665 44.1939 130.645 44.2926 130.606 44.3518C130.596 44.3616 130.567 44.3912 130.498 44.3912C130.438 44.3912 130.359 44.3715 130.281 44.332L126.819 42.5863C126.592 42.4679 126.286 42.4087 125.961 42.4087C125.645 42.4087 125.349 42.4679 125.122 42.5764L121.641 44.2926C121.562 44.332 121.483 44.3518 121.424 44.3518C121.355 44.3518 121.325 44.3222 121.315 44.3123C121.276 44.263 121.256 44.1545 121.276 44.0263L121.867 40.1896C121.946 39.6668 121.719 38.9567 121.355 38.5819L118.652 35.8005C118.553 35.692 118.504 35.5934 118.524 35.5244C118.544 35.4553 118.642 35.3961 118.79 35.3764L122.617 34.755C123.14 34.6663 123.741 34.2323 123.988 33.7687L125.793 30.3364C125.872 30.2181 125.961 30.1392 126.03 30.1392ZM126.03 29.9419C125.892 29.9419 125.744 30.0405 125.635 30.2476L123.83 33.68C123.613 34.0942 123.061 34.4887 122.597 34.5676L118.77 35.189C118.307 35.2679 118.198 35.6033 118.524 35.9287L121.226 38.7101C121.552 39.0455 121.759 39.6964 121.69 40.16L121.098 43.9967C121.049 44.332 121.187 44.5392 121.433 44.5392C121.522 44.5392 121.621 44.5096 121.729 44.4603L125.211 42.7441C125.418 42.6455 125.694 42.5863 125.961 42.5863C126.237 42.5863 126.513 42.6455 126.73 42.7441L130.192 44.4898C130.3 44.549 130.409 44.5687 130.488 44.5687C130.734 44.5687 130.872 44.3715 130.823 44.0263L130.271 40.1896C130.202 39.726 130.419 39.075 130.744 38.7496L133.476 35.9978C133.802 35.6624 133.693 35.3271 133.239 35.2482L129.413 34.5874C128.949 34.5085 128.407 34.1041 128.19 33.6898L126.414 30.2476C126.316 30.0504 126.168 29.9419 126.03 29.9419Z" fill="#E5712B"/>
</g>
<path d="M150.865 44.0358C150.934 44.4994 150.648 44.7065 150.224 44.4895L146.762 42.7437C146.347 42.5366 145.657 42.5268 145.243 42.7339L141.761 44.45C141.347 44.6572 141.061 44.45 141.13 43.9865L141.722 40.1498C141.791 39.6862 141.584 39.0353 141.258 38.6999L138.556 35.9185C138.23 35.5832 138.339 35.2479 138.802 35.1788L142.629 34.5574C143.093 34.4785 143.645 34.084 143.862 33.6698L145.667 30.2374C145.884 29.8232 146.239 29.8232 146.446 30.2374L148.221 33.6796C148.438 34.0939 148.991 34.4983 149.444 34.5772L153.271 35.238C153.735 35.3169 153.833 35.6522 153.508 35.9876L150.776 38.7394C150.45 39.0747 150.233 39.7158 150.302 40.1794L150.865 44.0358Z" fill="#E5712B"/>
<g opacity="0.5">
<path d="M146.061 30.1392C146.13 30.1392 146.219 30.2181 146.288 30.3463L148.064 33.7983C148.31 34.2718 148.902 34.7057 149.425 34.7945L153.251 35.4553C153.399 35.475 153.498 35.5342 153.518 35.6033C153.537 35.6723 153.488 35.7709 153.39 35.8794L150.657 38.6312C150.283 39.006 150.056 39.7063 150.125 40.229L150.677 44.0657C150.697 44.1939 150.677 44.2926 150.638 44.3518C150.628 44.3616 150.598 44.3912 150.529 44.3912C150.47 44.3912 150.391 44.3715 150.312 44.332L146.85 42.5863C146.624 42.4679 146.318 42.4087 146.002 42.4087C145.687 42.4087 145.391 42.4679 145.164 42.5764L141.682 44.2926C141.603 44.332 141.524 44.3518 141.465 44.3518C141.396 44.3518 141.367 44.3222 141.357 44.3123C141.317 44.263 141.297 44.1545 141.317 44.0263L141.909 40.1896C141.988 39.6668 141.761 38.9567 141.396 38.5819L138.694 35.8005C138.595 35.692 138.546 35.5934 138.565 35.5244C138.585 35.4553 138.684 35.3961 138.832 35.3764L142.659 34.755C143.181 34.6663 143.783 34.2323 144.03 33.7687L145.834 30.3364C145.904 30.2181 145.992 30.1392 146.061 30.1392ZM146.061 29.9419C145.923 29.9419 145.775 30.0405 145.667 30.2476L143.862 33.68C143.645 34.0942 143.093 34.4887 142.629 34.5676L138.802 35.189C138.339 35.2679 138.23 35.6033 138.556 35.9287L141.258 38.7101C141.584 39.0455 141.791 39.6964 141.722 40.16L141.13 43.9967C141.081 44.332 141.219 44.5392 141.465 44.5392C141.554 44.5392 141.653 44.5096 141.761 44.4603L145.243 42.7441C145.45 42.6455 145.716 42.5863 145.992 42.5863C146.268 42.5863 146.545 42.6455 146.762 42.7441L150.224 44.4898C150.332 44.549 150.441 44.5687 150.519 44.5687C150.766 44.5687 150.904 44.3715 150.855 44.0263L150.302 40.1896C150.233 39.726 150.45 39.075 150.776 38.7496L153.508 35.9978C153.833 35.6624 153.725 35.3271 153.271 35.2482L149.444 34.5874C148.981 34.5085 148.438 34.1041 148.221 33.6898L146.446 30.2476C146.347 30.0504 146.199 29.9419 146.061 29.9419Z" fill="#E5712B"/>
</g>
<path d="M170.897 44.0358C170.966 44.4994 170.68 44.7065 170.265 44.4895L166.803 42.7437C166.389 42.5366 165.699 42.5268 165.285 42.7339L161.803 44.45C161.389 44.6572 161.103 44.45 161.172 43.9865L161.763 40.1498C161.832 39.6862 161.625 39.0353 161.3 38.6999L158.597 35.9185C158.272 35.5832 158.38 35.2479 158.844 35.1788L162.671 34.5574C163.134 34.4785 163.687 34.084 163.904 33.6698L165.709 30.2374C165.926 29.8232 166.281 29.8232 166.488 30.2374L168.263 33.6796C168.48 34.0939 169.032 34.4983 169.486 34.5772L173.303 35.238C173.767 35.3169 173.865 35.6522 173.54 35.9876L170.808 38.7394C170.482 39.0747 170.265 39.7158 170.334 40.1794L170.897 44.0358Z" fill="#E5712B"/>
<g opacity="0.5">
<path d="M166.093 30.1392C166.162 30.1392 166.251 30.2181 166.32 30.3463L168.095 33.7983C168.342 34.2718 168.934 34.7057 169.456 34.7945L173.273 35.4553C173.421 35.475 173.52 35.5342 173.54 35.6033C173.559 35.6723 173.51 35.7709 173.411 35.8794L170.679 38.6312C170.305 39.006 170.078 39.7063 170.147 40.229L170.699 44.0657C170.719 44.1939 170.699 44.2926 170.66 44.3518C170.65 44.3616 170.62 44.3912 170.551 44.3912C170.492 44.3912 170.413 44.3715 170.334 44.332L166.872 42.5863C166.645 42.4679 166.34 42.4087 166.014 42.4087C165.699 42.4087 165.403 42.4679 165.176 42.5764L161.694 44.2926C161.615 44.332 161.536 44.3518 161.477 44.3518C161.408 44.3518 161.379 44.3222 161.369 44.3123C161.329 44.263 161.31 44.1545 161.329 44.0263L161.921 40.1896C162 39.6668 161.773 38.9567 161.408 38.5819L158.706 35.8005C158.607 35.692 158.558 35.5934 158.578 35.5244C158.597 35.4553 158.696 35.3961 158.844 35.3764L162.671 34.755C163.193 34.6663 163.795 34.2323 164.042 33.7687L165.847 30.3364C165.935 30.2181 166.024 30.1392 166.093 30.1392ZM166.093 29.9419C165.955 29.9419 165.807 30.0405 165.699 30.2476L163.894 33.68C163.677 34.0942 163.124 34.4887 162.661 34.5676L158.834 35.189C158.37 35.2679 158.262 35.6033 158.587 35.9287L161.29 38.7101C161.615 39.0455 161.822 39.6964 161.753 40.16L161.162 43.9967C161.112 44.332 161.25 44.5392 161.497 44.5392C161.586 44.5392 161.684 44.5096 161.793 44.4603L165.275 42.7441C165.482 42.6455 165.758 42.5863 166.024 42.5863C166.3 42.5863 166.576 42.6455 166.793 42.7441L170.255 44.4898C170.364 44.549 170.472 44.5687 170.551 44.5687C170.798 44.5687 170.936 44.3715 170.887 44.0263L170.334 40.1896C170.265 39.726 170.482 39.075 170.808 38.7496L173.54 35.9978C173.865 35.6624 173.757 35.3271 173.303 35.2482L169.486 34.5874C169.022 34.5085 168.48 34.1041 168.263 33.6898L166.488 30.2476C166.379 30.0504 166.241 29.9419 166.093 29.9419Z" fill="#E5712B"/>
</g>
<path d="M190.928 44.0358C190.997 44.4994 190.711 44.7065 190.297 44.4895L186.835 42.7437C186.421 42.5366 185.731 42.5268 185.316 42.7339L181.835 44.45C181.42 44.6572 181.134 44.45 181.203 43.9865L181.795 40.1498C181.864 39.6862 181.657 39.0353 181.332 38.6999L178.629 35.9185C178.304 35.5832 178.412 35.2479 178.876 35.1788L182.703 34.5574C183.166 34.4785 183.719 34.084 183.935 33.6698L185.74 30.2374C185.957 29.8232 186.312 29.8232 186.529 30.2374L188.305 33.6796C188.522 34.0939 189.074 34.4983 189.528 34.5772L193.345 35.238C193.808 35.3169 193.917 35.6522 193.582 35.9876L190.849 38.7394C190.524 39.0747 190.307 39.7158 190.376 40.1794L190.928 44.0358Z" fill="#E5712B"/>
<g opacity="0.5">
<path d="M186.125 30.1392C186.194 30.1392 186.283 30.2181 186.352 30.3463L188.127 33.7983C188.374 34.2718 188.965 34.7057 189.488 34.7945L193.305 35.4553C193.453 35.475 193.552 35.5342 193.571 35.6033C193.591 35.6723 193.542 35.7709 193.443 35.8794L190.711 38.6312C190.336 39.006 190.11 39.7063 190.179 40.229L190.731 44.0657C190.751 44.1939 190.731 44.2926 190.691 44.3518C190.682 44.3616 190.652 44.3912 190.583 44.3912C190.524 44.3912 190.445 44.3715 190.366 44.332L186.904 42.5863C186.677 42.4679 186.371 42.4087 186.056 42.4087C185.74 42.4087 185.444 42.4679 185.218 42.5764L181.736 44.2926C181.657 44.332 181.578 44.3518 181.519 44.3518C181.45 44.3518 181.42 44.3222 181.41 44.3123C181.361 44.263 181.351 44.1545 181.371 44.0263L181.963 40.1896C182.042 39.6668 181.815 38.9567 181.45 38.5819L178.747 35.8005C178.649 35.692 178.599 35.5934 178.619 35.5244C178.639 35.4553 178.738 35.3961 178.885 35.3764L182.712 34.755C183.235 34.6663 183.837 34.2323 184.083 33.7687L185.888 30.3364C185.967 30.2181 186.056 30.1392 186.125 30.1392ZM186.125 29.9419C185.987 29.9419 185.839 30.0405 185.73 30.2476L183.925 33.68C183.708 34.0942 183.156 34.4887 182.693 34.5676L178.866 35.189C178.402 35.2679 178.294 35.6033 178.619 35.9287L181.322 38.7101C181.647 39.0455 181.854 39.6964 181.785 40.16L181.193 43.9967C181.144 44.332 181.282 44.5392 181.529 44.5392C181.618 44.5392 181.716 44.5096 181.825 44.4603L185.306 42.7441C185.513 42.6455 185.79 42.5863 186.056 42.5863C186.332 42.5863 186.608 42.6455 186.825 42.7441L190.287 44.4898C190.396 44.549 190.494 44.5687 190.583 44.5687C190.83 44.5687 190.968 44.3715 190.918 44.0263L190.366 40.1896C190.297 39.726 190.514 39.075 190.839 38.7496L193.571 35.9978C193.897 35.6624 193.788 35.3271 193.335 35.2482L189.518 34.6071C189.054 34.5282 188.512 34.1238 188.295 33.7096L186.519 30.2674C186.411 30.0504 186.273 29.9419 186.125 29.9419Z" fill="#E5712B"/>
</g>
<path d="M51.2078 36.4325C51.2078 35.0911 51.0895 33.8188 50.8823 32.5859H31.7185V40.2396H42.696C42.2029 42.7547 40.7629 44.8654 38.6226 46.3153V51.4046H45.1717C48.9985 47.8539 51.2078 42.6265 51.2078 36.4325Z" fill="#4285F4"/>
<path d="M31.7185 56.3361C37.2122 56.3361 41.8083 54.5016 45.1716 51.4046L38.6226 46.3054C36.7881 47.5284 34.4703 48.2681 31.7185 48.2681C26.4122 48.2681 21.9146 44.6879 20.307 39.855H13.5607V45.0922C16.8944 51.7498 23.759 56.3361 31.7185 56.3361Z" fill="#34A853"/>
<path d="M20.307 39.8648C19.8829 38.6418 19.6659 37.3399 19.6659 35.9788C19.6659 34.6177 19.9026 33.3157 20.307 32.0927V26.8555H13.5607C12.17 29.6072 11.3711 32.6944 11.3711 35.9788C11.3711 39.273 12.17 42.3601 13.5607 45.102L20.307 39.8648Z" fill="#FBBC05"/>
<path d="M31.7185 23.6797C34.7169 23.6797 37.3996 24.7153 39.5202 26.7372L45.3196 20.9377C41.8084 17.6435 37.2122 15.6216 31.7185 15.6216C23.7591 15.6216 16.8944 20.198 13.5508 26.8457L20.2971 32.083C21.9147 27.2599 26.4122 23.6797 31.7185 23.6797Z" fill="#EA4335"/>
<path d="M68.8932 14.9798H69.8696V18.6685C69.4159 19.063 68.8833 19.3688 68.2718 19.5759C67.6504 19.783 67.0093 19.8915 66.3288 19.8915C65.3622 19.8915 64.4943 19.6844 63.7151 19.2603C62.9458 18.8362 62.3343 18.2543 61.8904 17.4948C61.4466 16.7452 61.2296 15.9069 61.2296 14.9798C61.2296 14.0526 61.4466 13.2143 61.8904 12.4548C62.3343 11.7052 62.9359 11.1134 63.7151 10.6893C64.4844 10.2652 65.3622 10.0581 66.3387 10.0581C67.0784 10.0581 67.7491 10.1765 68.3704 10.4132C68.9918 10.6499 69.5047 10.9951 69.9288 11.4587L69.2976 12.1096C68.5381 11.3502 67.5617 10.9754 66.388 10.9754C65.6088 10.9754 64.8987 11.143 64.2674 11.4882C63.6362 11.8334 63.143 12.3167 62.788 12.9282C62.4329 13.5398 62.2455 14.2203 62.2455 14.9798C62.2455 15.7392 62.423 16.4197 62.788 17.0214C63.143 17.6329 63.6362 18.1063 64.2674 18.4614C64.8888 18.8066 65.5989 18.9841 66.3781 18.9841C67.3743 18.9841 68.2126 18.7376 68.903 18.2345V14.9798H68.8932Z" fill="black"/>
<path d="M73.6274 19.3983C73.0653 19.0827 72.6214 18.6389 72.3058 18.0767C71.9902 17.5145 71.8225 16.8833 71.8225 16.1731C71.8225 15.463 71.9803 14.8318 72.3058 14.2696C72.6313 13.7074 73.0653 13.2734 73.6274 12.9578C74.1896 12.6422 74.8209 12.4844 75.5211 12.4844C76.2214 12.4844 76.8526 12.6422 77.4148 12.9578C77.977 13.2734 78.4209 13.7074 78.7365 14.2696C79.0521 14.8318 79.2099 15.463 79.2099 16.1731C79.2099 16.8833 79.0521 17.5145 78.7365 18.0767C78.4209 18.6389 77.977 19.0827 77.4148 19.3983C76.8526 19.714 76.2214 19.8718 75.5211 19.8718C74.8209 19.8718 74.1896 19.714 73.6274 19.3983ZM76.902 18.6586C77.3162 18.4219 77.6318 18.0866 77.8587 17.6526C78.0855 17.2186 78.2039 16.7255 78.2039 16.1731C78.2039 15.6208 78.0855 15.1277 77.8587 14.6937C77.6318 14.2597 77.3063 13.9244 76.902 13.6975C76.4877 13.4608 76.034 13.3425 75.5113 13.3425C74.9984 13.3425 74.5348 13.4608 74.1206 13.6975C73.7063 13.9342 73.3907 14.2696 73.154 14.6937C72.9173 15.1277 72.7989 15.6208 72.7989 16.1731C72.7989 16.7255 72.9173 17.2186 73.154 17.6526C73.3907 18.0866 73.7063 18.4219 74.1206 18.6586C74.5348 18.8953 74.9885 19.0137 75.5113 19.0137C76.034 19.0038 76.4976 18.8855 76.902 18.6586Z" fill="black"/>
<path d="M82.2872 19.3983C81.725 19.0827 81.2811 18.6389 80.9655 18.0767C80.6499 17.5145 80.4822 16.8833 80.4822 16.1731C80.4822 15.463 80.64 14.8318 80.9655 14.2696C81.291 13.7074 81.725 13.2734 82.2872 12.9578C82.8494 12.6422 83.4806 12.4844 84.1809 12.4844C84.8811 12.4844 85.5124 12.6422 86.0746 12.9578C86.6368 13.2734 87.0806 13.7074 87.3962 14.2696C87.7118 14.8318 87.8696 15.463 87.8696 16.1731C87.8696 16.8833 87.7118 17.5145 87.3962 18.0767C87.0806 18.6389 86.6368 19.0827 86.0746 19.3983C85.5124 19.714 84.8811 19.8718 84.1809 19.8718C83.4707 19.8718 82.8494 19.714 82.2872 19.3983ZM85.5617 18.6586C85.9759 18.4219 86.2916 18.0866 86.5184 17.6526C86.7453 17.2186 86.8636 16.7255 86.8636 16.1731C86.8636 15.6208 86.7453 15.1277 86.5184 14.6937C86.2916 14.2597 85.9661 13.9244 85.5617 13.6975C85.1474 13.4608 84.6937 13.3425 84.171 13.3425C83.6581 13.3425 83.1946 13.4608 82.7803 13.6975C82.3661 13.9342 82.0505 14.2696 81.8137 14.6937C81.577 15.1277 81.4587 15.6208 81.4587 16.1731C81.4587 16.7255 81.577 17.2186 81.8137 17.6526C82.0505 18.0866 82.3661 18.4219 82.7803 18.6586C83.1946 18.8953 83.6483 19.0137 84.171 19.0137C84.6937 19.0038 85.1573 18.8855 85.5617 18.6586Z" fill="black"/>
<path d="M96.5885 12.5436V18.9249C96.5885 20.1578 96.2827 21.0751 95.6811 21.6668C95.0795 22.2586 94.1721 22.5545 92.949 22.5545C92.2784 22.5545 91.6373 22.4559 91.0356 22.2586C90.434 22.0614 89.9408 21.7852 89.566 21.44L90.0592 20.6904C90.4044 21.006 90.8384 21.2427 91.3315 21.4203C91.8345 21.5978 92.3573 21.6866 92.9096 21.6866C93.8268 21.6866 94.5074 21.4696 94.9414 21.0455C95.3753 20.6214 95.5923 19.9507 95.5923 19.0531V18.126C95.2866 18.5896 94.8921 18.9348 94.3989 19.1715C93.9058 19.4082 93.3633 19.5266 92.7616 19.5266C92.0811 19.5266 91.4597 19.3786 90.9074 19.0729C90.3551 18.777 89.9112 18.3529 89.5956 17.8203C89.28 17.2778 89.1222 16.6762 89.1222 15.9956C89.1222 15.3151 89.28 14.7036 89.5956 14.171C89.9112 13.6383 90.3452 13.2241 90.8975 12.9282C91.4499 12.6323 92.0712 12.4844 92.7616 12.4844C93.383 12.4844 93.9353 12.6126 94.4285 12.8592C94.9216 13.1057 95.326 13.4707 95.6318 13.9342V12.5436H96.5885ZM94.3003 18.3233C94.7244 18.0964 95.0499 17.7808 95.2866 17.3764C95.5233 16.972 95.6416 16.5085 95.6416 15.9956C95.6416 15.4827 95.5233 15.0192 95.2866 14.6246C95.0499 14.2203 94.7244 13.9145 94.3101 13.6877C93.8959 13.4608 93.4126 13.3523 92.88 13.3523C92.3573 13.3523 91.8838 13.4608 91.4597 13.6877C91.0455 13.9046 90.7101 14.2203 90.4833 14.6246C90.2466 15.029 90.1282 15.4926 90.1282 16.0055C90.1282 16.5183 90.2466 16.9819 90.4833 17.3863C90.72 17.7907 91.0455 18.1063 91.4597 18.3331C91.874 18.56 92.3474 18.6685 92.88 18.6685C93.4126 18.6685 93.8762 18.5501 94.3003 18.3233Z" fill="black"/>
<path d="M99.3403 9.56494H100.317V19.8126H99.3403V9.56494Z" fill="black"/>
<path d="M109.371 16.4789H103.295C103.355 17.2383 103.641 17.84 104.163 18.3036C104.686 18.7671 105.357 19.0038 106.156 19.0038C106.609 19.0038 107.024 18.9249 107.398 18.7573C107.773 18.5994 108.099 18.3627 108.375 18.0471L108.927 18.6783C108.602 19.063 108.207 19.3589 107.724 19.566C107.241 19.7731 106.708 19.8718 106.126 19.8718C105.376 19.8718 104.716 19.714 104.144 19.3983C103.572 19.0827 103.118 18.6389 102.792 18.0767C102.467 17.5145 102.309 16.8833 102.309 16.1731C102.309 15.463 102.467 14.8318 102.773 14.2696C103.078 13.7074 103.503 13.2734 104.045 12.9578C104.578 12.6422 105.189 12.4844 105.86 12.4844C106.53 12.4844 107.132 12.6422 107.665 12.9578C108.197 13.2734 108.621 13.7074 108.917 14.2597C109.223 14.812 109.371 15.4531 109.371 16.1731V16.4789ZM104.104 14.0033C103.631 14.4471 103.364 15.029 103.295 15.749H108.444C108.375 15.029 108.109 14.4471 107.635 14.0033C107.162 13.5594 106.57 13.3326 105.86 13.3326C105.169 13.3326 104.578 13.5594 104.104 14.0033Z" fill="black"/>
<path d="M121.818 19.8127L119.609 16.7059C119.362 16.7355 119.106 16.7453 118.839 16.7453H116.245V19.8127H115.22V10.147H118.839C120.072 10.147 121.039 10.4429 121.739 11.0346C122.439 11.6264 122.785 12.4352 122.785 13.4609C122.785 14.2204 122.597 14.8516 122.213 15.3744C121.828 15.8971 121.285 16.2719 120.575 16.4988L122.933 19.8127H121.818ZM120.999 15.2363C121.502 14.8122 121.759 14.2204 121.759 13.4511C121.759 12.6719 121.502 12.0703 120.999 11.6462C120.496 11.2319 119.767 11.0149 118.8 11.0149H116.236V15.8577H118.8C119.767 15.8675 120.496 15.6604 120.999 15.2363Z" fill="black"/>
<path d="M129.649 13.2043C130.152 13.6777 130.409 14.378 130.409 15.315V19.8125H129.472V18.6783C129.255 19.053 128.929 19.3489 128.495 19.5659C128.071 19.773 127.558 19.8815 126.967 19.8815C126.158 19.8815 125.517 19.6843 125.033 19.2996C124.55 18.915 124.313 18.4021 124.313 17.7709C124.313 17.1495 124.54 16.6563 124.984 16.2815C125.428 15.9067 126.138 15.7193 127.115 15.7193H129.423V15.2755C129.423 14.6541 129.245 14.1709 128.9 13.8454C128.555 13.5199 128.042 13.3522 127.371 13.3522C126.907 13.3522 126.464 13.4311 126.049 13.5791C125.625 13.727 125.26 13.944 124.955 14.2103L124.511 13.4804C124.876 13.1648 125.32 12.9281 125.832 12.7506C126.345 12.5829 126.888 12.4941 127.46 12.4941C128.407 12.4941 129.136 12.7309 129.649 13.2043ZM128.545 18.7276C128.939 18.4711 129.235 18.1062 129.432 17.6328V16.4492H127.154C125.911 16.4492 125.29 16.8832 125.29 17.7511C125.29 18.1752 125.448 18.5106 125.773 18.7572C126.099 19.0037 126.543 19.1221 127.124 19.1221C127.667 19.1024 128.14 18.9741 128.545 18.7276Z" fill="black"/>
<path d="M136.889 19.3686C136.701 19.5363 136.475 19.6645 136.208 19.7533C135.932 19.842 135.656 19.8815 135.36 19.8815C134.679 19.8815 134.157 19.6941 133.782 19.3292C133.417 18.9642 133.23 18.4415 133.23 17.7708V13.3818H131.928V12.5533H133.23V10.9653H134.206V12.5533H136.415V13.3818H134.206V17.7215C134.206 18.1555 134.315 18.4809 134.532 18.7078C134.748 18.9346 135.054 19.0431 135.469 19.0431C135.676 19.0431 135.863 19.0136 136.05 18.9445C136.238 18.8755 136.405 18.7867 136.544 18.6683L136.889 19.3686Z" fill="black"/>
<path d="M138.664 10.7485C138.526 10.6104 138.457 10.4428 138.457 10.2554C138.457 10.068 138.526 9.91015 138.664 9.77206C138.802 9.63398 138.97 9.56494 139.177 9.56494C139.384 9.56494 139.552 9.63398 139.69 9.7622C139.828 9.90028 139.897 10.0581 139.897 10.2356C139.897 10.4427 139.828 10.6104 139.69 10.7485C139.552 10.8866 139.384 10.9556 139.177 10.9556C138.97 10.9556 138.802 10.8866 138.664 10.7485ZM138.674 12.5436H139.65V19.8027H138.674V12.5436Z" fill="black"/>
<path d="M148.261 13.2834C148.803 13.816 149.07 14.5853 149.07 15.6012V19.8127H148.093V15.6998C148.093 14.9403 147.906 14.3683 147.531 13.9738C147.156 13.5792 146.614 13.382 145.913 13.382C145.134 13.382 144.513 13.6187 144.059 14.0823C143.606 14.5458 143.379 15.1869 143.379 16.0056V19.8127H142.402V12.5535H143.339V13.8949C143.606 13.451 143.98 13.1058 144.454 12.8691C144.927 12.6225 145.479 12.5042 146.101 12.5042C146.998 12.4943 147.728 12.7508 148.261 13.2834Z" fill="black"/>
<path d="M158.489 12.5436V18.9249C158.489 20.1578 158.183 21.0751 157.581 21.6668C156.98 22.2586 156.072 22.5545 154.859 22.5545C154.189 22.5545 153.547 22.4559 152.946 22.2586C152.344 22.0614 151.851 21.7852 151.476 21.44L151.969 20.6904C152.315 21.006 152.749 21.2427 153.242 21.4203C153.745 21.5978 154.267 21.6866 154.82 21.6866C155.737 21.6866 156.418 21.4696 156.852 21.0455C157.285 20.6214 157.502 19.9507 157.502 19.0531V18.126C157.197 18.5896 156.802 18.9348 156.309 19.1715C155.816 19.4082 155.273 19.5266 154.672 19.5266C153.991 19.5266 153.37 19.3786 152.818 19.0729C152.265 18.7671 151.821 18.3529 151.506 17.8203C151.19 17.2778 151.032 16.6762 151.032 15.9956C151.032 15.3151 151.19 14.7036 151.506 14.171C151.821 13.6383 152.255 13.2241 152.808 12.9282C153.36 12.6323 153.981 12.4844 154.672 12.4844C155.283 12.4844 155.845 12.6126 156.339 12.8592C156.832 13.1057 157.236 13.4707 157.542 13.9342V12.5436H158.489ZM156.201 18.3233C156.625 18.0964 156.95 17.7808 157.187 17.3764C157.424 16.972 157.542 16.5085 157.542 15.9956C157.542 15.4827 157.424 15.0192 157.187 14.6246C156.95 14.2203 156.625 13.9145 156.21 13.6877C155.796 13.4608 155.313 13.3523 154.78 13.3523C154.258 13.3523 153.784 13.4608 153.36 13.6877C152.946 13.9046 152.61 14.2203 152.384 14.6246C152.147 15.029 152.029 15.4926 152.029 16.0055C152.029 16.5183 152.147 16.9819 152.384 17.3863C152.62 17.7907 152.946 18.1063 153.36 18.3331C153.774 18.56 154.248 18.6685 154.78 18.6685C155.303 18.6586 155.776 18.5501 156.201 18.3233Z" fill="black"/>
<path d="M61.0534 61.4048V53.7048H64.3754C65.2334 53.7048 65.8971 53.8771 66.3664 54.2218C66.8431 54.5665 67.0814 55.0541 67.0814 55.6848C67.0814 56.1028 66.9824 56.4548 66.7844 56.7408C66.5938 57.0268 66.3298 57.2431 65.9924 57.3898C65.6624 57.5365 65.2994 57.6098 64.9034 57.6098L65.0904 57.3458C65.5818 57.3458 66.0034 57.4228 66.3554 57.5768C66.7148 57.7235 66.9934 57.9471 67.1914 58.2478C67.3894 58.5411 67.4884 58.9078 67.4884 59.3478C67.4884 60.0005 67.2464 60.5065 66.7624 60.8658C66.2858 61.2251 65.5634 61.4048 64.5954 61.4048H61.0534ZM61.8674 60.7338H64.5844C65.2591 60.7338 65.7761 60.6201 66.1354 60.3928C66.4948 60.1581 66.6744 59.7878 66.6744 59.2818C66.6744 58.7831 66.4948 58.4201 66.1354 58.1928C65.7761 57.9581 65.2591 57.8408 64.5844 57.8408H61.7794V57.1698H64.3204C64.9364 57.1698 65.4131 57.0525 65.7504 56.8178C66.0951 56.5831 66.2674 56.2348 66.2674 55.7728C66.2674 55.3035 66.0951 54.9551 65.7504 54.7278C65.4131 54.4931 64.9364 54.3758 64.3204 54.3758H61.8674V60.7338ZM72.8004 61.4048V60.1288L72.7674 59.9198V57.7858C72.7674 57.2945 72.6281 56.9168 72.3494 56.6528C72.0781 56.3888 71.6711 56.2568 71.1284 56.2568C70.7544 56.2568 70.3987 56.3191 70.0614 56.4438C69.7241 56.5685 69.4381 56.7335 69.2034 56.9388L68.8514 56.3558C69.1447 56.1065 69.4967 55.9158 69.9074 55.7838C70.3181 55.6445 70.7507 55.5748 71.2054 55.5748C71.9534 55.5748 72.5291 55.7618 72.9324 56.1358C73.3431 56.5025 73.5484 57.0635 73.5484 57.8188V61.4048H72.8004ZM70.8094 61.4598C70.3767 61.4598 69.9991 61.3901 69.6764 61.2508C69.3611 61.1041 69.1191 60.9061 68.9504 60.6568C68.7817 60.4001 68.6974 60.1068 68.6974 59.7768C68.6974 59.4761 68.7671 59.2048 68.9064 58.9628C69.0531 58.7135 69.2877 58.5155 69.6104 58.3688C69.9404 58.2148 70.3804 58.1378 70.9304 58.1378H72.9214V58.7208H70.9524C70.3951 58.7208 70.0064 58.8198 69.7864 59.0178C69.5737 59.2158 69.4674 59.4615 69.4674 59.7548C69.4674 60.0848 69.5957 60.3488 69.8524 60.5468C70.1091 60.7448 70.4684 60.8438 70.9304 60.8438C71.3704 60.8438 71.7481 60.7448 72.0634 60.5468C72.3861 60.3415 72.6207 60.0481 72.7674 59.6668L72.9434 60.2058C72.7967 60.5871 72.5401 60.8915 72.1734 61.1188C71.8141 61.3461 71.3594 61.4598 70.8094 61.4598ZM77.2207 61.4598C76.744 61.4598 76.293 61.3938 75.8677 61.2618C75.4424 61.1225 75.1087 60.9501 74.8667 60.7448L75.2187 60.1288C75.4534 60.3048 75.754 60.4588 76.1207 60.5908C76.4874 60.7155 76.8724 60.7778 77.2757 60.7778C77.8257 60.7778 78.2217 60.6935 78.4637 60.5248C78.7057 60.3488 78.8267 60.1178 78.8267 59.8318C78.8267 59.6191 78.757 59.4541 78.6177 59.3368C78.4857 59.2121 78.3097 59.1205 78.0897 59.0618C77.8697 58.9958 77.624 58.9408 77.3527 58.8968C77.0814 58.8528 76.81 58.8015 76.5387 58.7428C76.2747 58.6841 76.0327 58.5998 75.8127 58.4898C75.5927 58.3725 75.413 58.2148 75.2737 58.0168C75.1417 57.8188 75.0757 57.5548 75.0757 57.2248C75.0757 56.9095 75.1637 56.6271 75.3397 56.3778C75.5157 56.1285 75.7724 55.9341 76.1097 55.7948C76.4544 55.6481 76.8724 55.5748 77.3637 55.5748C77.7377 55.5748 78.1117 55.6261 78.4857 55.7288C78.8597 55.8241 79.1677 55.9525 79.4097 56.1138L79.0687 56.7408C78.812 56.5648 78.537 56.4401 78.2437 56.3668C77.9504 56.2861 77.657 56.2458 77.3637 56.2458C76.843 56.2458 76.458 56.3375 76.2087 56.5208C75.9667 56.6968 75.8457 56.9241 75.8457 57.2028C75.8457 57.4228 75.9117 57.5951 76.0437 57.7198C76.183 57.8445 76.3627 57.9435 76.5827 58.0168C76.81 58.0828 77.0557 58.1378 77.3197 58.1818C77.591 58.2258 77.8587 58.2808 78.1227 58.3468C78.394 58.4055 78.6397 58.4898 78.8597 58.5998C79.087 58.7025 79.2667 58.8528 79.3987 59.0508C79.538 59.2415 79.6077 59.4945 79.6077 59.8098C79.6077 60.1471 79.5124 60.4405 79.3217 60.6898C79.1384 60.9318 78.867 61.1225 78.5077 61.2618C78.1557 61.3938 77.7267 61.4598 77.2207 61.4598ZM83.4938 61.4598C82.8924 61.4598 82.3644 61.3351 81.9098 61.0858C81.4551 60.8291 81.0994 60.4808 80.8428 60.0408C80.5861 59.5935 80.4578 59.0838 80.4578 58.5118C80.4578 57.9398 80.5788 57.4338 80.8208 56.9938C81.0701 56.5538 81.4074 56.2091 81.8328 55.9598C82.2654 55.7031 82.7494 55.5748 83.2848 55.5748C83.8274 55.5748 84.3078 55.6995 84.7258 55.9488C85.1511 56.1908 85.4848 56.5355 85.7268 56.9828C85.9688 57.4228 86.0898 57.9325 86.0898 58.5118C86.0898 58.5485 86.0861 58.5888 86.0788 58.6328C86.0788 58.6695 86.0788 58.7098 86.0788 58.7538H81.0518V58.1708H85.6608L85.3528 58.4018C85.3528 57.9838 85.2611 57.6135 85.0778 57.2908C84.9018 56.9608 84.6598 56.7041 84.3518 56.5208C84.0438 56.3375 83.6881 56.2458 83.2848 56.2458C82.8888 56.2458 82.5331 56.3375 82.2178 56.5208C81.9024 56.7041 81.6568 56.9608 81.4808 57.2908C81.3048 57.6208 81.2168 57.9985 81.2168 58.4238V58.5448C81.2168 58.9848 81.3121 59.3735 81.5028 59.7108C81.7008 60.0408 81.9721 60.3011 82.3168 60.4918C82.6688 60.6751 83.0684 60.7668 83.5158 60.7668C83.8678 60.7668 84.1941 60.7045 84.4948 60.5798C84.8028 60.4551 85.0668 60.2645 85.2868 60.0078L85.7268 60.5138C85.4701 60.8218 85.1474 61.0565 84.7588 61.2178C84.3774 61.3791 83.9558 61.4598 83.4938 61.4598ZM89.9785 61.4598C89.4285 61.4598 88.9335 61.3351 88.4935 61.0858C88.0608 60.8365 87.7198 60.4918 87.4705 60.0518C87.2211 59.6045 87.0965 59.0911 87.0965 58.5118C87.0965 57.9251 87.2211 57.4118 87.4705 56.9718C87.7198 56.5318 88.0608 56.1908 88.4935 55.9488C88.9335 55.6995 89.4285 55.5748 89.9785 55.5748C90.4845 55.5748 90.9355 55.6885 91.3315 55.9158C91.7348 56.1431 92.0538 56.4768 92.2885 56.9168C92.5305 57.3495 92.6515 57.8811 92.6515 58.5118C92.6515 59.1351 92.5341 59.6668 92.2995 60.1068C92.0648 60.5468 91.7458 60.8841 91.3425 61.1188C90.9465 61.3461 90.4918 61.4598 89.9785 61.4598ZM90.0335 60.7668C90.4441 60.7668 90.8108 60.6751 91.1335 60.4918C91.4635 60.3011 91.7201 60.0371 91.9035 59.6998C92.0941 59.3551 92.1895 58.9591 92.1895 58.5118C92.1895 58.0571 92.0941 57.6611 91.9035 57.3238C91.7201 56.9865 91.4635 56.7261 91.1335 56.5428C90.8108 56.3521 90.4441 56.2568 90.0335 56.2568C89.6301 56.2568 89.2671 56.3521 88.9445 56.5428C88.6218 56.7261 88.3651 56.9865 88.1745 57.3238C87.9838 57.6611 87.8885 58.0571 87.8885 58.5118C87.8885 58.9591 87.9838 59.3551 88.1745 59.6998C88.3651 60.0371 88.6218 60.3011 88.9445 60.4918C89.2671 60.6751 89.6301 60.7668 90.0335 60.7668ZM92.2115 61.4048V59.6668L92.2885 58.5008L92.1785 57.3348V53.2428H92.9595V61.4048H92.2115ZM100.367 61.4598C99.8101 61.4598 99.3078 61.3351 98.8604 61.0858C98.4204 60.8291 98.0721 60.4808 97.8154 60.0408C97.5588 59.5935 97.4304 59.0838 97.4304 58.5118C97.4304 57.9325 97.5588 57.4228 97.8154 56.9828C98.0721 56.5428 98.4204 56.1981 98.8604 55.9488C99.3004 55.6995 99.8028 55.5748 100.367 55.5748C100.939 55.5748 101.445 55.6995 101.885 55.9488C102.333 56.1981 102.681 56.5428 102.93 56.9828C103.187 57.4228 103.315 57.9325 103.315 58.5118C103.315 59.0838 103.187 59.5935 102.93 60.0408C102.681 60.4808 102.333 60.8291 101.885 61.0858C101.438 61.3351 100.932 61.4598 100.367 61.4598ZM100.367 60.7668C100.785 60.7668 101.156 60.6751 101.478 60.4918C101.801 60.3011 102.054 60.0371 102.237 59.6998C102.428 59.3551 102.523 58.9591 102.523 58.5118C102.523 58.0571 102.428 57.6611 102.237 57.3238C102.054 56.9865 101.801 56.7261 101.478 56.5428C101.156 56.3521 100.789 56.2568 100.378 56.2568C99.9678 56.2568 99.6011 56.3521 99.2784 56.5428C98.9558 56.7261 98.6991 56.9865 98.5084 57.3238C98.3178 57.6611 98.2224 58.0571 98.2224 58.5118C98.2224 58.9591 98.3178 59.3551 98.5084 59.6998C98.6991 60.0371 98.9558 60.3011 99.2784 60.4918C99.6011 60.6751 99.9641 60.7668 100.367 60.7668ZM107.858 55.5748C108.327 55.5748 108.738 55.6665 109.09 55.8498C109.449 56.0258 109.728 56.2971 109.926 56.6638C110.131 57.0305 110.234 57.4925 110.234 58.0498V61.4048H109.453V58.1268C109.453 57.5181 109.299 57.0598 108.991 56.7518C108.69 56.4365 108.265 56.2788 107.715 56.2788C107.304 56.2788 106.945 56.3631 106.637 56.5318C106.336 56.6931 106.102 56.9315 105.933 57.2468C105.772 57.5548 105.691 57.9288 105.691 58.3688V61.4048H104.91V55.6298H105.658V57.2138L105.537 56.9168C105.72 56.4988 106.014 56.1725 106.417 55.9378C106.82 55.6958 107.301 55.5748 107.858 55.5748ZM117.752 61.5368C117.107 61.5368 116.542 61.4415 116.058 61.2508C115.574 61.0528 115.197 60.7778 114.925 60.4258C114.654 60.0665 114.518 59.6485 114.518 59.1718C114.518 58.6951 114.65 58.2918 114.914 57.9618C115.186 57.6245 115.563 57.3715 116.047 57.2028C116.531 57.0268 117.1 56.9388 117.752 56.9388C118.412 56.9388 118.984 57.0268 119.468 57.2028C119.96 57.3715 120.337 57.6245 120.601 57.9618C120.873 58.2918 121.008 58.6951 121.008 59.1718C121.008 59.6485 120.873 60.0665 120.601 60.4258C120.33 60.7778 119.949 61.0528 119.457 61.2508C118.973 61.4415 118.405 61.5368 117.752 61.5368ZM117.752 60.2278C118.2 60.2278 118.552 60.1288 118.808 59.9308C119.072 59.7328 119.204 59.4615 119.204 59.1168C119.204 58.7721 119.072 58.5045 118.808 58.3138C118.552 58.1158 118.2 58.0168 117.752 58.0168C117.312 58.0168 116.964 58.1158 116.707 58.3138C116.451 58.5045 116.322 58.7721 116.322 59.1168C116.322 59.4615 116.451 59.7328 116.707 59.9308C116.964 60.1288 117.312 60.2278 117.752 60.2278ZM117.752 57.8408C117.158 57.8408 116.638 57.7601 116.19 57.5988C115.75 57.4375 115.406 57.2028 115.156 56.8948C114.914 56.5795 114.793 56.2055 114.793 55.7728C114.793 55.3181 114.918 54.9295 115.167 54.6068C115.417 54.2768 115.765 54.0238 116.212 53.8478C116.66 53.6645 117.173 53.5728 117.752 53.5728C118.346 53.5728 118.863 53.6645 119.303 53.8478C119.751 54.0238 120.099 54.2768 120.348 54.6068C120.605 54.9295 120.733 55.3181 120.733 55.7728C120.733 56.2055 120.609 56.5795 120.359 56.8948C120.117 57.2028 119.773 57.4375 119.325 57.5988C118.878 57.7601 118.354 57.8408 117.752 57.8408ZM117.752 56.7958C118.126 56.7958 118.42 56.7115 118.632 56.5428C118.852 56.3741 118.962 56.1431 118.962 55.8498C118.962 55.5418 118.849 55.3035 118.621 55.1348C118.401 54.9661 118.112 54.8818 117.752 54.8818C117.4 54.8818 117.114 54.9661 116.894 55.1348C116.674 55.3035 116.564 55.5418 116.564 55.8498C116.564 56.1431 116.671 56.3741 116.883 56.5428C117.096 56.7115 117.386 56.7958 117.752 56.7958ZM125.124 61.5368C124.493 61.5368 123.929 61.3828 123.43 61.0748C122.931 60.7595 122.539 60.3048 122.253 59.7108C121.967 59.1168 121.824 58.3981 121.824 57.5548C121.824 56.7115 121.967 55.9928 122.253 55.3988C122.539 54.8048 122.931 54.3538 123.43 54.0458C123.929 53.7305 124.493 53.5728 125.124 53.5728C125.762 53.5728 126.327 53.7305 126.818 54.0458C127.317 54.3538 127.709 54.8048 127.995 55.3988C128.281 55.9928 128.424 56.7115 128.424 57.5548C128.424 58.3981 128.281 59.1168 127.995 59.7108C127.709 60.3048 127.317 60.7595 126.818 61.0748C126.327 61.3828 125.762 61.5368 125.124 61.5368ZM125.124 60.0298C125.425 60.0298 125.685 59.9455 125.905 59.7768C126.132 59.6081 126.308 59.3405 126.433 58.9738C126.565 58.6071 126.631 58.1341 126.631 57.5548C126.631 56.9755 126.565 56.5025 126.433 56.1358C126.308 55.7691 126.132 55.5015 125.905 55.3328C125.685 55.1641 125.425 55.0798 125.124 55.0798C124.831 55.0798 124.57 55.1641 124.343 55.3328C124.123 55.5015 123.947 55.7691 123.815 56.1358C123.69 56.5025 123.628 56.9755 123.628 57.5548C123.628 58.1341 123.69 58.6071 123.815 58.9738C123.947 59.3405 124.123 59.6081 124.343 59.7768C124.57 59.9455 124.831 60.0298 125.124 60.0298ZM132.59 61.5368C131.959 61.5368 131.395 61.3828 130.896 61.0748C130.397 60.7595 130.005 60.3048 129.719 59.7108C129.433 59.1168 129.29 58.3981 129.29 57.5548C129.29 56.7115 129.433 55.9928 129.719 55.3988C130.005 54.8048 130.397 54.3538 130.896 54.0458C131.395 53.7305 131.959 53.5728 132.59 53.5728C133.228 53.5728 133.793 53.7305 134.284 54.0458C134.783 54.3538 135.175 54.8048 135.461 55.3988C135.747 55.9928 135.89 56.7115 135.89 57.5548C135.89 58.3981 135.747 59.1168 135.461 59.7108C135.175 60.3048 134.783 60.7595 134.284 61.0748C133.793 61.3828 133.228 61.5368 132.59 61.5368ZM132.59 60.0298C132.891 60.0298 133.151 59.9455 133.371 59.7768C133.598 59.6081 133.774 59.3405 133.899 58.9738C134.031 58.6071 134.097 58.1341 134.097 57.5548C134.097 56.9755 134.031 56.5025 133.899 56.1358C133.774 55.7691 133.598 55.5015 133.371 55.3328C133.151 55.1641 132.891 55.0798 132.59 55.0798C132.297 55.0798 132.036 55.1641 131.809 55.3328C131.589 55.5015 131.413 55.7691 131.281 56.1358C131.156 56.5025 131.094 56.9755 131.094 57.5548C131.094 58.1341 131.156 58.6071 131.281 58.9738C131.413 59.3405 131.589 59.6081 131.809 59.7768C132.036 59.9455 132.297 60.0298 132.59 60.0298ZM138.944 60.0958V55.0138H140.363V60.0958H138.944ZM137.041 58.2258V56.8838H142.277V58.2258H137.041ZM146.972 61.4048V53.7048H150.305C150.995 53.7048 151.589 53.8185 152.087 54.0458C152.586 54.2658 152.971 54.5848 153.242 55.0028C153.514 55.4208 153.649 55.9195 153.649 56.4988C153.649 57.0708 153.514 57.5658 153.242 57.9838C152.971 58.3945 152.586 58.7098 152.087 58.9298C151.589 59.1498 150.995 59.2598 150.305 59.2598H147.962L148.754 58.4788V61.4048H146.972ZM151.867 61.4048L149.942 58.6108H151.845L153.792 61.4048H151.867ZM148.754 58.6768L147.962 57.8408H150.206C150.756 57.8408 151.167 57.7235 151.438 57.4888C151.71 57.2468 151.845 56.9168 151.845 56.4988C151.845 56.0735 151.71 55.7435 151.438 55.5088C151.167 55.2741 150.756 55.1568 150.206 55.1568H147.962L148.754 54.3098V58.6768ZM157.877 61.4928C157.202 61.4928 156.608 61.3608 156.095 61.0968C155.589 60.8328 155.197 60.4735 154.918 60.0188C154.639 59.5568 154.5 59.0325 154.5 58.4458C154.5 57.8518 154.636 57.3275 154.907 56.8728C155.186 56.4108 155.563 56.0515 156.04 55.7948C156.517 55.5308 157.056 55.3988 157.657 55.3988C158.236 55.3988 158.757 55.5235 159.219 55.7728C159.688 56.0148 160.059 56.3668 160.33 56.8288C160.601 57.2835 160.737 57.8298 160.737 58.4678C160.737 58.5338 160.733 58.6108 160.726 58.6988C160.719 58.7795 160.711 58.8565 160.704 58.9298H155.897V57.9288H159.802L159.142 58.2258C159.142 57.9178 159.08 57.6501 158.955 57.4228C158.83 57.1955 158.658 57.0195 158.438 56.8948C158.218 56.7628 157.961 56.6968 157.668 56.6968C157.375 56.6968 157.114 56.7628 156.887 56.8948C156.667 57.0195 156.495 57.1991 156.37 57.4338C156.245 57.6611 156.183 57.9325 156.183 58.2478V58.5118C156.183 58.8345 156.253 59.1205 156.392 59.3698C156.539 59.6118 156.74 59.7988 156.997 59.9308C157.261 60.0555 157.569 60.1178 157.921 60.1178C158.236 60.1178 158.511 60.0701 158.746 59.9748C158.988 59.8795 159.208 59.7365 159.406 59.5458L160.319 60.5358C160.048 60.8438 159.707 61.0821 159.296 61.2508C158.885 61.4121 158.412 61.4928 157.877 61.4928ZM163.378 61.4048L160.892 55.4868H162.663L164.731 60.5798H163.851L165.996 55.4868H167.646L165.149 61.4048H163.378ZM168.346 61.4048V55.4868H170.062V61.4048H168.346ZM169.204 54.6618C168.889 54.6618 168.632 54.5701 168.434 54.3868C168.236 54.2035 168.137 53.9761 168.137 53.7048C168.137 53.4335 168.236 53.2061 168.434 53.0228C168.632 52.8395 168.889 52.7478 169.204 52.7478C169.52 52.7478 169.776 52.8358 169.974 53.0118C170.172 53.1805 170.271 53.4005 170.271 53.6718C170.271 53.9578 170.172 54.1961 169.974 54.3868C169.784 54.5701 169.527 54.6618 169.204 54.6618ZM174.592 61.4928C173.917 61.4928 173.323 61.3608 172.81 61.0968C172.304 60.8328 171.912 60.4735 171.633 60.0188C171.354 59.5568 171.215 59.0325 171.215 58.4458C171.215 57.8518 171.351 57.3275 171.622 56.8728C171.901 56.4108 172.278 56.0515 172.755 55.7948C173.232 55.5308 173.771 55.3988 174.372 55.3988C174.951 55.3988 175.472 55.5235 175.934 55.7728C176.403 56.0148 176.774 56.3668 177.045 56.8288C177.316 57.2835 177.452 57.8298 177.452 58.4678C177.452 58.5338 177.448 58.6108 177.441 58.6988C177.434 58.7795 177.426 58.8565 177.419 58.9298H172.612V57.9288H176.517L175.857 58.2258C175.857 57.9178 175.795 57.6501 175.67 57.4228C175.545 57.1955 175.373 57.0195 175.153 56.8948C174.933 56.7628 174.676 56.6968 174.383 56.6968C174.09 56.6968 173.829 56.7628 173.602 56.8948C173.382 57.0195 173.21 57.1991 173.085 57.4338C172.96 57.6611 172.898 57.9325 172.898 58.2478V58.5118C172.898 58.8345 172.968 59.1205 173.107 59.3698C173.254 59.6118 173.455 59.7988 173.712 59.9308C173.976 60.0555 174.284 60.1178 174.636 60.1178C174.951 60.1178 175.226 60.0701 175.461 59.9748C175.703 59.8795 175.923 59.7365 176.121 59.5458L177.034 60.5358C176.763 60.8438 176.422 61.0821 176.011 61.2508C175.6 61.4121 175.127 61.4928 174.592 61.4928ZM179.84 61.4048L177.706 55.4868H179.323L181.094 60.5798H180.324L182.172 55.4868H183.624L185.417 60.5798H184.647L186.473 55.4868H187.991L185.846 61.4048H184.185L182.612 57.0378H183.118L181.49 61.4048H179.84ZM190.694 61.4928C190.188 61.4928 189.7 61.4341 189.231 61.3168C188.769 61.1921 188.402 61.0381 188.131 60.8548L188.703 59.6228C188.974 59.7915 189.293 59.9308 189.66 60.0408C190.034 60.1435 190.4 60.1948 190.76 60.1948C191.156 60.1948 191.434 60.1471 191.596 60.0518C191.764 59.9565 191.849 59.8245 191.849 59.6558C191.849 59.5165 191.783 59.4138 191.651 59.3478C191.526 59.2745 191.357 59.2195 191.145 59.1828C190.932 59.1461 190.697 59.1095 190.441 59.0728C190.191 59.0361 189.938 58.9885 189.682 58.9298C189.425 58.8638 189.19 58.7685 188.978 58.6438C188.765 58.5191 188.593 58.3505 188.461 58.1378C188.336 57.9251 188.274 57.6501 188.274 57.3128C188.274 56.9388 188.38 56.6088 188.593 56.3228C188.813 56.0368 189.128 55.8131 189.539 55.6518C189.949 55.4831 190.441 55.3988 191.013 55.3988C191.416 55.3988 191.827 55.4428 192.245 55.5308C192.663 55.6188 193.011 55.7471 193.29 55.9158L192.718 57.1368C192.432 56.9681 192.142 56.8545 191.849 56.7958C191.563 56.7298 191.284 56.6968 191.013 56.6968C190.631 56.6968 190.353 56.7481 190.177 56.8508C190.001 56.9535 189.913 57.0855 189.913 57.2468C189.913 57.3935 189.975 57.5035 190.1 57.5768C190.232 57.6501 190.404 57.7088 190.617 57.7528C190.829 57.7968 191.06 57.8371 191.31 57.8738C191.566 57.9031 191.823 57.9508 192.08 58.0168C192.336 58.0828 192.567 58.1781 192.773 58.3028C192.985 58.4201 193.158 58.5851 193.29 58.7978C193.422 59.0031 193.488 59.2745 193.488 59.6118C193.488 59.9785 193.378 60.3048 193.158 60.5908C192.938 60.8695 192.619 61.0895 192.201 61.2508C191.79 61.4121 191.288 61.4928 190.694 61.4928Z" fill="black"/>
<path d="M121.395 62.7798H193.752V63.3298H121.395V62.7798Z" fill="black"/>
</g>
<defs>
<clipPath id="clip0_7265_54">
<rect width="205.151" height="72" fill="white" transform="translate(0 0.57959)"/>
</clipPath>
</defs>
</svg>
