<svg xmlns="http://www.w3.org/2000/svg" width="25" height="25" viewBox="0 0 30 60"
    fill="none" class="group-hover:text-dark-blue mb-2">
    <path
        d="M29.85 30V58.48C29.85 59.48 29.85 59.48 28.85 59.48C22.8939 59.3163 17.1269 57.3534 12.3076 53.8496C7.48837 50.3458 3.84262 45.4653 1.85001 39.85C-0.381884 33.7271 -0.466511 27.0274 1.61001 20.85C3.61664 14.5675 7.70476 9.15669 13.2 5.51C16.7258 3.08502 20.7641 1.50733 25 0.900004C26.31 0.710004 27.64 0.660004 29 0.510004C29.72 0.430004 29.91 0.710004 29.91 1.42C29.91 9.27 29.91 17.12 29.91 24.97L29.85 30ZM23 29.93C23 25.41 23 20.93 23 16.36C23.0404 16.058 22.9813 15.7511 22.8315 15.4858C22.6817 15.2205 22.4495 15.0113 22.17 14.89C21.4438 14.5339 20.7423 14.1297 20.07 13.68C19.96 13.5751 19.8275 13.4966 19.6826 13.4505C19.5378 13.4045 19.3843 13.3921 19.2339 13.4142C19.0835 13.4364 18.9401 13.4926 18.8147 13.5785C18.6892 13.6644 18.585 13.7778 18.51 13.91C16.05 17 13.48 20.1 11 23.22C10.6929 23.6239 10.5183 24.1129 10.5 24.62C10.46 28.12 10.46 31.6133 10.5 35.1C10.5027 35.5401 10.6311 35.9704 10.87 36.34C13.29 39.74 15.75 43.11 18.19 46.49C18.56 47 18.91 47.01 19.42 46.65C20.32 46.02 21.26 45.43 22.22 44.88C22.5041 44.7473 22.7402 44.53 22.8959 44.2579C23.0517 43.9858 23.1195 43.6722 23.09 43.36C23 38.88 23 34.41 23 29.93ZM29 4.7H28.83C28.57 5.45 28.32 6.2 28.04 6.95C27.3384 8.72839 26.9624 10.6185 26.93 12.53C26.99 24.07 26.93 35.6 26.93 47.14C26.7514 49.5118 27.0646 51.8949 27.85 54.14C28.24 55.07 28.5 56.05 28.85 57.02H29.01L29 4.7ZM25.54 48H25.87C25.9358 47.67 25.9793 47.3359 26 47C26 42.8 26 38.5967 26 34.39C26 27.4633 26 20.56 26 13.68C25.9863 13.344 25.9462 13.0097 25.88 12.68H25.64C25.48 12.95 25.33 13.22 25.17 13.48C24.3425 14.7809 23.9213 16.2987 23.96 17.84C24 26.41 24 35 24 43.53C23.94 45.27 25.06 46.5 25.54 48ZM9.00001 43.69C9.08001 43.35 9.14001 43.16 9.16001 42.98C9.27001 41.46 9.31001 39.98 9.49001 38.42C9.618 37.7391 9.57638 37.0372 9.36885 36.3762C9.16131 35.7152 8.79422 35.1155 8.30001 34.63C7.20001 33.52 6.30001 32.24 5.25001 31C5.15001 31.12 5.09001 31.17 5.07001 31.23C4.25001 33.59 3.43001 35.95 2.65001 38.32C2.6242 38.4465 2.62791 38.5773 2.66086 38.7022C2.69382 38.8271 2.75512 38.9427 2.84001 39.04C4.86001 40.57 6.88001 42.08 9.00001 43.69ZM5.24001 28.44C5.48385 28.2711 5.71451 28.0839 5.93001 27.88C6.43829 27.1772 6.99285 26.509 7.59001 25.88C8.38375 25.2256 8.98191 24.3652 9.31884 23.3932C9.65576 22.4213 9.71845 21.3753 9.50001 20.37C9.32001 19.26 9.37001 18.11 9.29001 16.99C9.29001 16.62 9.22001 16.12 8.65001 16.51C6.86001 17.71 5.10001 18.95 3.32001 20.16C3.14619 20.2521 3.01237 20.4049 2.94412 20.5894C2.87587 20.7738 2.87797 20.977 2.95001 21.16C3.11001 21.62 3.24001 22.09 3.38001 22.56L5.24001 28.44ZM2.00001 37.31C2.15001 37 2.23001 36.88 2.28001 36.75C2.96001 34.75 3.66001 32.75 4.28001 30.75C4.51366 30.2403 4.61018 29.6784 4.56001 29.12C3.97001 27 3.25001 24.91 2.56001 22.81C2.56001 22.68 2.36001 22.49 2.30001 22.5C2.15112 22.5536 2.02208 22.6513 1.93001 22.78C1.86586 22.9127 1.82204 23.0543 1.80001 23.2C0.86461 27.0866 0.745435 31.125 1.45001 35.06C1.57001 35.77 1.75001 36.44 2.00001 37.31ZM10.5 22.1L10.72 22.18L17.94 13.38L17.77 13.16L15.42 13.9C13.97 14.35 12.51 14.8 11.07 15.27C10.58 15.43 10.21 15.66 10.24 16.27C10.33 18.01 10.35 19.76 10.41 21.51C10.4067 21.7074 10.4201 21.9048 10.45 22.1H10.5ZM17.17 46.92L17.28 46.69L10.58 37.48C10.5039 37.6429 10.4469 37.814 10.41 37.99C10.29 39.99 10.1767 41.99 10.07 43.99C10.07 44.5 10.35 44.7 10.8 44.85C12.3 45.32 13.8 45.85 15.27 46.33C15.85 46.57 16.48 46.73 17.12 46.92H17.17ZM21.17 2.92L20.94 2.71C18.5869 3.38533 16.3678 4.46107 14.38 5.89L18.8 11.21L21.17 2.92ZM13.9 6.53C13.7715 6.73666 13.6547 6.95033 13.55 7.17C12.64 9.31 11.73 11.45 10.84 13.6C10.8 13.8283 10.8 14.0617 10.84 14.29C11.0989 14.2941 11.3574 14.2673 11.61 14.21C13.55 13.6 15.48 12.96 17.42 12.35C18.17 12.11 18.25 11.93 17.72 11.29C16.63 9.97 15.53 8.65 14.44 7.29C14.2455 7.04729 14.0652 6.79353 13.9 6.53ZM28.46 1.53C28.14 1.44 28.05 1.38 27.96 1.4C26.22 1.66 24.47 1.9 22.73 2.22C22.579 2.28154 22.4438 2.37648 22.3347 2.49772C22.2256 2.61895 22.1453 2.76333 22.1 2.92C21.43 5.1 20.81 7.29 20.19 9.48C20.1523 9.78886 20.1523 10.1011 20.19 10.41L28.46 1.53ZM10.67 45.77L10.48 45.95L13.73 53.65L17.93 48.19L10.67 45.77ZM19.81 50C19.81 50.33 19.71 50.48 19.75 50.6C20.31 52.66 20.89 54.71 21.45 56.77C21.5155 57.033 21.6598 57.2697 21.8635 57.4484C22.0673 57.6271 22.3207 57.7393 22.59 57.77C23.19 57.88 23.78 58.06 24.39 58.15C25.39 58.31 26.49 58.42 27.54 58.55L27.65 58.33L19.81 50ZM18.35 49.08C17.06 50.77 15.9 52.25 14.77 53.76C14.46 54.16 14.77 54.46 15.09 54.64C16.59 55.36 18.09 56.08 19.6 56.78C19.8647 56.8782 20.1398 56.9454 20.42 56.98C20.4338 56.6791 20.4171 56.3775 20.37 56.08C20.02 54.75 19.65 53.43 19.27 52.08C19 51.18 18.7 50.24 18.35 49.1V49.08ZM9.35001 34.51C9.71001 33.57 9.64001 25.82 9.29001 25.28C9.10001 25.49 8.92001 25.67 8.75001 25.87C7.93001 26.87 7.10001 27.87 6.29001 28.81C5.48001 29.75 5.44001 29.81 6.29001 30.81L9.35001 34.51ZM28.23 3.51L28 3.34L20.9 10.93L21.04 11.13C21.2521 11.132 21.4636 11.1085 21.67 11.06C22.95 10.59 24.23 10.06 25.52 9.65C25.7665 9.56091 25.987 9.4119 26.1615 9.21638C26.3361 9.02086 26.4593 8.78499 26.52 8.53C26.92 7.34 27.33 6.16 27.72 4.98C27.93 4.49 28.07 4 28.22 3.48L28.23 3.51ZM20.63 49.31L20.54 49.53C22.89 52.02 25.23 54.53 27.72 57.12C27.7437 56.9073 27.7437 56.6927 27.72 56.48C27.32 55.17 26.92 53.85 26.49 52.55C26.27 51.89 26.11 51.22 25.28 50.94C23.98 50.51 22.72 49.94 21.44 49.47C21.1743 49.397 20.9035 49.3435 20.63 49.31ZM6.82001 47.13C7.41001 46.43 7.88001 45.83 8.40001 45.28C8.92001 44.73 8.74001 44.54 8.28001 44.21C6.91001 43.21 5.56001 42.21 4.20001 41.21C3.88001 40.97 3.55001 40.76 3.20001 40.53L3.04001 40.68C3.95859 43.0127 5.23378 45.1886 6.82001 47.13ZM12.39 7.5L12.17 7.41C10.4801 8.60682 8.96254 10.0301 7.66001 11.64C7.59058 11.706 7.53661 11.7865 7.50193 11.8758C7.46726 11.9651 7.45275 12.0609 7.45944 12.1565C7.46613 12.252 7.49385 12.3449 7.54062 12.4285C7.5874 12.5121 7.65207 12.5843 7.73001 12.64C8.13001 13.04 8.52001 13.44 8.93001 13.83C9.34001 14.22 9.64001 14.24 9.93001 13.64C10.59 12.06 11.26 10.49 11.93 8.91C12.07 8.43 12.22 8 12.39 7.5ZM3.29001 18.84C3.44287 18.8569 3.59714 18.8569 3.75001 18.84C5.38001 17.74 7.00001 16.66 8.60001 15.53C8.66128 15.4181 8.69339 15.2926 8.69339 15.165C8.69339 15.0374 8.66128 14.9119 8.60001 14.8C8.17001 14.27 7.60001 13.8 7.17001 13.33C6.74001 12.86 6.55001 13.09 6.33001 13.44C5.65001 14.51 4.96001 15.58 4.33001 16.68C4.00001 17.3 3.67001 18 3.29001 18.84ZM23.29 45.2C22.14 45.94 21.14 46.57 20.16 47.2C20 47.3 19.77 47.54 19.8 47.64C19.8967 47.8294 20.0608 47.9757 20.26 48.05C20.88 48.33 21.53 48.57 22.17 48.81L25.21 50L25.42 49.81L23.29 45.2ZM12 52.52L12.2 52.29L9.35001 45.54C8.77001 46.22 8.35001 46.78 7.83001 47.31C7.73074 47.3835 7.65009 47.4792 7.59451 47.5895C7.53893 47.6997 7.50998 47.8215 7.50998 47.945C7.50998 48.0685 7.53893 48.1903 7.59451 48.3005C7.65009 48.4108 7.73074 48.5065 7.83001 48.58C8.52001 49.27 9.15001 50.03 9.83001 50.7C10.51 51.37 11.28 51.91 12 52.52ZM20.36 12.45L20.28 12.68C21.2217 13.3881 22.25 13.9728 23.34 14.42C23.44 14.42 23.72 14.25 23.81 14.1C24.23 13.35 24.62 12.59 25.01 11.83C25.17 11.51 25.3 11.17 25.44 10.83L25.26 10.67L20.36 12.45Z"
        fill="currentColor"></path>
</svg>