<svg xmlns="http://www.w3.org/2000/svg" width="25" height="25" viewBox="0 0 62 60"
    fill="none" class="group-hover:text-dark-blue mb-2">
    <g clip-path="url(#clip0_5606_98)">
        <path fill-rule="evenodd" clip-rule="evenodd"
            d="M13.0033 0.0844318C12.895 0.156386 12.5151 0.216124 12.1591 0.217306C11.8032 0.218356 11.3305 0.274028 11.1087 0.341124C10.8869 0.408089 10.2623 0.596251 9.72071 0.759462C7.55932 1.41046 5.22447 2.88539 4.34067 4.15838C4.16524 4.41114 3.98197 4.64749 3.93352 4.68359C3.7254 4.83879 2.79418 6.41483 2.4159 7.25228C1.63976 8.97052 1.54168 9.21461 1.42955 9.70595C1.36784 9.97683 1.25375 10.4494 1.17602 10.7564C1.01622 11.3874 0.845381 12.4032 0.640416 13.9405C0.457642 15.3118 0.4516 22.2441 0.632274 23.263C0.709217 23.6963 0.835677 24.3019 0.913409 24.6089C1.16696 25.6103 1.31531 26.2088 1.43401 26.7097C2.00399 29.1155 3.99104 33.1926 6.21728 36.5247C6.65151 37.1746 7.04423 37.7359 7.08993 37.7721C7.13562 37.8082 7.31497 38.0445 7.48855 38.2973C7.66213 38.55 7.83939 38.7864 7.88246 38.8225C7.92553 38.8586 8.10278 39.0949 8.2765 39.3477C8.45008 39.6005 8.68643 39.8959 8.80158 40.0042C8.91674 40.1125 9.15361 40.408 9.32798 40.6607C9.50222 40.9135 9.79713 41.268 9.98331 41.4486C10.1695 41.6291 10.4667 41.9836 10.6438 42.2364C10.8209 42.4891 11.4391 43.1811 12.0175 43.7742C12.5957 44.3673 13.3348 45.1554 13.6598 45.5255C14.4591 46.436 15.7429 47.7166 16.4176 48.2763C16.7222 48.5291 17.5115 49.2681 18.1715 49.9187C18.8315 50.5692 19.5783 51.2471 19.8311 51.425C20.0838 51.603 20.5565 52.0178 20.8815 52.3467C21.2065 52.6757 21.6792 53.089 21.9319 53.2652C22.1847 53.4414 22.5983 53.7963 22.851 54.0537C23.1038 54.311 23.5174 54.6653 23.7702 54.8407C24.0229 55.0161 24.3775 55.3118 24.558 55.498C24.7385 55.6842 25.0931 55.9791 25.3458 56.1534C25.5986 56.3277 25.894 56.5646 26.0023 56.6798C26.1107 56.7949 26.4061 57.0313 26.6588 57.205C26.9116 57.3787 27.207 57.615 27.3154 57.7302C27.4237 57.8453 27.7191 58.0817 27.9719 58.2553C28.2246 58.429 28.461 58.6062 28.4971 58.6493C28.5332 58.6924 28.7696 58.8696 29.0223 59.0433C29.2751 59.2169 29.5705 59.4505 29.6788 59.5624C30.2514 60.1539 30.6442 60.1469 31.2748 59.5343C31.372 59.44 31.6582 59.2198 31.911 59.0452C32.1637 58.8704 32.4592 58.6332 32.5675 58.518C32.6758 58.4029 32.9713 58.1665 33.224 57.9928C33.4768 57.8191 33.7722 57.5827 33.8805 57.4676C33.9889 57.3524 34.2843 57.1161 34.5371 56.9424C34.7898 56.7686 35.0852 56.5323 35.1936 56.4171C35.3019 56.302 35.5973 56.0651 35.8501 55.8907C36.1028 55.7165 36.4574 55.4216 36.6379 55.2354C36.8185 55.0492 37.173 54.7538 37.4257 54.5789C37.6785 54.404 38.033 54.1086 38.2136 53.9224C38.3941 53.7362 38.7486 53.44 39.0014 53.264C39.2541 53.0879 39.7859 52.6162 40.1831 52.2154C40.5803 51.8147 41.1121 51.3411 41.3648 51.1628C41.6176 50.9845 42.4242 50.2473 43.1572 49.5246C43.8903 48.8019 44.6289 48.0848 44.7985 47.9308C45.1524 47.6095 45.5008 47.2624 46.2698 46.4643C46.569 46.1537 47.4052 45.2969 48.1279 44.5604C48.8506 43.8238 49.5873 43.0144 49.765 42.7616C49.9426 42.5088 50.2987 42.0952 50.5561 41.8425C50.8134 41.5897 51.1672 41.1761 51.3419 40.9233C51.5167 40.6706 51.754 40.3751 51.8691 40.2668C51.9843 40.1585 52.2206 39.8631 52.3942 39.6103C52.5679 39.3575 52.7468 39.1212 52.7918 39.0851C52.8368 39.049 53.1307 38.6354 53.4447 38.166C53.7588 37.6966 54.0543 37.283 54.1013 37.2468C54.3907 37.0243 57.1191 32.5941 57.1241 32.3385C57.1257 32.2577 57.2426 32.0439 57.3839 31.8634C57.5251 31.6829 57.642 31.4598 57.6436 31.3677C57.6451 31.2757 57.8558 30.7847 58.1115 30.2767C59.1125 28.2893 60.0877 24.8767 60.2285 22.8691C60.264 22.3636 60.3475 21.8939 60.4141 21.8253C60.5733 21.6611 60.5722 15.8033 60.4128 15.6409C60.3455 15.5722 60.2616 14.9843 60.2263 14.3344C60.1596 13.1068 59.9995 11.9758 59.7573 11.019C59.6796 10.712 59.5648 10.2394 59.5022 9.96856C59.4394 9.69781 59.2867 9.21028 59.1625 8.8853C59.0384 8.56033 58.8521 8.06847 58.7485 7.79234C57.7927 5.24439 55.5129 2.70892 53.0663 1.47336C48.9258 -0.61791 41.8707 -0.440648 37.2742 1.8699C36.3988 2.3099 35.2277 3.03377 35.0623 3.2369C35.0262 3.28128 34.7898 3.46181 34.5371 3.63815C33.948 4.04913 32.5942 5.40182 32.1766 5.99663C31.9991 6.24939 31.7808 6.53155 31.6914 6.62386C31.602 6.71604 31.3111 7.14435 31.0448 7.57581C30.4282 8.57464 30.5041 8.60287 29.4044 6.9638C28.4598 5.55597 27.505 4.49058 26.6588 3.9005C26.4061 3.72416 26.1107 3.48204 26.0023 3.36229C25.7027 3.03101 23.62 1.81526 22.8293 1.50998C20.4918 0.607536 20.1092 0.502499 18.0585 0.200108C16.7402 0.00577857 13.2423 -0.074314 13.0033 0.0844318ZM17.6646 0.975586C19.2078 1.14628 19.3079 1.22598 19.6868 2.58274C19.7774 2.90771 20.0196 3.73493 20.225 4.42099C21.0895 7.30914 21.2279 7.07751 18.9776 6.50713C18.6887 6.43399 18.1865 6.32239 17.8615 6.25923C17.3026 6.15065 16.7219 6.01435 15.5965 5.72798C15.3258 5.65904 14.8678 5.54363 14.5789 5.47141C14.2901 5.3992 13.8174 5.28102 13.5285 5.20881C13.2396 5.13659 12.7522 5.01474 12.4453 4.93793C12.1383 4.86125 11.6213 4.74675 11.2963 4.68359C10.9714 4.62044 10.4544 4.50594 10.1474 4.42926C9.84046 4.35244 9.35306 4.2306 9.06419 4.15838C8.77532 4.08616 8.28792 3.96365 7.98094 3.88632C7.67395 3.80885 7.2308 3.71379 6.99616 3.67492C5.98499 3.5079 7.68865 2.25803 9.81524 1.60676C10.4493 1.41257 11.1496 1.19827 11.3713 1.13039C11.5931 1.06263 12.1249 1.00618 12.5531 1.00513C12.9812 1.00394 13.4202 0.943815 13.5285 0.871467C13.7425 0.728477 15.9278 0.78349 17.6646 0.975586ZM48.6522 0.9857C50.3582 1.1925 51.1242 1.4169 52.515 2.11766C54.4963 3.11583 54.8367 3.47902 53.9592 3.65825C53.5388 3.74412 53.2326 3.81751 51.8363 4.16665C51.5293 4.24333 51.0124 4.35783 50.6874 4.42099C50.1166 4.53194 49.4162 4.69672 48.4552 4.9462C48.2025 5.01185 47.7446 5.12726 47.4376 5.20276C47.1306 5.27826 46.6285 5.40287 46.3215 5.47968C46.0145 5.55637 45.4976 5.66574 45.1726 5.72259C44.8477 5.77958 44.3159 5.92271 43.9909 6.04075C43.6659 6.1588 43.2565 6.25621 43.0811 6.25726C42.9057 6.25831 42.566 6.31832 42.3261 6.39054C39.7883 7.15472 39.7985 7.16142 40.4356 5.16442C40.9607 3.51893 41.3518 2.17465 41.3957 1.86517C41.4653 1.37501 42.2322 1.00736 43.1897 1.00513C43.6664 1.00394 44.1452 0.94394 44.2535 0.871723C44.4771 0.722563 47.026 0.788614 48.6522 0.9857ZM21.6848 1.92754C22.8157 2.2944 25.482 3.79625 25.871 4.28548C25.9071 4.33078 26.1435 4.51159 26.3962 4.68701C26.9765 5.08985 27.3029 5.41627 27.7059 5.99663C27.8814 6.24939 28.1222 6.54482 28.2411 6.65314C28.5429 6.92849 29.5475 8.60917 29.5475 8.83908C29.5475 9.03511 29.0814 9.00519 28.1688 8.75046C27.9522 8.68993 27.509 8.57346 27.1841 8.49139C26.8591 8.40933 26.4117 8.28722 26.19 8.21986C25.9682 8.15263 25.6474 8.09748 25.4771 8.09748C25.3068 8.09748 24.986 8.04233 24.7643 7.97511C24.5425 7.90775 24.0951 7.78472 23.7702 7.7016C21.9665 7.24059 21.6693 7.08723 21.6693 6.61716C21.6693 6.36296 21.5588 5.981 20.761 3.48059C20.2414 1.85164 20.2372 1.40245 20.7434 1.60611C20.8554 1.65127 21.2791 1.79584 21.6848 1.92754ZM40.5207 1.67871C40.608 1.81986 40.4776 2.30122 39.6478 4.90182C39.4367 5.56359 39.264 6.20173 39.264 6.3199C39.264 6.74244 38.8803 7.2771 38.514 7.36494C38.3127 7.41326 37.9116 7.51293 37.6227 7.58633C37.3338 7.65986 36.8316 7.77172 36.5066 7.83488C36.1816 7.89803 35.6794 8.00977 35.3905 8.0833C35.1017 8.1567 34.6143 8.27855 34.3073 8.35405C34.0003 8.42955 33.4982 8.55324 33.1912 8.62874C32.8842 8.70424 32.4263 8.81493 32.1736 8.8748C31.9208 8.93468 31.6107 9.02699 31.4842 9.0799C31.0322 9.26898 31.6711 7.84262 32.438 6.95015C32.5474 6.82292 32.783 6.51199 32.9615 6.25923C33.3809 5.66535 34.2168 4.83158 34.7997 4.42559C35.0524 4.24951 35.2888 4.06569 35.3249 4.01724C35.4843 3.80334 37.0679 2.87239 37.9592 2.46863C38.4962 2.22533 39.1721 1.91874 39.4609 1.78743C40.0756 1.50789 40.3949 1.47519 40.5207 1.67871ZM7.75116 4.68005C8.07613 4.7633 8.60791 4.88304 8.93289 4.9462C9.49185 5.05479 10.0725 5.19108 11.1979 5.47746C11.4687 5.54639 11.9119 5.65904 12.1826 5.72798C12.4535 5.79691 12.9409 5.91785 13.2659 5.99663C13.5909 6.07541 14.0784 6.19634 14.3492 6.26528C15.5965 6.58264 15.9981 6.67744 16.5485 6.78445C16.8735 6.84761 17.3757 6.95934 17.6646 7.03287C18.2195 7.17389 19.0673 7.38097 19.8311 7.56177C20.5488 7.73181 20.7708 7.85456 20.699 8.04167C20.6073 8.28051 17.9848 12.1938 17.7767 12.4024C17.684 12.4954 17.5079 12.7409 17.3855 12.9481C17.1495 13.3479 16.3371 13.8748 15.957 13.8748C15.8318 13.8748 15.3672 13.9889 14.9244 14.1283C14.4817 14.2677 13.8535 14.4496 13.5285 14.5325C12.7063 14.7424 11.2505 15.16 10.2944 15.4603C9.04776 15.8517 8.53898 15.6346 8.53898 14.7114C8.53898 14.5865 8.48384 14.3029 8.41662 14.0811C8.29477 13.6796 8.10095 12.9411 7.87156 12.0038C7.80538 11.733 7.68721 11.2603 7.60895 10.9533C7.42802 10.2428 7.23723 9.47932 7.08374 8.85248C7.01756 8.58173 6.90911 8.13858 6.84293 7.8677C6.66094 7.12413 6.43341 6.2402 6.31038 5.79967C6.24998 5.58302 6.16147 5.17796 6.11381 4.89946L6.02716 4.39315L6.59372 4.46104C6.90531 4.49833 7.42618 4.59694 7.75116 4.68005ZM54.6719 4.9462C54.6609 5.19896 54.5869 5.65681 54.5078 5.9638C54.4286 6.27079 54.3048 6.75819 54.2326 7.04706C54.1604 7.33592 54.0422 7.80861 53.97 8.09748C53.8977 8.38635 53.7796 8.85904 53.7074 9.14791C53.6351 9.43678 53.5133 9.92418 53.4365 10.2312C53.3598 10.5381 53.2494 11.0551 53.1911 11.3801C53.1329 11.705 52.9843 12.2959 52.8608 12.6931C52.7374 13.0903 52.5864 13.6221 52.5252 13.8748C52.0648 15.7757 51.9875 15.8638 51.0267 15.5853C50.4987 15.4322 49.5764 15.1691 47.8315 14.6736C47.344 14.5352 46.5316 14.3018 46.0261 14.155C45.5206 14.0082 44.8257 13.813 44.482 13.7212C43.8839 13.5613 43.8163 13.4925 42.9063 12.1158C42.3835 11.3247 41.8925 10.6139 41.8155 10.5363C41.5402 10.2594 40.1831 8.1626 40.1831 8.01423C40.1831 7.83802 40.4382 7.71775 41.1679 7.54981C41.4567 7.48337 41.9147 7.37255 42.1855 7.30362C42.4564 7.23468 42.9142 7.11927 43.2031 7.04706C43.492 6.97484 43.9793 6.85299 44.2863 6.77618C44.5933 6.6995 45.1103 6.585 45.4352 6.52184C45.9857 6.41483 46.3872 6.32003 47.6346 6.00267C47.9055 5.93374 48.3928 5.8128 48.7178 5.73402C49.3692 5.57606 50.0823 5.39841 50.8843 5.19462C51.1732 5.12109 51.6754 5.00936 52.0004 4.9462C53.1962 4.71379 53.7198 4.58353 53.8063 4.49714C54.1098 4.19356 54.6917 4.49544 54.6719 4.9462ZM56.1454 5.04468C56.2754 5.24334 56.4625 5.48704 56.5615 5.5863C57.1055 6.13226 58.5338 9.49613 58.7518 10.7447C58.8281 11.1813 58.7962 11.2531 58.4053 11.5262C58.1684 11.6917 57.9452 11.8622 57.9091 11.9053C57.873 11.9483 57.6366 12.1256 57.3839 12.2992C57.1311 12.4728 56.8947 12.6521 56.8586 12.6978C56.8225 12.7435 56.2317 13.155 55.5456 13.6122C54.8595 14.0694 54.2687 14.4815 54.2326 14.5279C54.0876 14.7141 53.5065 15.0566 53.3355 15.0566C53.1417 15.0566 53.1655 14.7056 53.4293 13.6779C53.5035 13.389 53.6232 12.9163 53.6954 12.6274C53.7676 12.3386 53.8858 11.8659 53.958 11.577C54.0302 11.2882 54.1538 10.7859 54.2326 10.4609C54.3114 10.136 54.4323 9.64857 54.5012 9.37769C54.5701 9.10694 54.6828 8.66379 54.7518 8.39291C54.8207 8.12217 54.9416 7.63464 55.0204 7.30966C55.0992 6.98469 55.2175 6.51199 55.2831 6.25923C55.3488 6.00648 55.4395 5.62241 55.4847 5.40576C55.6649 4.54218 55.7768 4.48099 56.1454 5.04468ZM5.23014 4.97245C5.3168 5.05911 5.38769 5.24702 5.38769 5.38988C5.38769 5.53274 5.44283 5.83118 5.51005 6.05295C5.65304 6.52394 5.9309 7.60024 6.31772 9.18074C6.38389 9.45161 6.49263 9.89476 6.5592 10.1655C6.62577 10.4364 6.78122 10.9829 6.90464 11.3801C7.02807 11.7773 7.17672 12.3681 7.23489 12.6931C7.29319 13.0181 7.40098 13.5203 7.47451 13.8092C7.78438 15.0269 7.78727 15.0566 7.60055 15.0566C7.43222 15.0566 6.05984 14.2023 5.91291 14.006C5.8768 13.9578 5.28593 13.5429 4.59987 13.0841C3.91381 12.6254 3.27648 12.1745 3.18365 12.0823C3.09069 11.99 2.84422 11.8138 2.63584 11.6907C1.92325 11.2698 1.9025 11.0539 2.4243 9.49415C2.89121 8.09866 3.76937 6.19397 4.10524 5.84838C4.20149 5.74938 4.41527 5.47627 4.58032 5.24163C4.9095 4.77341 4.9955 4.73782 5.23014 4.97245ZM23.048 8.37415C23.3369 8.44768 23.8391 8.55441 24.1641 8.61127C24.4891 8.66825 25.0208 8.81139 25.3458 8.92943C25.6708 9.04747 26.0802 9.14489 26.2556 9.14594C26.431 9.14699 26.756 9.20306 26.9778 9.27029C27.1995 9.33764 27.6321 9.46528 27.9391 9.55391C28.7421 9.78592 28.6813 9.832 26.7573 10.4493C25.8005 10.7562 23.5995 11.4716 21.8663 12.0389C20.1331 12.6063 18.6656 13.0219 18.6054 12.9625C18.4898 12.8487 18.7835 12.1843 19.0817 11.8849C19.1785 11.7878 19.7515 10.9697 20.3551 10.067C21.8057 7.89777 21.6243 8.01188 23.048 8.37415ZM39.6933 8.8853C39.9697 9.2825 40.326 9.77397 40.485 9.97736C40.644 10.1809 40.9978 10.7125 41.2716 11.1587C41.5452 11.605 41.8998 12.1406 42.0594 12.3488C42.7142 13.2034 42.6402 13.2005 39.7235 12.2563C31.1334 9.47551 31.8275 9.83056 33.9462 9.30088C34.2351 9.22867 34.7078 9.11049 34.9966 9.03828C35.2855 8.96606 35.7582 8.84789 36.047 8.77567C37.2754 8.46855 37.7732 8.33527 38.0822 8.23048C38.8182 7.98114 39.161 8.12046 39.6933 8.8853ZM33.5578 11.1175C35.1074 11.623 37.6432 12.4502 39.1928 12.9557C40.7423 13.4612 42.1043 13.8748 42.2192 13.8748C42.3343 13.8748 42.6026 13.965 42.8157 14.0752L43.2031 14.2754V19.9023V25.5292L42.7101 26.0373C42.4389 26.3169 42.0724 26.7524 41.8957 27.0052C41.7188 27.2579 41.48 27.5534 41.3648 27.6617C41.2497 27.77 41.0128 28.0654 40.8384 28.3182C40.6642 28.571 40.3693 28.9255 40.1831 29.106C39.9969 29.2866 39.702 29.6411 39.5278 29.8938C39.3534 30.1466 39.1165 30.442 39.0014 30.5504C38.8862 30.6587 38.6493 30.9541 38.475 31.2069C38.3007 31.4596 38.0058 31.8142 37.8196 31.9947C37.6335 32.1752 37.3386 32.5298 37.1643 32.7825C36.9899 33.0353 36.7531 33.3307 36.6379 33.439C36.5228 33.5474 36.2864 33.8428 36.1127 34.0956C35.939 34.3483 35.7026 34.6438 35.5875 34.7521C35.4723 34.8604 35.236 35.1558 35.0623 35.4086C34.8886 35.6614 34.6522 35.9568 34.5371 36.0651C34.4219 36.1734 34.185 36.4689 34.0107 36.7216C33.8364 36.9744 33.5415 37.3289 33.3553 37.5094C33.1691 37.69 32.8742 38.0445 32.7 38.2973C32.5256 38.55 32.2887 38.8455 32.1736 38.9538C32.0584 39.0621 31.8218 39.3575 31.648 39.6103C30.9307 40.6526 30.2974 41.0805 30.0783 40.671C30.0039 40.5322 29.867 40.3401 29.7739 40.2442C29.6807 40.1484 29.461 39.8631 29.2857 39.6103C29.1103 39.3575 28.8146 39.003 28.6284 38.8225C28.4422 38.6419 28.1473 38.2874 27.9731 38.0347C27.7987 37.7819 27.5618 37.4865 27.4467 37.3781C27.3315 37.2698 27.0946 36.9744 26.9203 36.7216C26.746 36.4689 26.4511 36.1143 26.2649 35.9338C26.0787 35.7533 25.7838 35.3987 25.6096 35.146C25.4352 34.8932 25.1984 34.5978 25.0832 34.4895C24.9681 34.3811 24.7312 34.0857 24.5568 33.833C24.3826 33.5802 24.0877 33.2257 23.9015 33.0451C23.7153 32.8646 23.4204 32.5101 23.2461 32.2573C23.0718 32.0046 22.8349 31.7091 22.7197 31.6008C22.6046 31.4925 22.3682 31.197 22.1945 30.9443C22.0208 30.6915 21.7845 30.3961 21.6693 30.2878C21.5542 30.1794 21.3173 29.884 21.1429 29.6312C20.9687 29.3785 20.6738 29.024 20.4876 28.8434C20.3014 28.6629 20.0065 28.3084 19.8323 28.0556C19.6579 27.8028 19.421 27.5074 19.3059 27.3991C19.1907 27.2908 18.9544 26.9953 18.7806 26.7426C18.6069 26.4898 18.3685 26.1944 18.2508 26.0861C17.5454 25.437 17.578 25.7385 17.5612 19.7178C17.546 14.2542 17.6183 13.8786 18.6866 13.8755C18.8932 13.875 21.9528 12.8948 28.1032 10.8591C30.5333 10.0547 30.2602 10.0417 33.5578 11.1175ZM2.49902 12.5789C2.75178 12.7321 2.98812 12.8992 3.02423 12.9505C3.06034 13.0017 3.65121 13.4189 4.33727 13.8777C5.02333 14.3365 5.65199 14.7787 5.73432 14.8604C5.81678 14.9422 6.23827 15.2383 6.67117 15.5186C7.82979 16.2689 7.93892 16.6713 7.1918 17.4404C7.09753 17.5375 6.87732 17.8238 6.70268 18.0765C6.52792 18.3293 6.29067 18.6247 6.17552 18.7331C6.06036 18.8414 5.82402 19.1368 5.6503 19.3896C5.47659 19.6423 5.24024 19.9378 5.12509 20.0461C5.00993 20.1544 4.77359 20.4499 4.6 20.7026C4.42629 20.9554 4.24903 21.1917 4.20596 21.2278C4.1629 21.2639 3.9838 21.5003 3.80785 21.753C3.63204 22.0058 3.30049 22.4013 3.0711 22.6318C2.84158 22.8625 2.5484 23.2299 2.41933 23.4484C1.91118 24.3086 1.50625 24.0669 1.3823 22.8292C1.15895 20.6018 1.32595 13.6756 1.62112 12.9229C1.67062 12.7964 1.7389 12.6045 1.77278 12.4961C1.85393 12.2362 1.9524 12.2473 2.49902 12.5789ZM59.2608 13.163C59.8323 17.4208 59.7384 24.1165 59.1073 24.1165C58.9928 24.1165 58.2938 23.3456 57.9084 22.7944C57.7352 22.5466 57.5582 22.3144 57.5152 22.2782C57.4721 22.2421 57.2948 22.0058 57.1211 21.753C56.9475 21.5003 56.7112 21.2048 56.596 21.0965C56.4809 20.9882 56.2445 20.6928 56.0709 20.44C55.8972 20.1872 55.72 19.9509 55.6769 19.9148C55.6338 19.8787 55.4566 19.6423 55.2829 19.3896C55.1093 19.1368 54.8729 18.8414 54.7578 18.7331C54.6426 18.6247 54.4063 18.3293 54.2326 18.0765C54.0589 17.8238 53.822 17.5283 53.7063 17.42C52.9225 16.6868 52.9112 16.3925 53.6492 15.9262C53.9781 15.7185 54.3178 15.4782 54.404 15.3923C54.4902 15.3063 55.2994 14.743 56.2021 14.1405C57.1048 13.5378 57.873 13.0026 57.9091 12.9511C58.0368 12.7689 58.8957 12.3009 59.0251 12.3429C59.0974 12.3663 59.2034 12.7354 59.2608 13.163ZM16.7198 19.3567C16.7339 21.9747 16.7037 24.1165 16.6527 24.1165C16.5331 24.1165 13.3426 20.9061 12.7407 20.18C12.4879 19.8751 11.6459 18.9798 10.8696 18.1904C10.0934 17.401 9.45835 16.7127 9.45874 16.6608C9.4594 16.5575 10.5062 16.2308 14.185 15.1862C14.6544 15.0529 15.3339 14.854 15.695 14.7442C16.773 14.4163 16.6913 14.0487 16.7198 19.3567ZM45.7463 14.9161C46.189 15.0555 46.8172 15.2374 47.1422 15.3204C49.1096 15.8226 51.4738 16.5558 51.4746 16.664C51.4749 16.7175 50.5738 17.6629 49.472 18.7648C48.3704 19.8667 47.3231 20.9751 47.1447 21.2278C46.6547 21.9224 44.3727 24.1344 44.2043 24.0783C44.0562 24.0289 43.9095 15.1955 44.0507 14.8276C44.1422 14.5893 44.8207 14.6247 45.7463 14.9161ZM9.09112 17.4733C9.25682 17.6472 9.59925 18.0379 9.85201 18.3419C10.1048 18.6457 11.3754 19.9659 12.6757 21.2756C13.976 22.5854 15.1849 23.8637 15.3623 24.1165C15.5397 24.3693 15.8348 24.7238 16.0181 24.9043C16.7038 25.5795 16.7293 25.6474 16.4466 26.0486C16.3048 26.2498 16.0566 26.6802 15.8949 27.0052C14.714 29.3785 14.3409 29.7864 13.6691 29.4391C13.4648 29.3334 12.7144 29.044 12.0016 28.7959C11.2887 28.5478 10.2179 28.1616 9.62223 27.9377C7.06601 26.9767 6.29684 26.6907 4.99378 26.2171C2.08384 25.1594 2.21382 25.2499 2.63202 24.5733C2.79576 24.3083 3.05563 23.9643 3.20965 23.8086C3.36354 23.653 3.6331 23.3188 3.80866 23.0661C3.98421 22.8133 4.22211 22.5179 4.33727 22.4096C4.45242 22.3012 4.68877 22.0058 4.86235 21.753C5.03607 21.5003 5.21332 21.2639 5.25639 21.2278C5.29946 21.1917 5.47672 20.9554 5.65043 20.7026C5.82401 20.4499 6.06036 20.1544 6.17552 20.0461C6.29067 19.9378 6.52701 19.6423 6.70073 19.3896C6.87444 19.1368 7.11079 18.8414 7.22594 18.7331C7.3411 18.6247 7.57744 18.3293 7.75116 18.0765C8.40859 17.1199 8.65007 17.0111 9.09112 17.4733ZM52.6102 17.3872C52.7511 17.5136 53.0084 17.8238 53.1821 18.0765C53.3559 18.3293 53.5922 18.6247 53.7074 18.7331C53.8225 18.8414 54.0589 19.1368 54.2324 19.3896C54.4062 19.6423 54.5834 19.8787 54.6265 19.9148C54.6695 19.9509 54.8468 20.1872 55.0205 20.44C55.1941 20.6928 55.4305 20.9882 55.5456 21.0965C55.6608 21.2048 55.8971 21.5003 56.0708 21.753C56.2445 22.0058 56.4809 22.3012 56.596 22.4096C56.7112 22.5179 56.9475 22.8133 57.1211 23.0661C57.2948 23.3188 57.4721 23.5552 57.5152 23.5913C57.5582 23.6274 57.7364 23.8637 57.911 24.1165C58.0858 24.3693 58.3044 24.6542 58.3971 24.7495C58.805 25.1697 58.7796 25.1848 55.9395 26.2171C55.1812 26.4927 54.0586 26.9064 53.4447 27.1365C52.8309 27.3665 51.7083 27.7801 50.95 28.0556C49.1681 28.7029 47.5839 29.2947 47.0354 29.5179C46.5191 29.7281 46.4462 29.6561 45.5539 28.0556C45.2521 27.514 44.833 26.7634 44.6227 26.3877C44.1079 25.4675 44.1294 25.4324 46.9823 22.5533C48.2618 21.2621 49.5155 19.9564 49.7683 19.6519C50.4261 18.8594 52.116 17.1574 52.245 17.1574C52.305 17.1574 52.4694 17.2608 52.6102 17.3872ZM3.14675 26.4097C3.35132 26.5155 3.92446 26.7466 4.42039 26.9231C4.91632 27.0997 5.97199 27.4809 6.76638 27.77C9.86724 28.899 11.1325 29.3568 11.9529 29.6471C12.4223 29.8132 12.8296 29.9648 12.8579 29.9839C12.9878 30.0718 12.5482 30.4191 12.3073 30.4191C12.1586 30.4191 11.8557 30.4738 11.6339 30.5409C11.4122 30.6079 10.8171 30.7804 10.3116 30.9244C9.4493 31.17 9.115 31.2583 7.71833 31.61C7.41134 31.6872 6.79801 31.8644 6.35526 32.0039C4.82505 32.4855 4.59631 32.3738 3.89607 30.8022C3.68953 30.3387 3.37665 29.6424 3.2007 29.2549C2.06729 26.7585 2.04984 25.8426 3.14675 26.4097ZM58.6166 26.325C58.6814 26.4298 58.2312 27.7812 57.6463 29.2373C57.4868 29.6345 57.2863 30.1368 57.2009 30.3534C56.5245 32.069 56.0339 32.4596 54.9641 32.1349C54.7423 32.0676 54.2949 31.9448 53.97 31.862C53.645 31.7791 52.9803 31.5979 52.4928 31.4591C50.5861 30.9164 49.6862 30.6576 49.2994 30.5409C49.0776 30.4738 48.7747 30.4191 48.626 30.4191C48.3871 30.4191 47.9425 30.0698 48.0753 29.9866C48.1594 29.9339 48.9573 29.634 50.4248 29.1035C51.183 28.8295 52.3057 28.4169 52.9195 28.1869C53.5334 27.9569 54.656 27.5439 55.4143 27.2691C56.1726 26.9944 57.0884 26.651 57.4495 26.506C58.1744 26.2149 58.5158 26.1619 58.6166 26.325ZM17.7478 26.7754C17.9118 27.01 18.1403 27.2908 18.2554 27.3991C18.3706 27.5074 18.6075 27.8028 18.7818 28.0556C18.9561 28.3084 19.251 28.6629 19.4372 28.8434C19.6233 29.024 19.9183 29.3785 20.0925 29.6312C20.2669 29.884 20.5037 30.1794 20.6189 30.2878C20.734 30.3961 20.9722 30.6915 21.1482 30.9443C21.3241 31.197 21.661 31.5978 21.8969 31.8349C22.5543 32.4956 22.3709 32.7536 21.5468 32.3276C21.3422 32.2217 20.7691 31.9906 20.2732 31.8142C19.1954 31.4304 16.6929 30.5215 15.9576 30.2467C15.2918 29.9978 15.2563 29.7941 15.7311 28.9416C17.4176 25.9137 17.2624 26.0804 17.7478 26.7754ZM44.0097 26.907C44.2006 27.2137 44.5183 27.7897 44.7158 28.1869C44.9134 28.5841 45.1898 29.0719 45.3302 29.2709C45.6814 29.7688 45.5915 30.0166 44.9757 30.2467C43.365 30.8486 38.7292 32.5099 38.6403 32.5173C38.5089 32.5279 38.6589 32.2171 38.9058 31.9678C39.0698 31.8021 39.3476 31.4596 39.5232 31.2069C39.6987 30.9541 39.9366 30.6587 40.0518 30.5504C40.167 30.442 40.4038 30.1466 40.5782 29.8938C40.7524 29.6411 41.0473 29.2866 41.2335 29.106C41.4197 28.9255 41.7152 28.571 41.89 28.3182C42.0649 28.0654 42.3604 27.7109 42.5466 27.5304C42.7328 27.3498 43.0196 27.01 43.1843 26.7754C43.5649 26.2326 43.5929 26.237 44.0097 26.907ZM13.999 31.4367C13.9543 31.7796 13.8608 32.4444 13.7912 32.9138C13.7217 33.3832 13.6033 34.2104 13.5285 34.7521C13.4537 35.2937 13.3355 36.1209 13.2659 36.5903C13.0621 37.966 12.8733 39.3426 12.7437 40.3981C12.4467 42.8175 12.3295 43.0904 11.8814 42.4054C11.7497 42.2041 11.4295 41.8326 11.1695 41.5799C10.9097 41.3271 10.5539 40.9135 10.3792 40.6607C10.2044 40.408 9.96716 40.1125 9.85201 40.0042C9.73686 39.8959 9.50051 39.6005 9.3268 39.3477C9.15308 39.0949 8.9149 38.7995 8.79751 38.6912C8.68 38.5829 8.20821 37.9329 7.74904 37.2468C7.28987 36.5608 6.83519 35.92 6.73868 35.8229C6.64231 35.7258 6.46754 35.4599 6.35042 35.232C6.23329 35.0042 5.90371 34.4723 5.61773 34.05C5.0463 33.206 5.05707 33.1647 5.91291 32.9258C6.46465 32.7717 6.71333 32.7077 8.07941 32.3675C8.36828 32.2955 8.98869 32.1277 9.4581 31.9947C9.92751 31.8617 10.5479 31.6939 10.8368 31.6219C12.1452 31.296 12.4531 31.2141 13.0689 31.0278C14.0833 30.7209 14.0917 30.7246 13.999 31.4367ZM47.8164 31.0202C48.2039 31.1341 48.7572 31.2864 49.0461 31.3588C49.3349 31.431 49.9554 31.5991 50.4248 31.7321C50.8942 31.8651 51.5146 32.0329 51.8035 32.1049C55.8379 33.1097 55.8175 33.0949 55.0057 34.4345C54.3762 35.4731 52.917 37.674 52.7929 37.7721C52.7472 37.8082 52.5679 38.0445 52.3942 38.2973C52.2206 38.55 51.9843 38.8455 51.8691 38.9538C51.754 39.0621 51.5171 39.3575 51.3427 39.6103C51.1685 39.8631 50.8736 40.2176 50.6874 40.3981C50.5012 40.5787 50.2055 40.9332 50.0301 41.1859C49.666 41.7105 48.7491 42.6303 48.5902 42.6303C48.4584 42.6303 48.3952 42.2809 47.9325 38.9866C47.8588 38.4631 47.7386 37.6062 47.6649 37.0827C47.5914 36.5592 47.4716 35.7172 47.3988 35.2116C47.2517 34.1919 47.0454 32.558 46.9304 31.5023C46.8456 30.7241 46.833 30.7309 47.8164 31.0202ZM16.0145 31.1366C16.2191 31.2425 16.7922 31.4736 17.2881 31.65C17.7841 31.8266 18.8397 32.2073 19.6341 32.496C20.4285 32.7846 21.5706 33.1984 22.1721 33.4154C22.7736 33.6324 23.3012 33.8453 23.3444 33.8885C23.4914 34.0355 24.026 35.7355 24.0294 36.067C24.0312 36.2485 24.151 36.7204 24.2954 37.1155C24.4398 37.5106 24.558 37.9748 24.558 38.1469C24.558 38.3189 24.6721 38.8221 24.8114 39.2648C25.0832 40.1283 25.2693 40.8279 25.7586 42.8272C25.8294 43.1161 25.9422 43.5272 26.0093 43.7409C26.1732 44.2617 26.0133 44.3863 25.3244 44.275C25.0112 44.2243 23.7061 44.129 22.4243 44.0631C18.8539 43.8796 15.554 43.6952 14.2908 43.6088L13.1492 43.5305L13.2156 42.8506C13.2522 42.4767 13.3157 42.0526 13.3566 41.9081C13.3976 41.7637 13.4809 41.2024 13.5418 40.6607C13.6027 40.1191 13.7132 39.2475 13.7874 38.724C13.8616 38.2005 13.9826 37.3436 14.0562 36.8201C14.1298 36.2966 14.2479 35.4694 14.3188 34.9819C14.3896 34.4943 14.5041 33.6968 14.5732 33.2093C14.7731 31.7967 14.8559 31.2841 14.9121 31.1084C14.9831 30.8864 15.559 30.9011 16.0145 31.1366ZM46.1272 31.7977C46.1829 32.231 46.2879 32.9992 46.3607 33.5047C46.4334 34.0102 46.5478 34.867 46.6149 35.4086C46.6818 35.9502 46.8009 36.7774 46.8796 37.2468C46.9582 37.7163 47.0764 38.5435 47.1422 39.0851C47.208 39.6267 47.3284 40.4539 47.4095 40.9233C47.4908 41.3927 47.5674 42.1609 47.5796 42.6303L47.6017 43.4838L46.42 43.5875C45.7701 43.6445 44.2043 43.7473 42.9405 43.8158C38.6445 44.049 36.4424 44.1902 35.7389 44.2772C34.8544 44.3869 34.7032 44.2627 34.8979 43.5862C35.0312 43.1228 35.0981 42.8672 35.4666 41.4157C35.5444 41.1087 35.7171 40.4736 35.8501 40.0042C36.0973 39.132 36.3034 38.3516 36.5175 37.4766C36.5837 37.2059 36.7019 36.7332 36.7801 36.4262C37.0381 35.4128 37.1493 34.9531 37.2166 34.6208C37.3609 33.9078 37.4181 33.8751 40.4457 32.7803C42.2572 32.1251 43.7704 31.5576 44.5818 31.2291C45.7325 30.7629 46.0073 30.8642 46.1272 31.7977ZM25.2991 36.0323C25.44 36.1587 25.6973 36.4689 25.871 36.7216C26.0447 36.9744 26.2811 37.2698 26.3962 37.3781C26.5114 37.4865 26.7477 37.7819 26.9215 38.0347C27.0952 38.2874 27.3315 38.5829 27.4467 38.6912C27.5618 38.7995 27.7987 39.0949 27.9731 39.3477C28.1473 39.6005 28.4436 39.955 28.6314 40.1355C29.8897 41.3451 29.8655 41.8166 28.4971 42.7604C28.2443 42.9348 27.9489 43.1689 27.8406 43.2808C27.2275 43.914 26.6588 43.8326 26.6588 43.1116C26.6588 42.9655 26.6037 42.6644 26.5365 42.4427C26.4691 42.2209 26.3558 41.8031 26.2846 41.5142C25.7444 39.3209 25.3814 37.969 24.9424 36.5153C24.7158 35.7653 24.8297 35.6111 25.2991 36.0323ZM36.0447 36.0323C35.9918 36.1587 35.8968 36.4837 35.8337 36.7545C35.7156 37.2604 35.5435 37.9656 35.3129 38.8881C35.2407 39.177 35.133 39.6202 35.0737 39.8729C35.0143 40.1257 34.8702 40.5984 34.7533 40.9233C34.6364 41.2483 34.5392 41.6619 34.5371 41.8425C34.5304 42.4136 33.9816 43.812 33.7641 43.812C33.7051 43.812 33.4856 43.6489 33.2763 43.4495C33.067 43.2502 32.689 42.9423 32.4362 42.7653C31.1211 41.8444 31.0097 41.3716 31.9099 40.5294C32.0256 40.4211 32.263 40.1257 32.4374 39.8729C32.6116 39.6202 32.9065 39.2656 33.0927 39.0851C33.2789 38.9045 33.5743 38.55 33.7492 38.2973C33.9241 38.0445 34.2196 37.69 34.4058 37.5094C34.5919 37.3289 34.8868 36.9744 35.0611 36.7216C35.4234 36.1964 35.8324 35.8025 36.0155 35.8025C36.0845 35.8025 36.0975 35.9058 36.0447 36.0323ZM31.0599 42.7194C31.3474 42.9128 31.6714 43.1668 31.7797 43.2836C31.888 43.4005 32.1834 43.6386 32.4362 43.8124C33.1505 44.3039 33.7671 45.0228 33.6716 45.2524C33.6257 45.363 33.5621 45.5715 33.5302 45.7159C33.4983 45.8604 33.4115 46.2149 33.3373 46.5037C33.2632 46.7926 33.1481 47.2506 33.0818 47.5213C33.0156 47.7922 32.9023 48.2501 32.8301 48.5389C32.7579 48.8278 32.6397 49.3005 32.5675 49.5894C32.4953 49.8782 32.3771 50.3509 32.3049 50.6398C32.2327 50.9287 32.1096 51.4161 32.0314 51.723C31.9533 52.03 31.8351 52.5027 31.7688 52.7735C31.7026 53.0444 31.5844 53.5169 31.5062 53.8239C31.428 54.1309 31.3147 54.5887 31.2545 54.8415C30.8415 56.5725 30.5743 57.4676 30.4706 57.4676C30.351 57.4676 29.8101 55.8546 29.8101 55.498C29.8101 55.3364 29.696 54.8419 29.5567 54.3991C29.4173 53.9564 29.24 53.3431 29.1628 53.0361C29.0855 52.7291 28.9632 52.2417 28.891 51.9528C28.8188 51.664 28.7006 51.1913 28.6284 50.9024C28.5562 50.6135 28.438 50.1408 28.3658 49.852C28.2936 49.5631 28.1705 49.0757 28.0923 48.7687C28.0142 48.4617 27.896 47.9892 27.8297 47.7183C27.565 46.6362 27.4233 46.0914 27.3064 45.7066C27.1067 45.0486 27.162 44.7757 27.5451 44.5274C27.7437 44.3987 27.9949 44.197 28.1032 44.0792C28.2115 43.9616 28.5069 43.7231 28.7597 43.5495C29.0125 43.3758 29.2488 43.197 29.2849 43.1518C29.8246 42.4784 30.4684 42.3215 31.0599 42.7194ZM17.3363 44.6061C18.5279 44.6713 20.5959 44.7795 21.9319 44.8466C25.8454 45.043 25.8244 45.0339 24.7862 46.0741C24.4063 46.4549 23.9497 46.9731 23.7715 47.2259C23.4067 47.7435 20.5225 50.6398 20.3719 50.6398C20.3183 50.6398 20.16 50.5348 20.02 50.4065C19.8799 50.2781 19.5586 50.0275 19.3059 49.8498C17.2566 48.4078 13.6443 44.2713 14.5461 44.3992C14.8892 44.4478 16.1447 44.5409 17.3363 44.6061ZM46.8434 44.5541C46.8985 44.7225 42.6138 49.0786 41.89 49.59C41.6373 49.7686 41.2593 50.078 41.05 50.2773C40.8407 50.4767 40.6217 50.6398 40.5634 50.6398C40.4363 50.6398 37.2909 47.489 36.6379 46.7077C36.3852 46.4053 36.0158 45.9783 35.8173 45.7589C35.135 45.005 35.1385 45.0045 43.5536 44.6336C44.7937 44.579 45.8552 44.4871 45.9124 44.4295C46.0627 44.2785 46.7847 44.3752 46.8434 44.5541ZM26.5013 45.9391C26.5879 46.0258 26.6588 46.2137 26.6588 46.3566C26.6588 46.4994 26.714 46.7979 26.7812 47.0196C26.9234 47.4881 27.1465 48.351 27.5979 50.1802C27.6692 50.4691 27.8416 51.0677 27.9811 51.5105C28.1204 51.9532 28.2345 52.4477 28.2345 52.6093C28.2345 52.771 28.3486 53.2655 28.4879 53.7082C28.6273 54.151 28.8046 54.7643 28.8818 55.0713C28.9591 55.3783 29.0854 55.8804 29.1626 56.1874C29.2396 56.4944 29.3578 56.9269 29.4252 57.1486C29.7643 58.2659 29.2555 58.4197 28.3658 57.4686C28.2575 57.353 27.962 57.1161 27.7093 56.9425C27.4565 56.7688 27.2202 56.5915 27.1841 56.5485C27.148 56.5054 26.9116 56.3281 26.6588 56.1544C26.4061 55.9808 26.1107 55.7445 26.0023 55.6293C25.894 55.5142 25.5986 55.2773 25.3458 55.1029C25.0931 54.9287 24.7385 54.6338 24.558 54.4476C24.3775 54.2614 24.0229 53.9655 23.7702 53.7896C23.5174 53.6138 23.0447 53.2026 22.7197 52.8756C22.3948 52.5485 21.9074 52.1156 21.6365 51.9133C21.0744 51.4934 21.0576 51.4402 21.3774 51.0913C21.5059 50.9512 21.7561 50.63 21.9338 50.3772C22.1113 50.1244 22.9968 49.179 23.9015 48.2763C24.8062 47.3736 25.6825 46.4429 25.849 46.2083C26.181 45.7399 26.2668 45.7046 26.5013 45.9391ZM36.0779 47.3244C36.9296 48.173 37.7721 49.0726 37.95 49.3236C38.1281 49.5747 38.6147 50.1263 39.0314 50.5496C39.9282 51.4604 39.9251 51.4442 39.2968 51.9129C39.0261 52.115 38.6567 52.4304 38.4762 52.6139C38.2956 52.7975 37.9411 53.0912 37.6883 53.2667C37.4356 53.4421 37.022 53.7963 36.7692 54.0537C36.5165 54.311 36.1028 54.6648 35.8501 54.8395C35.5973 55.0143 35.3019 55.2516 35.1936 55.3667C35.0852 55.4819 34.7898 55.7182 34.5371 55.8919C34.2843 56.0656 33.9889 56.302 33.8805 56.4171C33.7722 56.5323 33.4768 56.7702 33.224 56.9458C32.9713 57.1213 32.6371 57.3909 32.4815 57.5448C31.6752 58.3422 31.0572 58.5294 31.248 57.9185C31.5415 56.979 32.0145 55.2521 32.3158 54.0209C32.382 53.7501 32.4904 53.307 32.5566 53.0361C32.6229 52.7653 32.7459 52.2778 32.8301 51.9528C32.9982 51.3037 33.1808 50.5765 33.3662 49.8192C33.4879 49.3212 33.6338 48.7358 33.8895 47.7183C33.9666 47.4113 34.0847 46.9788 34.1521 46.757C34.2193 46.5352 34.2744 46.225 34.2744 46.0677C34.2744 45.587 34.4726 45.725 36.0779 47.3244Z"
            fill="currentColor"></path>
    </g>
    <defs>
        <clipPath id="clip0_5606_98">
            <rect width="61" height="60" fill="white" transform="translate(0.5)">
            </rect>
        </clipPath>
    </defs>
</svg>