<svg xmlns="http://www.w3.org/2000/svg" width="25" height="25" viewBox="0 0 60 60"
    fill="none" class="group-hover:text-dark-blue mb-2">
    <g clip-path="url(#clip0_5606_129)">
        <path
            d="M44.73 55.55L15.23 55.57L0.5 30.01L15.27 4.44999L44.77 4.42999L59.5 29.99L44.73 55.55Z"
            stroke="currentColor" stroke-miterlimit="10"></path>
        <path
            d="M40.64 48.37L19.36 48.38L8.73999 29.96L19.38 11.52L40.66 11.51L51.28 29.94L40.64 48.37Z"
            stroke="currentColor" stroke-miterlimit="10"></path>
        <path
            d="M36.34 40.93H23.76L17.48 30.04L23.77 19.14L36.35 19.13L42.63 30.03L36.34 40.93Z"
            stroke="currentColor" stroke-miterlimit="10"></path>
        <path d="M15.26 4.45001L23.77 19.14" stroke="currentColor" stroke-miterlimit="10">
        </path>
        <path d="M44.76 4.42999L36.35 19.13" stroke="currentColor" stroke-miterlimit="10">
        </path>
        <path d="M42.63 30.03L59.5 29.99" stroke="currentColor" stroke-miterlimit="10"></path>
        <path d="M0.5 30.01L17.48 30.04" stroke="currentColor" stroke-miterlimit="10"></path>
        <path d="M23.76 40.93L15.24 55.57" stroke="currentColor" stroke-miterlimit="10">
        </path>
        <path d="M36.34 40.93L44.74 55.55" stroke="currentColor" stroke-miterlimit="10">
        </path>
    </g>
    <defs>
        <clipPath id="clip0_5606_129">
            <rect width="60" height="60" fill="white"></rect>
        </clipPath>
    </defs>
</svg>