<svg xmlns="http://www.w3.org/2000/svg" width="25" height="25" viewBox="0 0 60 60"
    fill="none" class="group-hover:text-dark-blue mb-2">
    <g clip-path="url(#clip0_5606_141)">
        <path
            d="M48.85 44.79C48.85 45.19 48.6 45.34 48.38 45.51L34.27 56.68C32.97 57.74 31.66 58.68 30.38 59.78C30.2734 59.9032 30.1233 59.9804 29.9611 59.9953C29.7989 60.0102 29.6372 59.9617 29.51 59.86L29.44 59.78C23.54 55.0467 17.63 50.33 11.71 45.63C11.4617 45.4964 11.2762 45.2701 11.1938 45.0005C11.1114 44.7309 11.1388 44.4396 11.27 44.19C14.4233 34.6433 17.5633 25.0967 20.69 15.55C21.76 12.37 22.82 9.18001 23.79 6.00001C23.9426 5.5454 24.2115 5.13861 24.57 4.82001C26.26 3.33001 27.96 1.82001 29.63 0.290013C29.6947 0.199192 29.7802 0.125156 29.8794 0.0740729C29.9785 0.0229896 30.0884 -0.00366211 30.2 -0.00366211C30.3115 -0.00366211 30.4214 0.0229896 30.5206 0.0740729C30.6197 0.125156 30.7052 0.199192 30.77 0.290013C32.43 1.86001 34.13 3.40001 35.77 4.95001C36.0467 5.19322 36.2509 5.50813 36.36 5.86001L47.55 40.86L48.61 44.29C48.7276 44.4358 48.8097 44.607 48.85 44.79ZM40.52 42.55L40.4 42.05L38.06 33.68C35.88 25.8133 33.7033 17.9467 31.53 10.08C31.34 9.39001 30.76 9.02001 30.32 8.58001C30.2839 8.53162 30.231 8.49857 30.1717 8.48746C30.1124 8.47634 30.0511 8.48796 30 8.52001C29.9701 8.53079 29.9452 8.55213 29.93 8.58001C29.3979 9.02468 28.9853 9.59531 28.73 10.24C27.27 15.48 25.73 20.71 24.26 25.94L19.57 42.26C19.47 42.6 19.43 42.88 19.75 43.13L29.66 51.22C29.6975 51.2655 29.7438 51.3029 29.7961 51.3301C29.8484 51.3573 29.9056 51.3737 29.9644 51.3784C30.0231 51.3831 30.0822 51.3759 30.1382 51.3573C30.1941 51.3386 30.2457 51.309 30.29 51.27L30.34 51.22C33.62 48.52 36.9 45.84 40.19 43.15C40.2987 43.0945 40.3883 43.0077 40.4471 42.9007C40.5059 42.7937 40.5313 42.6716 40.52 42.55ZM13.18 44.11C13.68 43.99 14.24 43.99 14.41 43.29C17.6633 32.6833 20.9366 22.0767 24.23 11.47L25.45 7.47001C25.4705 7.21981 25.4122 6.96946 25.283 6.75419C25.1538 6.53892 24.9604 6.36958 24.73 6.27001C24.24 6.20001 24.35 6.71001 24.27 6.97001C21.91 14.1033 19.5766 21.2433 17.27 28.39L12.45 43C12.3763 43.184 12.3746 43.3889 12.4449 43.5741C12.5153 43.7593 12.6527 43.9114 12.83 44C12.9352 44.0663 13.0557 44.1042 13.18 44.11ZM46.72 44.11C46.9438 44.1209 47.1629 44.043 47.3296 43.8932C47.4963 43.7433 47.597 43.5338 47.61 43.31C47.6178 43.1731 47.5938 43.0362 47.54 42.91L36.93 9.69001C36.61 8.69001 36.3 7.69001 35.93 6.69001C35.93 6.53001 35.93 6.19001 35.53 6.37001C35.2768 6.48572 35.0793 6.69635 34.9802 6.95643C34.881 7.2165 34.8881 7.50514 35 7.76001L37.11 15C39.9366 24.44 42.7633 33.8867 45.59 43.34C45.6697 43.5733 45.823 43.7744 46.0267 43.9132C46.2304 44.0521 46.4737 44.1211 46.72 44.11ZM45 43.6L44.82 42.94L34.41 8.36001C34.35 8.15001 34.41 7.70001 34.05 7.80001C33.8808 7.84745 33.7287 7.94235 33.6117 8.07349C33.4948 8.20463 33.4178 8.36652 33.39 8.54001C33.4109 8.71394 33.4511 8.88499 33.51 9.05001C36.69 20.0167 39.82 30.9767 42.9 41.93C42.9674 42.3849 43.1966 42.8002 43.5457 43.0997C43.8947 43.3991 44.3401 43.5626 44.8 43.56H45V43.6ZM15.09 43.6C16.43 43.6 16.73 43.37 17.01 42.44L25.88 12.28C26.21 11.14 26.53 9.98001 26.88 8.83001C26.9132 8.74013 26.9281 8.64453 26.9239 8.5488C26.9197 8.45307 26.8964 8.35915 26.8554 8.27253C26.8144 8.18592 26.7566 8.10836 26.6852 8.04439C26.6139 7.98042 26.5305 7.93134 26.44 7.90001H26.35C25.92 7.75001 26.01 8.26001 25.93 8.47001L16.2 39.87L15.09 43.6ZM29.58 58.84V57.77C29.6322 57.4515 29.5933 57.1247 29.4676 56.8274C29.342 56.5302 29.1348 56.2745 28.87 56.09C25.92 53.79 23.02 51.42 20.09 49.09L14.79 44.8C14.537 44.6601 14.2464 44.6032 13.9593 44.6373C13.6723 44.6713 13.4031 44.7947 13.19 44.99C12.83 45.53 13.19 45.83 13.57 46.17C18.6766 50.25 23.79 54.3467 28.91 58.46C29.0894 58.652 29.3231 58.7845 29.58 58.84ZM30.31 58.93C30.61 58.72 30.78 58.59 30.95 58.45C33.4366 56.4967 35.9133 54.54 38.38 52.58L46.51 46.11C46.6755 46.0103 46.7947 45.8491 46.8416 45.6617C46.8885 45.4742 46.8591 45.2758 46.76 45.11C46.7011 45.0027 46.6149 44.913 46.51 44.85C46.3209 44.7041 46.0888 44.6249 45.85 44.6249C45.6111 44.6249 45.379 44.7041 45.19 44.85C40.39 48.7167 35.5733 52.5833 30.74 56.45C30.54 56.61 30.32 56.77 30.31 57.06V58.93ZM17.58 42.93C17.7507 42.954 17.9245 42.944 18.0914 42.9006C18.2583 42.8573 18.415 42.7814 18.5525 42.6773C18.69 42.5733 18.8056 42.4431 18.8927 42.2943C18.9798 42.1454 19.0366 41.9809 19.06 41.81C20.59 36.29 22.19 30.81 23.76 25.29C25.1666 20.2433 26.61 15.2 28.09 10.16C28.23 9.68001 28.14 9.25001 27.7 9.10001C27.26 8.95001 27.4 9.53001 27.32 9.79001C24.5533 19.1633 21.78 28.5667 19 38C18.47 39.67 18 41.3 17.51 43L17.58 42.93ZM42.58 42.93L41.75 40.28L32.91 9.62001C32.85 9.44001 32.91 9.03001 32.58 9.12001C32.4298 9.1623 32.3016 9.26049 32.2216 9.3944C32.1416 9.52831 32.116 9.68778 32.15 9.84001L32.23 10.1L41.06 41.88C41.32 42.82 41.37 42.88 42.49 42.88L42.58 42.93ZM44.77 44.4C44.3896 44.1471 43.9342 44.032 43.4794 44.0739C43.0246 44.1157 42.5978 44.312 42.27 44.63C38.51 47.81 34.68 50.85 30.88 53.92C30.699 54.058 30.5589 54.2425 30.4744 54.4538C30.3899 54.6651 30.3641 54.8953 30.4 55.12C30.4 55.32 30.28 55.61 30.52 55.7C30.76 55.79 30.84 55.55 30.99 55.43L39.93 48.29L44.77 44.4ZM15.39 44.33C15.5105 44.4538 15.6409 44.5675 15.78 44.67C19.08 47.3367 22.3866 50.0033 25.7 52.67C26.82 53.6 27.96 54.54 29.18 55.5C29.32 55.62 29.57 55.89 29.62 55.5C29.7019 55.2326 29.7018 54.9469 29.6198 54.6795C29.5378 54.4122 29.3777 54.1755 29.16 54C25.16 50.76 21.22 47.49 17.26 44.24C17.1825 44.1472 17.0803 44.0782 16.9653 44.041C16.8503 44.0039 16.7271 44.0001 16.61 44.03C16.1653 44.104 15.7247 44.2008 15.29 44.32L15.39 44.33ZM17.85 43.8L18.2 44.07L27.75 51.85L29.27 53.1C29.51 53.29 29.61 53.28 29.69 52.94C29.7486 52.7175 29.7347 52.482 29.6501 52.2679C29.5656 52.0539 29.4149 51.8724 29.22 51.75C26.04 49.15 22.86 46.55 19.67 43.92C19.4344 43.6626 19.109 43.5056 18.7609 43.4814C18.4129 43.4572 18.0688 43.5677 17.8 43.79L17.85 43.8ZM42.3 43.74C41.72 43.62 41.3 43.26 40.84 43.66C37.5066 46.4133 34.1733 49.1567 30.84 51.89C30.701 51.9745 30.5882 52.0959 30.5141 52.2407C30.4399 52.3854 30.4074 52.5479 30.42 52.71C30.42 52.89 30.31 53.16 30.51 53.25C30.71 53.34 30.85 53.11 30.99 52.99L40.74 44.99L42.3 43.74ZM30.71 1.29001L30.55 1.38001C30.66 1.98001 30.3 2.66001 30.8 3.17001C31.87 4.23001 32.93 5.29001 34.06 6.27001C34.56 6.72001 34.75 6.11001 35.06 5.91001C35.37 5.71001 35.28 5.46001 35.06 5.23001L31.88 2.23001L30.71 1.29001ZM29.77 1.29001C29.61 1.43001 29.48 1.51001 29.37 1.61001L25.37 5.17001C25.18 5.34001 24.8 5.52001 25.2 5.81001C25.6 6.10001 25.69 6.81001 26.32 6.22001C27.18 5.42001 27.99 4.56001 28.92 3.85001C29.3326 3.56272 29.6386 3.14711 29.7905 2.66784C29.9425 2.18858 29.9317 1.67253 29.76 1.20001L29.77 1.29001ZM30.7 4.08001H30.54C30.61 4.68001 30.32 5.32001 30.87 5.85001C31.42 6.38001 32 7.00001 32.59 7.60001C32.94 7.98001 33.13 7.75001 33.37 7.51001C33.61 7.27001 33.89 7.07001 33.51 6.71001C32.57 5.71001 31.63 4.87001 30.7 3.99001V4.08001ZM29.75 4.00001L26.85 6.56001C26.66 6.74001 26.34 6.92001 26.72 7.22001C27.1 7.52001 27.24 7.94001 27.72 7.42001C28.1058 6.96954 28.5345 6.5576 29 6.19001C29.3625 5.94394 29.6343 5.58559 29.7734 5.17006C29.9125 4.75452 29.9113 4.3048 29.77 3.89001L29.75 4.00001ZM30.57 6.59001C30.4353 7.02966 30.4621 7.50292 30.6454 7.92458C30.8288 8.34624 31.1566 8.6886 31.57 8.89001C31.89 9.04001 31.99 8.77001 32.17 8.63001C32.35 8.49001 32.4 8.38001 32.23 8.21001L30.57 6.59001ZM29.57 6.50001C29.03 7.10001 28.57 7.56001 28.13 8.10001C27.9 8.35001 27.99 8.52001 28.2 8.70001C28.41 8.88001 28.53 9.06001 28.8 8.82001C29.2059 8.5843 29.5096 8.20594 29.652 7.75861C29.7943 7.31127 29.7651 6.82698 29.57 6.40001V6.50001Z"
            fill="currentColor"></path>
    </g>
    <defs>
        <clipPath id="clip0_5606_141">
            <rect width="60" height="60" fill="white"></rect>
        </clipPath>
    </defs>
</svg>