<svg xmlns="http://www.w3.org/2000/svg" width="25" height="25" viewBox="0 0 60 60"
    fill="none" class="group-hover:text-dark-blue mb-2">
    <g clip-path="url(#clip0_5606_107)">
        <path
            d="M30 1C35.7395 1.00003 41.3499 2.70314 46.1209 5.8937C50.8918 9.08426 54.6088 13.6188 56.801 18.9231C58.9933 24.2274 59.5623 30.0629 58.436 35.6908C57.3097 41.3187 54.5388 46.4858 50.4741 50.5379C46.4094 54.5901 41.2336 57.3449 35.6023 58.4537C29.9709 59.5625 24.1372 58.9753 18.8397 56.7666C13.5422 54.5578 9.0193 50.8268 5.84359 46.046C2.66787 41.2651 0.982205 35.6495 1.00002 29.91C1.02384 22.2343 4.0897 14.8812 9.52568 9.46206C14.9617 4.04295 22.3243 0.999963 30 1ZM30 17.7C29.82 17.75 29.65 17.79 29.49 17.85C26.85 18.95 24.22 20.05 21.58 21.13C21.4289 21.1949 21.293 21.2907 21.181 21.4113C21.0691 21.5318 20.9836 21.6745 20.93 21.83C19.8567 24.4233 18.7833 27.01 17.71 29.59C17.6263 29.7737 17.5829 29.9732 17.5829 30.175C17.5829 30.3768 17.6263 30.5763 17.71 30.76C18.7833 33.32 19.8433 35.8867 20.89 38.46C20.9511 38.6354 21.05 38.7952 21.1795 38.9283C21.3091 39.0613 21.4663 39.1643 21.64 39.23C24.2134 40.2833 26.78 41.3467 29.34 42.42C29.5346 42.509 29.746 42.5551 29.96 42.5551C30.174 42.5551 30.3855 42.509 30.58 42.42C33.0933 41.36 35.6133 40.3133 38.14 39.28C38.3681 39.1937 38.5751 39.0599 38.7476 38.8875C38.92 38.7151 39.0537 38.508 39.14 38.28C40.1734 35.7467 41.2167 33.2233 42.27 30.71C42.3494 30.541 42.3905 30.3567 42.3905 30.17C42.3905 29.9833 42.3494 29.799 42.27 29.63C41.2034 27.07 40.1467 24.5033 39.1 21.93C39.0334 21.74 38.9265 21.5665 38.7867 21.4216C38.6469 21.2766 38.4775 21.1635 38.29 21.09L30.58 17.91L30 17.7ZM36.92 12.29C36.92 12.21 36.82 12.09 36.75 11.99C34.62 8.82 32.49 5.66 30.38 2.48C30.04 1.97 29.85 2.11 29.59 2.48C29.08 3.29 28.54 4.09 28.02 4.89L23.38 12C23.2 12.28 22.99 12.52 23.44 12.79C25.54 14.07 27.61 15.37 29.69 16.67C29.7972 16.7577 29.9315 16.8057 30.07 16.8057C30.2085 16.8057 30.3428 16.7577 30.45 16.67L36.57 12.74C36.73 12.63 36.94 12.55 36.93 12.26L36.92 12.29ZM30 58C30.13 57.87 30.25 57.73 30.37 57.59C32.45 54.45 34.5334 51.3133 36.62 48.18C36.9 47.76 36.83 47.55 36.41 47.29C34.41 46.11 32.41 44.91 30.41 43.69C30.279 43.5956 30.1215 43.5448 29.96 43.5448C29.7985 43.5448 29.6411 43.5956 29.51 43.69C27.55 44.89 25.5834 46.08 23.61 47.26C23.23 47.48 23.11 47.68 23.39 48.1C25.4967 51.2533 27.5934 54.41 29.68 57.57C29.75 57.7 29.85 57.81 30 58ZM22.15 13.18C22.21 12.84 21.8 12.83 21.46 12.75L11.58 10.48C10.11 10.15 10.14 10.14 10.45 11.64C11.16 15.08 11.85 18.52 12.55 21.95C12.63 22.34 12.68 22.7 13.25 22.56C15.52 22 17.81 21.45 20.09 20.92C20.2412 20.9051 20.3835 20.8415 20.4953 20.7387C20.6072 20.6358 20.6825 20.4994 20.71 20.35C21.17 18.02 21.64 15.7 22.15 13.18ZM49.76 10.57C49.76 10.05 49.37 10.24 49.01 10.32C45.59 11.09 42.17 11.88 38.74 12.59C38.02 12.74 37.93 13.03 38.05 13.66C38.46 15.72 38.87 17.77 39.18 19.84C39.1978 20.1351 39.3204 20.4142 39.5257 20.6269C39.7311 20.8396 40.0057 20.9719 40.3 21C42.35 21.46 44.38 22 46.41 22.47C46.93 22.6 47.15 22.47 47.25 21.95C47.49 20.74 47.77 19.54 48.04 18.33C48.6 15.79 49.16 13.25 49.76 10.56V10.57ZM57.86 30C57.8 29.81 57.63 29.74 57.48 29.65C54.33 27.72 51.18 25.81 48.04 23.87C47.6 23.6 47.36 23.62 47.04 24.08C45.89 25.93 44.73 27.76 43.55 29.59C43.4249 29.7613 43.3574 29.9679 43.3574 30.18C43.3574 30.3921 43.4249 30.5987 43.55 30.77C44.76 32.63 45.96 34.51 47.14 36.39C47.36 36.75 47.57 36.8 47.93 36.56C51.11 34.4867 54.29 32.4267 57.47 30.38C57.61 30.28 57.78 30.2 57.81 30H57.86ZM1.94002 30C5.34002 32.25 8.61002 34.41 11.86 36.58C12.27 36.86 12.48 36.73 12.71 36.37C13.93 34.48 15.15 32.59 16.39 30.72C16.5236 30.5699 16.5973 30.3759 16.5973 30.175C16.5973 29.9741 16.5236 29.7801 16.39 29.63C15.15 27.78 13.92 25.94 12.71 24.07C12.41 23.6 12.18 23.6 11.71 23.87C10.09 24.87 8.45002 25.87 6.82002 26.92L1.94002 30ZM22.14 46.9C22.14 46.83 22.14 46.78 22.14 46.73C21.68 44.53 21.21 42.33 20.77 40.13C20.7408 39.9313 20.6446 39.7486 20.4972 39.6122C20.3499 39.4758 20.1603 39.3938 19.96 39.38C17.77 38.89 15.58 38.38 13.39 37.89C12.9 37.78 12.69 37.89 12.59 38.4C11.81 42.0067 11.02 45.6067 10.22 49.2C10.1 49.76 10.31 49.81 10.76 49.71C11.68 49.5 12.59 49.31 13.5 49.12C16.17 48.55 18.84 47.99 21.5 47.41C21.75 47.35 22.17 47.38 22.14 46.9ZM46.91 37.76H46.69L39.76 39.4C39.5987 39.4307 39.4523 39.5142 39.3437 39.6373C39.235 39.7604 39.1704 39.9162 39.16 40.08L37.9 46.59C37.81 47.05 37.96 47.31 38.43 47.39C39.11 47.52 39.77 47.67 40.43 47.81L49 49.65C49.56 49.77 49.83 49.7 49.64 49.03C49.45 48.36 49.31 47.55 49.15 46.81C48.56 44 48 41.19 47.31 38.38C47.26 38.13 47.32 37.72 46.91 37.76ZM58.29 31.66C58.29 31.46 58.44 31.11 58.21 30.88C57.98 30.65 57.84 30.94 57.68 31.05L48.77 36.81C48.6 36.93 48.3 37 48.34 37.27C48.38 37.54 48.65 37.49 48.82 37.58C51.03 38.65 53.24 39.7 55.43 40.79C55.94 41.04 56.16 40.99 56.37 40.44C57.4741 37.6344 58.1223 34.6703 58.29 31.66ZM1.64002 31C1.70002 31.64 1.73002 32.1 1.77002 32.55C2.01696 35.2929 2.65336 37.9866 3.66002 40.55C3.87002 41.09 4.13002 41.16 4.66002 40.91C6.85002 39.81 9.04002 38.72 11.25 37.65C11.73 37.42 11.66 37.26 11.25 37.01L7.65002 34.58L2.21002 31C1.99002 30.85 1.67002 30.53 1.65002 31H1.64002ZM28.34 1.7C25.4258 1.85944 22.5545 2.47353 19.83 3.52C19.3 3.72 19.22 3.96 19.45 4.47C20.45 6.69 21.34 8.93 22.3 11.16C22.38 11.36 22.41 11.65 22.66 11.69C22.91 11.73 22.99 11.43 23.11 11.25C25.0367 8.35667 26.9267 5.46 28.78 2.56C28.94 2.32 29.29 2.08 29.1 1.78C28.91 1.48 28.58 1.71 28.34 1.7ZM50.55 10.47C50.4901 10.5752 50.4399 10.6857 50.4 10.8C49.5934 14.4667 48.78 18.1333 47.96 21.8C47.81 22.47 48.16 22.32 48.53 22.16C50.88 21.16 53.22 20.16 55.53 19.16C56.02 18.96 56.04 18.74 55.84 18.31C55.1605 16.8075 54.3542 15.3657 53.43 14C52.5701 12.7451 51.6068 11.5643 50.55 10.47ZM9.55002 10.47C7.28527 12.7757 5.44086 15.4594 4.10002 18.4C3.94002 18.81 3.99002 19.03 4.43002 19.22C6.84002 20.22 9.24002 21.32 11.65 22.37C11.74 22.37 11.84 22.46 11.95 22.31C11.16 18.41 10.35 14.48 9.53002 10.46L9.55002 10.47ZM28.89 58.34C28.89 58.34 29.09 58.4 29.17 58.24C29.25 58.08 29.08 57.87 28.98 57.71L23.07 48.81C22.77 48.35 22.6 48.28 22.37 48.81C21.41 51.1167 20.44 53.42 19.46 55.72C19.3 56.1 19.39 56.25 19.75 56.39C22.679 57.5037 25.7615 58.1614 28.89 58.34ZM58.28 28.24C58.1299 25.4668 57.5601 22.7324 56.59 20.13C56.48 19.83 56.39 19.54 55.95 19.73C53.51 20.78 51.08 21.81 48.64 22.84C48.25 23.01 48.25 23.19 48.64 23.4C49.03 23.61 49.64 24.01 50.12 24.32L57.61 28.91C57.8 29.02 57.99 29.25 58.22 29.1C58.45 28.95 58.34 28.69 58.34 28.47C58.3246 28.3922 58.3046 28.3154 58.28 28.24ZM37.28 48.24C37.11 48.5 37.01 48.64 36.91 48.78C35.05 51.58 33.19 54.37 31.35 57.18C31.12 57.53 30.6 57.95 30.77 58.24C30.94 58.53 31.59 58.24 32.03 58.24H32.25C34.8994 58.0337 37.5075 57.4616 40 56.54C40.43 56.38 40.61 56.18 40.41 55.7C39.41 53.25 38.41 50.8 37.41 48.21L37.28 48.24ZM37.39 11.85C38.39 9.16 39.39 6.64 40.31 4.12C40.44 3.79 40.31 3.61 39.99 3.5L38.68 3C36.357 2.24038 33.9416 1.79969 31.5 1.69C31.28 1.69 31.01 1.58 30.88 1.84C30.75 2.1 30.97 2.16 31.06 2.3C31.42 2.85 31.8 3.39 32.16 3.93L37.45 11.82L37.39 11.85ZM38.01 12.1C38.46 12.01 38.76 11.96 39.01 11.89C42.09 11.21 45.18 10.53 48.25 9.83C48.63 9.75 49.25 9.83 49.31 9.44C49.37 9.05 48.8 8.95 48.55 8.67C48.5018 8.61179 48.4482 8.55822 48.39 8.51C46.3493 6.76921 44.0778 5.31882 41.64 4.2C41.35 4.07 41.07 3.93 40.91 4.37L37.97 12.1H38.01ZM11.59 23.21C11.4015 22.9744 11.142 22.8061 10.85 22.73C8.72002 21.8 6.58002 20.9 4.47002 19.93C3.79002 19.61 3.54002 19.73 3.29002 20.43C2.38591 23.1139 1.83462 25.9039 1.65002 28.73C1.65002 28.89 1.55002 29.11 1.74002 29.21C1.93002 29.31 2.06002 29.13 2.20002 29.04L8.71002 25.04L11.59 23.21ZM49.5 50.55C49.41 50.47 49.38 50.42 49.34 50.42L38.54 48.07C38.01 47.96 38.03 48.19 38.18 48.56C39.12 50.85 40.06 53.13 40.97 55.43C41.17 55.91 41.42 55.93 41.85 55.74C43.2736 55.092 44.6386 54.3225 45.93 53.44C47.2069 52.5892 48.402 51.6217 49.5 50.55ZM22 12.21C20.89 9.6 19.85 7.21 18.85 4.76C18.62 4.21 18.39 4.1 17.85 4.36C15.3576 5.57288 13.051 7.1353 11 9C10.85 9.14 10.59 9.24 10.64 9.45C10.69 9.66 11 9.67 11.21 9.72L18.44 11.39L22 12.21ZM10.4 50.45C12.6958 52.6447 15.3379 54.4456 18.22 55.78C18.62 55.96 18.76 55.78 18.89 55.43C19.8367 53.15 20.7967 50.87 21.77 48.59C21.84 48.43 21.98 48.24 21.87 48.1C21.76 47.96 21.49 48.1 21.31 48.1C19.58 48.45 17.85 48.82 16.12 49.19L10.4 50.45ZM50.4 49.45C50.55 49.45 50.61 49.45 50.64 49.39C52.6178 47.2961 54.2636 44.9118 55.52 42.32C55.76 41.82 55.52 41.59 55.12 41.39C53.29 40.53 51.48 39.65 49.65 38.78C49.12 38.52 48.58 38.29 47.87 37.96C48.73 41.9 49.57 45.68 50.4 49.45ZM9.26002 49.27C9.53002 49.27 9.53002 49.04 9.57002 48.88C10.3234 45.48 11.07 42.08 11.81 38.68C11.91 38.26 11.81 38.08 11.34 38.3C9.13002 39.38 6.90002 40.48 4.67002 41.55C4.31002 41.73 4.28002 41.93 4.45002 42.27C5.64213 44.7164 7.17394 46.9822 9.00002 49C9.07826 49.0851 9.16176 49.1653 9.25002 49.24L9.26002 49.27ZM30.79 17.27L38.49 20.47C38.49 20.34 38.58 20.29 38.57 20.25L37.37 13.55C37.31 13.21 37.15 13.2 36.9 13.37L30.79 17.27ZM29.21 17.21L23.31 13.53C22.94 13.3 22.78 13.4 22.7 13.81C22.31 15.81 21.92 17.81 21.5 19.81C21.38 20.39 21.5 20.47 22.05 20.25C23.68 19.55 25.31 18.89 26.93 18.25C27.7123 17.97 28.4741 17.6358 29.21 17.25V17.21ZM20.34 38.81C19.27 36.22 18.27 33.81 17.26 31.38C17.1 30.98 16.93 31.09 16.76 31.38L13.26 36.7C13.05 37.02 13.12 37.2 13.5 37.28L20.34 38.82V38.81ZM17.09 29.24C17.1593 29.1494 17.2196 29.0523 17.27 28.95C18.27 26.65 19.18 24.35 20.14 22.04C20.26 21.74 20.25 21.53 19.83 21.63L13.51 23.15C13.08 23.26 13.07 23.44 13.3 23.78C14.4334 25.5 15.5767 27.24 16.73 29C16.81 29.11 16.86 29.28 17.09 29.28V29.24ZM39.61 38.81L46.42 37.19C46.97 37.06 46.72 36.8 46.56 36.55C45.64 35.13 44.7267 33.7067 43.82 32.28L42.9 30.88L39.61 38.81ZM21.34 39.81C21.82 42.15 22.27 44.3 22.7 46.44C22.8 46.93 23 46.87 23.32 46.67L28.82 43.33C28.92 43.26 29.05 43.2 28.99 42.97L21.34 39.81ZM38.55 39.81C36 40.87 33.61 41.81 31.22 42.87C30.83 43.03 30.98 43.24 31.22 43.4C33.0733 44.4667 34.9 45.5633 36.7 46.69C37.02 46.88 37.18 46.86 37.26 46.46C37.67 44.31 38.09 42.16 38.55 39.82V39.81ZM40.18 21.63C39.78 21.54 39.73 21.73 39.86 22.04C40.86 24.35 41.77 26.66 42.72 28.98C42.85 29.29 42.99 29.3 43.17 28.98C44.2767 27.2 45.3967 25.4267 46.53 23.66C46.74 23.32 46.65 23.15 46.28 23.06L40.18 21.6V21.63Z"
            fill="currentColor" stroke="currentColor" stroke-width="0.5"
            stroke-miterlimit="10">
        </path>
    </g>
    <defs>
        <clipPath id="clip0_5606_107">
            <rect width="60" height="60" fill="white"></rect>
        </clipPath>
    </defs>
</svg>