<svg xmlns="http://www.w3.org/2000/svg" width="25" height="25" viewBox="0 0 38 38"
    fill="none" class="group-hover:text-dark-blue mb-2">
    <path
        d="M13.6386 1.14416L8.51941 1.79324L6.03331 2.61377L3.54721 3.44655L2.80016 5.77345C2.08984 8.01461 2.02861 8.33303 1.20807 13.5624C0.436523 18.4121 0.363042 19.098 0.473264 19.747C0.632472 20.7635 1.09785 23.7395 1.62446 27.0829C2.00411 29.4955 2.17557 30.2303 2.82465 32.2265L3.5717 34.5412L8.22549 36.1088L19.2476 37.5294L30.2697 36.1333L32.3517 35.3617C33.5029 34.9453 34.4949 34.5412 34.5684 34.4555C34.6418 34.382 35.046 33.3532 35.4624 32.1776L36.2217 30.0344L37.7893 18.9633L37.0055 13.4767L36.2339 7.99012L35.4379 5.74895C35.0092 4.52427 34.6296 3.48329 34.5929 3.4588C34.5561 3.42206 33.5396 3.04241 32.315 2.60152L30.0983 1.81773L24.7464 1.13191C21.8072 0.764504 19.2476 0.470581 19.0762 0.470581C18.9047 0.482828 16.4553 0.776751 13.6386 1.14416ZM23.1176 3.33633C27.9551 6.61848 27.7591 6.48376 27.7591 6.5205C27.7591 6.54499 26.1181 7.42676 24.1218 8.49224C22.1134 9.55771 20.2029 10.5742 19.86 10.7579L19.2599 11.1008L17.778 10.3293C16.9697 9.90062 15.047 8.90863 13.4916 8.11259C11.9485 7.31654 10.6259 6.63072 10.5646 6.58174C10.4789 6.49601 11.6056 5.72446 17.2881 2.01368C18.3658 1.30336 19.2844 0.752258 19.3211 0.776751C19.3578 0.801245 21.0724 1.95244 23.1176 3.33633ZM18.5618 0.874726C18.3046 1.09517 10.2095 6.3368 10.1237 6.3368C9.86656 6.3368 4.12281 3.59352 4.20854 3.50779C4.26977 3.47105 5.24952 3.11589 6.41296 2.73624L8.50717 2.03817L13.2099 1.43808C17.6678 0.874726 18.6843 0.764504 18.5618 0.874726ZM25.1751 1.43808L30.0493 2.05042L31.9353 2.72399C32.9763 3.10364 33.907 3.43431 34.005 3.47105C34.1887 3.53228 33.3682 3.94867 29.9881 5.50402C28.9593 5.9694 28.0408 6.3368 27.9673 6.30006C27.8449 6.25107 20.0804 1.00944 19.9334 0.874726C19.8232 0.776751 20.4356 0.837985 25.1751 1.43808ZM34.1642 3.97317C34.1152 4.09563 33.5029 5.47952 32.7926 7.04711L31.4944 9.88837L28.6287 11.2355C27.0488 11.9703 25.7384 12.5582 25.7139 12.5337C25.6894 12.5092 26.1426 11.3702 26.7304 9.99859C27.3183 8.62695 27.8694 7.3043 27.9673 7.07161C28.1388 6.65522 28.3102 6.55724 31.1638 5.21009C32.8293 4.4263 34.201 3.77722 34.2132 3.77722C34.2255 3.76497 34.201 3.86295 34.1642 3.97317ZM5.72714 4.61C6.55993 5.0019 7.88258 5.62648 8.65413 5.99389L10.0748 6.66746L11.3117 9.59445C11.9853 11.1988 12.5364 12.5337 12.5119 12.5582C12.4629 12.6072 6.87834 9.99859 6.74363 9.85163C6.63341 9.74141 4.46572 5.07538 4.03708 4.0344C3.92686 3.78946 4.1473 3.86295 5.72714 4.61ZM5.05357 6.86341C5.73939 8.35752 6.25375 9.59445 6.20477 9.61894C6.11904 9.65568 2.55522 8.11259 2.43275 8.00236C2.40826 7.97787 2.67769 7.05936 3.0206 5.9694C3.37576 4.87943 3.69417 4.02215 3.73091 4.07114C3.7799 4.10788 4.36775 5.3693 5.05357 6.86341ZM35.2174 5.87142C35.5848 6.90015 35.9033 7.80642 35.9278 7.86765C35.9645 7.99012 32.0823 9.72916 31.9843 9.61894C31.9231 9.55771 34.3969 4.00991 34.4949 4.00991C34.5316 4.00991 34.8623 4.85494 35.2174 5.87142ZM14.7163 9.0311C16.8717 10.1211 18.6843 11.0641 18.7332 11.1131C18.7822 11.1498 17.4963 11.5417 15.8797 11.9581C14.2509 12.3867 12.9038 12.7051 12.8915 12.6806C12.818 12.5704 10.5646 7.21857 10.5156 7.01037C10.4667 6.81442 10.4789 6.78993 10.6259 6.90015C10.7238 6.97363 12.5609 7.92888 14.7163 9.0311ZM26.5834 9.71692C25.9344 11.26 25.3588 12.5704 25.3098 12.6194C25.2485 12.6929 19.8355 11.309 19.7007 11.1743C19.6763 11.162 20.7785 10.5497 22.1501 9.81489C23.5217 9.09233 25.322 8.12483 26.1671 7.68395C27.0121 7.23082 27.7102 6.87566 27.7224 6.88791C27.7469 6.90015 27.2325 8.17382 26.5834 9.71692ZM3.09408 8.59021C5.05357 9.41075 6.266 9.99859 6.25375 10.1578C6.24151 10.2435 5.77613 10.9906 5.21278 11.8111C4.64942 12.6317 3.4125 14.4442 2.46949 15.8281C1.52649 17.212 0.742693 18.3387 0.7182 18.3387C0.693706 18.3387 0.693706 18.2162 0.730446 18.057C0.767187 17.91 1.1101 15.8036 1.48975 13.3787C2.17557 8.93312 2.28579 8.29629 2.33478 8.29629C2.34702 8.29629 2.68993 8.431 3.09408 8.59021ZM36.6871 12.9133C37.0422 15.4607 37.3606 17.7386 37.3974 17.9713C37.4586 18.3877 37.4464 18.3877 36.932 17.6406C35.8175 16.073 31.9353 10.2803 31.8986 10.1456C31.8618 10.0231 35.5236 8.34527 35.9033 8.30853C35.989 8.29629 36.2952 10.17 36.6871 12.9133ZM8.89906 14.6279C10.1237 16.9793 11.128 18.9388 11.1402 19.0122C11.1402 19.1225 7.25799 26.0786 6.54768 27.2543L6.30274 27.6585L4.79638 25.3561C3.9636 24.0947 2.70218 22.1597 1.97962 21.0697C1.20807 19.894 0.693706 19 0.730446 18.8898C0.852914 18.5836 6.48644 10.3782 6.58442 10.3782C6.63341 10.3782 7.67438 12.2887 8.89906 14.6279ZM9.89106 11.6519C11.5566 12.4235 12.6343 12.9868 12.6221 13.097C12.6098 13.1828 12.3159 14.4687 11.9608 15.9383C11.5199 17.7508 11.2749 18.5714 11.2015 18.4489C11.1035 18.2897 9.97678 16.1465 7.76011 11.9336C7.30698 11.0763 6.98856 10.3782 7.0498 10.3782C7.11103 10.3782 8.3847 10.9538 9.89106 11.6519ZM31.1882 10.4395C31.1882 10.4762 30.7474 11.3457 30.2085 12.3745C29.6696 13.4032 28.7144 15.2157 28.1021 16.4037C27.4775 17.5916 26.9386 18.5469 26.9141 18.5101C26.8161 18.4244 25.6649 13.6481 25.6404 13.2685C25.6159 12.9133 25.6772 12.8888 28.3102 11.6519C30.9678 10.4027 31.1882 10.317 31.1882 10.4395ZM34.6051 14.6524C36.2829 17.163 37.4464 19 37.3974 19.1102C37.3606 19.1959 36.8095 20.0777 36.1849 21.0452C35.5481 22.0127 34.3724 23.8252 33.5764 25.0744C32.7803 26.3236 32.07 27.4013 31.9965 27.487C31.8986 27.5972 31.5924 27.1441 30.7474 25.65C30.1228 24.56 29.0328 22.625 28.3102 21.3514L26.9998 19.0245L27.4897 18.106C27.7591 17.5916 28.5919 15.9873 29.3512 14.5422C31.1882 11.0273 31.5557 10.3782 31.6536 10.3782C31.7026 10.3905 33.0253 12.3132 34.6051 14.6524ZM22.2113 12.154C23.8034 12.5827 25.1506 12.9868 25.1996 13.0358C25.322 13.1583 26.6569 18.6326 26.6569 19C26.6569 19.4041 25.1751 24.756 25.0159 24.903C24.9424 24.9887 23.6442 25.3928 22.1256 25.8092C20.1294 26.3603 19.2599 26.544 18.9414 26.495C18.4638 26.4216 13.1854 25.0009 13.1365 24.9274C13.112 24.9152 12.7323 23.5681 12.2792 21.9637L11.4586 19.0245L12.1567 16.1465C12.5364 14.5544 12.916 13.1828 13.0017 13.097C13.0752 13.0113 14.2999 12.6439 15.7083 12.2765C17.1167 11.9091 18.4393 11.5539 18.6353 11.4927C19.1986 11.3212 19.1374 11.309 22.2113 12.154ZM12.1567 22.4291C12.5486 23.8497 12.8058 25.0132 12.7446 25.0377C12.6833 25.0622 11.3117 25.65 9.69511 26.3481C8.07853 27.0339 6.73138 27.5972 6.71913 27.5728C6.69464 27.5605 6.80486 27.3033 6.97632 27.0094C7.2335 26.5563 9.5359 22.4658 10.3687 20.9717C11.2015 19.4776 11.2627 19.3919 11.3607 19.6368C11.4097 19.7593 11.7771 21.0207 12.1567 22.4291ZM28.6777 22.5026C29.5962 24.1559 30.5637 25.8582 30.8208 26.2991C31.6536 27.7442 31.6291 27.683 31.1638 27.487C29.2533 26.6787 25.7017 25.1479 25.5425 25.0622C25.371 24.9764 25.4322 24.658 26.0691 22.3556C26.8651 19.4531 26.8896 19.3919 26.9508 19.4531C26.9753 19.4776 27.7469 20.8493 28.6777 22.5026ZM1.93063 21.4249C2.55522 22.3924 3.74316 24.2171 4.57594 25.4786C5.40873 26.74 6.07005 27.8177 6.03331 27.8667C5.94758 28.0136 2.40826 29.6425 2.33478 29.569C2.29804 29.5322 1.94288 27.4503 1.55098 24.9274C1.14684 22.4169 0.79168 20.2124 0.767187 20.0165C0.730446 19.8328 0.7182 19.6858 0.742693 19.6858C0.767187 19.6858 1.30605 20.4696 1.93063 21.4249ZM36.736 24.7192C36.3564 27.438 36.0257 29.6792 36.0135 29.7037C35.9523 29.8017 32.1802 27.9402 32.168 27.8054C32.168 27.732 32.9395 26.495 33.8825 25.0499C34.8133 23.617 35.9767 21.8168 36.4666 21.0575C36.9442 20.2982 37.3606 19.6981 37.3851 19.7226C37.4096 19.747 37.1157 21.9882 36.736 24.7192ZM16.0145 26.0052C17.4596 26.3848 18.672 26.7277 18.721 26.7767C18.77 26.8135 16.982 27.8054 14.753 28.9689C12.5241 30.1323 10.6871 31.0631 10.6626 31.0386C10.6381 31.0264 11.177 29.6915 11.8628 28.0994C12.6588 26.2379 13.161 25.2091 13.2589 25.2459C13.3324 25.2704 14.5816 25.6133 16.0145 26.0052ZM26.3508 28.1361C26.9876 29.6547 27.502 30.9284 27.4897 30.9651C27.4652 31.0141 26.3018 30.414 24.8811 29.6425C23.4728 28.8709 21.7827 27.9647 21.1459 27.6217C20.509 27.2911 19.8967 26.9359 19.7987 26.8379C19.6518 26.691 19.6518 26.6665 19.86 26.6542C19.9947 26.6542 21.2071 26.3358 22.5543 25.9439C23.9014 25.552 25.0404 25.2704 25.0893 25.3071C25.1383 25.3438 25.7017 26.6175 26.3508 28.1361ZM11.4464 28.43L10.185 31.3448L9.02153 31.8714C8.3847 32.1531 7.01306 32.7899 5.97208 33.2675C4.9311 33.7451 4.04933 34.1125 4.02484 34.0758C4.00034 34.0513 4.50246 32.7287 5.15154 31.1366C5.80062 29.5445 6.32724 28.1973 6.32724 28.1484C6.32724 28.0871 7.08654 27.7197 8.01729 27.3278C8.9358 26.9359 10.3564 26.3358 11.1647 25.9929C11.973 25.6378 12.6466 25.3928 12.6711 25.4296C12.6833 25.4786 12.1322 26.8257 11.4464 28.43ZM28.9226 26.789C30.4044 27.4135 31.6659 27.9647 31.7149 28.0136C31.8373 28.1239 34.2499 34.0513 34.201 34.1125C34.1765 34.1248 33.4294 33.8064 32.5231 33.39C31.6169 32.9858 30.5759 32.5082 30.2085 32.3368C29.8411 32.1776 29.1798 31.8714 28.7389 31.6754L27.9428 31.308L26.7794 28.5403C26.1426 27.0216 25.5792 25.6745 25.5302 25.5398C25.4445 25.3316 25.469 25.3316 25.8364 25.4786C26.0568 25.5765 27.4407 26.1644 28.9226 26.789ZM22.8972 28.8587C24.8689 29.9241 26.7427 30.9284 27.0733 31.0998L27.6612 31.406L23.4973 34.2962C21.2071 35.8883 19.2966 37.1987 19.2476 37.1987C19.1741 37.1987 13.7366 33.5859 11.7403 32.202L10.5891 31.406L11.9853 30.6834C12.7446 30.2793 14.4469 29.3975 15.7573 28.724C17.0677 28.0381 18.3536 27.3523 18.6353 27.1931C18.9047 27.0461 19.1741 26.9114 19.2231 26.9114C19.2721 26.9114 20.9254 27.781 22.8972 28.8587ZM5.93534 28.4668C5.8986 28.5892 5.38423 29.8874 4.78414 31.3693L3.70642 34.0513L3.0206 31.9939C2.6287 30.7937 2.39601 29.9119 2.46949 29.8874C2.54297 29.8629 3.31452 29.4955 4.18404 29.0669C5.06581 28.626 5.82512 28.2708 5.88635 28.2708C5.93534 28.2586 5.95983 28.3566 5.93534 28.4668ZM34.1152 29.1281L35.9523 29.9976L35.2909 31.9081C34.6296 33.7819 34.5439 33.9778 34.4459 33.8799C34.4214 33.8554 33.9928 32.8389 33.5029 31.6264C32.2782 28.5525 32.1557 28.2586 32.2292 28.2586C32.2537 28.2586 33.111 28.6505 34.1152 29.1281ZM9.25422 33.7696C8.83783 34.8474 8.44593 35.7659 8.40919 35.7904C8.26223 35.8761 4.11056 34.4677 4.20854 34.3697C4.34325 34.235 9.9278 31.7122 9.98903 31.7612C10.0135 31.7734 9.68286 32.6797 9.25422 33.7696ZM14.3979 34.2718C16.5288 35.7046 18.3536 36.9416 18.4516 37.0395C18.6108 37.1987 18.5863 37.211 18.2679 37.1498C18.0719 37.113 15.8308 36.8313 13.3079 36.5129C10.7851 36.2068 8.70311 35.9373 8.69087 35.9251C8.66637 35.9128 9.91555 32.7409 10.2462 31.9571C10.3074 31.8101 10.3932 31.6877 10.4422 31.6877C10.4911 31.6877 12.2669 32.8511 14.3979 34.2718ZM28.6777 33.7696C29.1308 34.9208 29.4737 35.8883 29.437 35.9251C29.4002 35.9618 27.453 36.2435 25.1016 36.5374C22.7624 36.8191 20.6193 37.1008 20.3498 37.1375C19.7252 37.2355 19.811 37.1375 21.452 36.0108C22.1256 35.5454 23.4238 34.6514 24.33 34.0146C27.3428 31.9204 27.6857 31.6877 27.7714 31.6877C27.8081 31.6877 28.2245 32.6307 28.6777 33.7696ZM31.1148 33.0226C32.7068 33.7574 34.0417 34.382 34.0662 34.4065C34.1152 34.4555 30.38 35.8026 29.9758 35.8761C29.8778 35.9006 29.6207 35.4474 29.2655 34.5657C28.5919 32.9246 28.1265 31.6877 28.1755 31.6877C28.1878 31.6877 29.5104 32.2878 31.1148 33.0226Z"
        fill="currentColor" stroke="#0B131A" stroke-width="0.1"></path>
</svg>