                        <svg xmlns="http://www.w3.org/2000/svg" width="25" height="25" viewBox="0 0 44 60"
                            fill="none" class="group-hover:text-dark-blue mb-2">
                            <g clip-path="url(#clip0_5606_82)">
                                <path fill-rule="evenodd" clip-rule="evenodd"
                                    d="M20.2904 0.185835C20.1823 0.257916 19.8621 0.317825 19.5789 0.319004C19.2957 0.320053 18.8829 0.376136 18.6615 0.44363C15.3546 1.45212 13.3204 2.38497 12.0668 3.46816C11.9406 3.57733 11.6308 3.81286 11.3785 3.99149C10.7762 4.41808 8.12438 7.07317 7.7143 7.66017C7.53816 7.91246 7.35874 8.14836 7.31575 8.1844C7.27276 8.22044 7.09466 8.45635 6.91983 8.70863C6.74499 8.96092 6.51199 9.26615 6.4019 9.38699C6.29181 9.50782 6.0188 9.92066 5.79521 10.3044C5.5715 10.6881 5.14831 11.415 4.85474 11.9195C4.56104 12.4241 4.19161 13.1318 4.03355 13.4922C3.87563 13.8526 3.60105 14.468 3.42373 14.8597C3.06791 15.6451 1.85 19.2172 1.65577 20.0451C1.53808 20.5471 1.47387 20.8556 1.1516 22.4697C0.193178 27.2699 0.304318 34.4612 1.40402 38.7863C1.58907 39.5142 1.79036 40.3349 1.9264 40.916C2.15457 41.8905 3.12021 44.6226 3.50801 45.3907C3.72596 45.8224 3.98609 46.4132 4.08609 46.7036C4.31203 47.3592 6.60712 51.2028 7.05507 51.6757C7.23606 51.8668 7.53054 52.2295 7.70943 52.4818C8.1317 53.0771 10.7848 55.7299 11.3785 56.1505C11.6308 56.3291 11.9419 56.5647 12.07 56.6738C12.4334 56.9835 14.5276 58.2483 14.6771 58.2483C14.7508 58.2483 14.9677 58.3554 15.159 58.4862C15.5068 58.7239 17.2705 59.3491 18.259 59.5849C21.6537 60.3948 25.7422 59.9973 28.5253 58.587C28.8929 58.4008 29.2485 58.2483 29.3157 58.2483C29.4472 58.2483 31.1909 57.2181 31.2993 57.0763C31.3353 57.0292 31.5712 56.8489 31.8235 56.6757C32.0758 56.5024 32.3117 56.3255 32.3477 56.2825C32.3838 56.2395 32.6197 56.0602 32.872 55.8841C33.4653 55.4697 35.5974 53.3376 36.0121 52.7439C36.1884 52.4916 36.4286 52.1968 36.546 52.0886C37.4179 51.2854 40.1819 46.331 40.9321 44.2265C41.1122 43.7213 41.4148 42.8803 41.6046 42.3576C41.7942 41.835 42.0006 41.1864 42.0633 40.916C42.1258 40.6458 42.2397 40.174 42.3163 39.8675C42.3929 39.5611 42.5108 39.0305 42.5785 38.688C42.646 38.3456 42.7642 37.7558 42.841 37.3774C43.1755 35.7301 43.2552 34.3241 43.2552 30.071C43.2552 25.8057 43.1771 24.4366 42.8368 22.7318C42.5123 21.1069 42.4502 20.8086 42.3313 20.3072C42.1941 19.729 41.8462 18.5593 41.6296 17.9482C41.5529 17.7319 41.2908 16.9792 41.047 16.2752C40.2274 13.9077 37.5071 8.93864 36.546 8.05335C36.4286 7.94522 36.1884 7.65034 36.0121 7.39806C35.4635 6.61302 33.084 4.3173 32.2038 3.724C31.7424 3.41287 31.3335 3.11233 31.2951 3.05598C31.2369 2.9704 30.2508 2.39822 29.1368 1.80348C26.8834 0.600372 21.2213 -0.434984 20.2904 0.185835ZM21.0768 1.14189C21.0768 1.42025 20.6253 2.54435 19.9325 3.99056C19.57 4.74742 18.9198 6.13335 18.4876 7.07041C16.3849 11.629 16.8034 11.3666 15.3526 9.03628C14.9487 8.38754 14.2494 7.29151 13.7985 6.60071C12.7788 5.03824 12.3735 4.25333 12.5147 4.11375C12.7626 3.86828 15.5323 2.2695 15.8345 2.19729C16.0147 2.15417 16.3391 2.02889 16.5553 1.91867C16.7715 1.80845 17.1549 1.67202 17.4072 1.6154C17.6595 1.55879 18.1313 1.44504 18.4556 1.36247C18.78 1.28004 19.4287 1.16865 19.8973 1.11504C20.3658 1.06144 20.8229 1.00822 20.913 0.996817C21.0031 0.985546 21.0768 1.0508 21.0768 1.14189ZM25.074 1.25487C29.9858 2.52101 31.8418 3.9236 30.7864 5.57113C30.4197 6.14345 29.8249 7.08352 29.4645 7.66017C27.036 11.5459 27.5871 11.7127 25.1367 6.3496C24.7579 5.52066 24.3881 4.72449 24.3147 4.58032C24.2413 4.43616 24.1395 4.22974 24.0885 4.12162C24.0375 4.0135 23.7139 3.32859 23.3694 2.59952C22.5792 0.927357 22.8807 0.689486 25.074 1.25487ZM22.7681 3.23698C23.1526 4.04797 23.8801 5.59602 24.3848 6.67724C24.8896 7.75847 25.5903 9.24832 25.9419 9.98801C26.8635 11.9267 27.0319 11.7112 22.8303 13.9712L21.8971 14.4732L20.4713 13.6335C16.9815 11.5785 17.177 11.8397 17.927 10.2337C18.2345 9.57518 18.8403 8.26959 19.273 7.33253C19.7057 6.39547 20.3476 5.02356 20.6994 4.28388C21.0511 3.54419 21.3391 2.86597 21.3394 2.77672C21.3401 2.56008 21.8314 1.76259 21.9643 1.76259C22.022 1.76259 22.3837 2.42613 22.7681 3.23698ZM32.7996 5.25644C33.4237 5.68041 34.5289 6.77409 34.9642 7.39806C35.1402 7.65034 35.3782 7.94522 35.4931 8.05335C35.608 8.16147 35.8439 8.45635 36.0172 8.70863C36.1906 8.96092 36.3695 9.19682 36.4147 9.23286C36.7181 9.47414 37.8579 11.3764 37.7585 11.4758C37.6897 11.5446 35.6412 11.5806 32.9292 11.5608C27.4782 11.521 27.868 11.6675 28.9048 10.0479C29.2611 9.49157 29.8475 8.56447 30.2081 7.98782C31.6374 5.70217 32.154 4.91124 32.219 4.90966C32.2564 4.90875 32.5176 5.0647 32.7996 5.25644ZM12.5709 6.21854C14.8873 9.73547 15.853 11.3251 15.7621 11.4718C15.6649 11.6291 6.30687 11.631 6.20976 11.4738C6.14476 11.3686 7.09375 9.65906 7.30829 9.49498C7.35534 9.45894 7.53566 9.22303 7.70892 8.97075C7.88218 8.71846 8.05911 8.48256 8.10209 8.44652C8.14508 8.41048 8.32331 8.17457 8.49827 7.92229C10.3592 5.23849 11.587 4.72475 12.5709 6.21854ZM16.0404 12.5244C16.0901 12.6048 16.0097 13.0618 15.8619 13.5401C15.714 14.0183 15.5248 14.675 15.4413 14.9994C15.3578 15.3238 15.1793 15.9725 15.0445 16.441C14.9096 16.9096 14.7226 17.5797 14.6289 17.9302C14.4247 18.6936 14.1476 18.9913 13.0833 19.591C12.6402 19.8408 11.8328 20.3283 11.289 20.6746C10.1408 21.4059 10.0625 21.3849 9.55185 20.2088C9.14911 19.2814 8.54453 17.876 8.08622 16.8014C7.29306 14.9417 6.88182 13.9927 6.57986 13.3255C6.40792 12.9455 6.26729 12.5769 6.26729 12.5064C6.26729 12.3156 15.9224 12.3334 16.0404 12.5244ZM37.7211 12.5071C37.7211 12.578 37.5212 13.0646 37.2768 13.5883C37.0325 14.1121 36.6562 14.9535 36.4408 15.4581C35.9987 16.4933 35.414 17.8528 34.8483 19.1605C34.6378 19.6471 34.3965 20.2325 34.3121 20.4616C33.9278 21.5042 34.1466 21.5703 30.1846 19.2137C29.6131 18.8737 29.5068 18.7419 29.3588 18.1892C29.2654 17.8405 29.0788 17.1717 28.9439 16.7031C28.7134 15.9019 28.6016 15.4796 28.2849 14.213C28.2129 13.9247 28.0876 13.4592 28.0064 13.1786C27.9253 12.8979 27.8994 12.603 27.9487 12.5233C28.0665 12.3326 37.7211 12.3166 37.7211 12.5071ZM17.518 12.8857C17.7094 13.0206 18.1902 13.293 18.5867 13.491C18.9831 13.6891 19.6614 14.0629 20.0939 14.3217C20.5263 14.5804 20.8963 14.8008 20.9161 14.8114C21.0798 14.8998 20.6782 15.293 20.119 15.5918C19.7447 15.7918 19.1142 16.1456 18.7177 16.378C15.3168 18.3718 15.2899 18.3777 15.694 17.0401C15.7608 16.8187 15.942 16.1953 16.0966 15.6547C16.2512 15.1141 16.4324 14.4906 16.4992 14.2693C16.5662 14.0479 16.6208 13.7648 16.6208 13.6402C16.6208 13.3905 16.9769 12.6404 17.0954 12.6404C17.1366 12.6404 17.3267 12.7507 17.518 12.8857ZM27.1993 13.3675C27.6648 14.9845 27.8806 15.7581 28.0017 16.2444C28.0736 16.5328 28.2057 17.0196 28.2953 17.3263C28.5728 18.275 28.2406 18.1926 25.7949 16.7054C25.1101 16.289 24.1813 15.7634 23.7307 15.5375C22.6991 15.0201 22.6972 15.0298 23.9928 14.2804C24.5874 13.9365 25.4574 13.4272 25.9259 13.1486C26.9462 12.5419 26.9623 12.5447 27.1993 13.3675ZM5.79496 13.5905C6.09573 14.2554 6.50869 15.2086 7.29988 17.0635C7.79973 18.2355 8.46565 19.7767 8.78032 20.4898C9.07245 21.152 8.97415 21.3388 8.42423 21.1667C7.84601 20.9858 6.28302 20.5452 5.612 20.3739C5.28763 20.2911 4.66064 20.1096 4.21872 19.9704C3.77679 19.8313 3.28834 19.7175 3.1333 19.7175C2.62375 19.7175 3.04641 17.8154 4.11204 15.3126C5.21843 12.7145 5.34176 12.5883 5.79496 13.5905ZM39.2205 14.0892C39.5045 14.6259 39.9079 15.5367 40.1167 16.1134C41.4107 19.686 41.4173 19.7175 40.8551 19.7175C40.7 19.7175 40.2116 19.8313 39.7696 19.9704C39.0214 20.2059 38.62 20.315 37.3607 20.6247C36.7443 20.7763 35.6318 21.1059 35.3303 21.2262C34.874 21.4085 34.9183 20.8913 35.4582 19.7354C36.029 18.5133 36.6041 17.1936 37.0652 16.0478C38.3465 12.8632 38.4984 12.7251 39.2205 14.0892ZM23.7552 16.4591C24.6248 16.9738 25.6605 17.5859 26.057 17.8197C26.4534 18.0536 27.1436 18.4283 27.5906 18.6522C28.6031 19.1597 28.8341 19.4052 29.0468 20.2002C29.1397 20.5473 29.3259 21.2148 29.4608 21.6833C29.5956 22.1518 29.7741 22.8006 29.8576 23.125C29.9411 23.4493 30.118 24.0981 30.2508 24.5666C30.4775 25.3666 30.5677 25.7087 30.9153 27.0894C30.9923 27.3959 31.1693 28.008 31.3084 28.45C31.4475 28.8919 31.5614 29.6213 31.5614 30.071C31.5614 30.5207 31.4475 31.2501 31.3084 31.692C31.1693 32.134 30.9972 32.7315 30.926 33.0198C30.6906 33.9735 30.4952 34.7132 30.2508 35.5754C30.0163 36.4025 29.855 37.0173 29.606 38.0327C28.9325 40.7794 29.0731 40.619 25.5732 42.638C24.6499 43.1707 23.5076 43.8341 23.0348 44.1123C21.9775 44.7346 22.0118 44.7349 20.9208 44.0941C20.43 43.8058 19.6303 43.3424 19.1437 43.0643C15.4341 40.9439 14.9923 40.6233 14.8518 39.9498C14.7471 39.448 14.5554 38.7081 14.2618 37.6723C14.129 37.2038 13.9567 36.5699 13.879 36.2635C13.8011 35.957 13.674 35.4559 13.5961 35.1495C13.5184 34.8431 13.3461 34.2091 13.2133 33.7406C13.0806 33.2721 12.9042 32.6233 12.8213 32.299C12.7385 31.9746 12.5538 31.3386 12.411 30.8857C12.2097 30.2477 12.1801 29.9671 12.2795 29.6406C12.3502 29.4088 12.5253 28.8063 12.6687 28.3017C12.812 27.7971 13.0475 26.9715 13.1921 26.4669C13.3365 25.9623 13.523 25.2841 13.6065 24.9598C13.69 24.6354 13.8669 23.9867 13.9997 23.5181C14.1324 23.0496 14.3087 22.4009 14.3914 22.0765C14.4741 21.7521 14.5967 21.3056 14.6639 21.0842C14.731 20.8629 14.786 20.576 14.786 20.4468C14.786 19.9382 15.345 19.2159 16.0163 18.8573C16.3848 18.6605 17.0107 18.3098 17.4072 18.0781C17.8036 17.8463 18.8357 17.2426 19.7007 16.7364C21.7179 15.5557 21.7622 15.5324 21.9859 15.5276C22.0895 15.5255 22.8856 15.9446 23.7552 16.4591ZM13.9997 20.2651C13.9997 20.3501 13.9446 20.6008 13.8775 20.8221C13.8103 21.0435 13.6878 21.49 13.6051 21.8144C13.5224 22.1387 13.3415 22.8022 13.203 23.2888C13.0646 23.7754 12.8379 24.5714 12.6995 25.058C12.5609 25.5447 12.3799 26.2081 12.2971 26.5324C12.0189 27.6224 11.9688 27.7559 11.8202 27.8053C11.7387 27.8323 11.6391 27.6897 11.5988 27.4882C11.5586 27.2869 11.4631 26.8716 11.3867 26.5652C11.3101 26.2588 11.1885 25.7723 11.1164 25.484C11.0443 25.1957 10.9236 24.7092 10.8483 24.4028C10.7729 24.0963 10.6507 23.6099 10.5766 23.3215C10.2631 22.1002 10.1158 22.2871 12.4925 20.8903C13.8881 20.07 13.9997 20.0237 13.9997 20.2651ZM30.7487 20.4904C31.8839 21.0696 33.5905 22.2049 33.5642 22.3635C33.5486 22.458 33.4776 22.7711 33.4064 23.0594C33.3352 23.3477 33.2154 23.8342 33.1401 24.1406C33.0647 24.4471 32.9404 24.9482 32.8637 25.2546C32.7256 25.8072 32.5365 26.7294 32.3935 27.5481C32.3526 27.7823 32.2783 27.9741 32.2286 27.9741C32.0492 27.9741 31.8235 27.6543 31.8235 27.4002C31.8235 27.2576 31.7688 26.9597 31.7019 26.7383C31.4856 26.0221 31.0618 24.5165 30.9061 23.9113C30.7597 23.342 30.4416 22.2036 30.1137 21.0748C29.8708 20.2383 30.0077 20.1123 30.7487 20.4904ZM3.5713 20.6254C3.9439 20.7379 4.56236 20.9168 6.79152 21.5566C7.26005 21.691 7.92346 21.8758 8.26592 21.9673C8.60837 22.0588 8.88754 22.1651 8.88649 22.2034C8.88229 22.3495 8.67586 22.5589 8.23315 22.8666C7.98087 23.0419 7.33213 23.63 6.79152 24.1734C6.25091 24.7168 5.60217 25.3065 5.34989 25.4837C5.0976 25.6609 4.50784 26.1918 4.03931 26.6635C3.57078 27.1352 2.98102 27.666 2.72874 27.843C2.47645 28.0201 2.13467 28.299 1.96927 28.4627C1.80374 28.6265 1.60884 28.7604 1.5361 28.7604C1.36914 28.7604 1.46507 25.6175 1.66729 24.4683C1.85758 23.386 2.06309 22.1353 2.15693 21.4867C2.28733 20.5862 2.67002 20.3532 3.5713 20.6254ZM41.5423 20.7987C41.6951 21.0788 41.7515 21.3407 42.0566 23.1905C42.3717 25.101 42.4629 25.9035 42.5225 27.286C42.5575 28.097 42.5372 28.7604 42.4775 28.7604C42.2427 28.7604 41.2834 28.0091 40.4733 27.1907C40.0048 26.7175 39.415 26.1852 39.1627 26.0077C38.9104 25.8304 38.2027 25.1819 37.59 24.5666C36.9773 23.9513 36.2696 23.3044 36.0173 23.1289C35.5455 22.8006 35.0994 22.3585 35.1006 22.2203C35.1012 22.1452 36.5583 21.6783 37.6555 21.4017C38.2854 21.2428 39.8858 20.7886 40.3422 20.6391C40.9687 20.4338 41.3726 20.4876 41.5423 20.7987ZM9.82904 23.5286C9.87779 23.8472 9.98093 24.3585 10.0584 24.6649C10.1357 24.9713 10.2607 25.4725 10.3361 25.7789C10.4114 26.0853 10.5267 26.5423 10.5922 26.7946C10.6577 27.0468 10.7757 27.5187 10.8543 27.843C10.9329 28.1674 11.0606 28.6687 11.1379 28.957C11.3629 29.7963 11.3045 30.4985 10.8626 32.2662C10.7859 32.5726 10.6643 33.0591 10.5922 33.3474C10.5201 33.6358 10.4021 34.1076 10.3301 34.3959C10.258 34.6842 10.1357 35.1707 10.0584 35.4771C9.98093 35.7835 9.87779 36.2948 9.82904 36.6134C9.7065 37.4133 9.56089 37.4026 8.67272 36.5281C8.24731 36.1092 7.69425 35.6214 7.44367 35.4442C7.19309 35.2669 6.54579 34.6771 6.00517 34.1338C5.46456 33.5904 4.81583 33.0009 4.56354 32.8238C4.31126 32.6468 3.78035 32.1762 3.38364 31.7779C2.98693 31.3797 2.44147 30.8888 2.17136 30.6868C1.55159 30.2235 1.55144 29.9187 2.17082 29.4552C2.44066 29.2532 3.04523 28.7034 3.51415 28.2333C3.98321 27.7633 4.57337 27.2336 4.82566 27.0562C5.07794 26.8788 5.78565 26.2304 6.39835 25.615C7.01104 24.9997 7.71875 24.3503 7.97104 24.1717C8.22332 23.9932 8.66001 23.6237 8.94139 23.3507C9.56313 22.7475 9.7141 22.7778 9.82904 23.5286ZM35.321 23.6192C35.7436 24.0351 36.2941 24.5206 36.5447 24.6978C36.7953 24.8751 37.4426 25.4649 37.9832 26.0082C38.5238 26.5516 39.1725 27.1411 39.4248 27.3181C39.9535 27.689 42.3081 30.0407 42.3081 30.1979C42.3081 30.2557 42.1489 30.4073 41.9541 30.5349C41.7595 30.6625 41.2139 31.1571 40.7418 31.634C40.2698 32.111 39.6771 32.6461 39.4248 32.8232C39.1725 33.0003 38.5828 33.531 38.1143 34.0027C37.6457 34.4744 37.0577 35.0049 36.8075 35.1819C36.5573 35.3586 35.9458 35.9055 35.4484 36.397C34.4613 37.3723 34.295 37.4172 34.1575 36.7442C34.1072 36.4978 34.0038 36.0456 33.9276 35.7392C33.8516 35.4328 33.7276 34.9317 33.6523 34.6252C33.5769 34.3188 33.4553 33.8323 33.382 33.544C33.3086 33.2557 33.1971 32.7544 33.1341 32.43C33.071 32.1057 32.949 31.5749 32.8628 31.2505C32.7767 30.9261 32.7062 30.3954 32.7062 30.071C32.7062 29.7466 32.7767 29.2158 32.8628 28.8915C32.949 28.5671 33.071 28.0363 33.1341 27.712C33.1971 27.3876 33.3086 26.8863 33.382 26.598C33.4553 26.3096 33.5797 25.8084 33.6583 25.484C33.7369 25.1596 33.855 24.6878 33.9205 24.4355C33.9861 24.1832 34.0766 23.7999 34.1217 23.5837C34.3165 22.6507 34.338 22.6513 35.321 23.6192ZM1.96927 31.6793C2.13467 31.843 2.47645 32.1219 2.72874 32.299C2.98102 32.476 3.57078 33.0068 4.03931 33.4785C4.50784 33.9502 5.0976 34.4811 5.34989 34.6583C5.60217 34.8355 6.25091 35.4252 6.79152 35.9686C7.33213 36.5119 7.98087 37.1001 8.23315 37.2753C8.67233 37.5806 8.8828 37.7932 8.88581 37.9344C8.88647 37.9705 8.43041 38.1368 7.8721 38.304C6.90988 38.5922 6.50712 38.701 5.28436 39.0028C4.99603 39.074 4.39853 39.2461 3.9566 39.3853C2.44433 39.8613 2.42706 39.8439 1.9255 37.3447C1.55579 35.5024 1.28645 31.3816 1.53572 31.3816C1.60872 31.3816 1.80374 31.5155 1.96927 31.6793ZM42.5225 32.856C42.4629 34.2385 42.3717 35.041 42.0566 36.9515C41.5675 39.9175 41.5996 39.8788 40.0318 39.3853C39.2708 39.1457 38.6326 38.9716 37.59 38.7192C36.6007 38.4796 35.1012 37.9956 35.1006 37.9156C35.0995 37.7751 35.7911 37.0931 36.2794 36.7531C36.5317 36.5774 37.0625 36.1065 37.459 35.7065C37.8554 35.3065 38.3862 34.8345 38.6385 34.6576C38.8908 34.4808 39.4805 33.9502 39.9491 33.4785C40.4176 33.0068 41.0073 32.476 41.2596 32.299C41.5119 32.1219 41.8537 31.843 42.0191 31.6793C42.5391 31.1647 42.5903 31.2841 42.5225 32.856ZM32.3935 32.5939C32.6003 33.7778 32.7285 34.3638 33.146 36.0341C33.2181 36.3224 33.3259 36.7648 33.3857 37.017C33.4454 37.2693 33.5352 37.5728 33.5852 37.6916C33.68 37.9171 33.6039 37.9711 31.2577 39.3382C30.058 40.0374 29.8437 39.9902 30.1078 39.0851C30.4238 38.0021 30.7559 36.8147 30.9061 36.2307C31.0618 35.6255 31.4856 34.1199 31.7019 33.4036C31.7688 33.1823 31.8235 32.8844 31.8235 32.7418C31.8235 32.4877 32.0492 32.1679 32.2286 32.1679C32.2783 32.1679 32.3526 32.3597 32.3935 32.5939ZM12.0568 32.7029C12.1055 32.8772 12.263 33.4326 12.4069 33.9372C12.5507 34.4418 12.7367 35.12 12.8202 35.4444C12.9036 35.7687 13.0806 36.4175 13.2133 36.886C13.3461 37.3545 13.5184 37.9884 13.5961 38.2948C13.674 38.6013 13.8061 39.088 13.8899 39.3767C14.1032 40.1126 14.0288 40.1192 12.8676 39.4668C10.1296 37.9285 10.2268 38.0164 10.4416 37.275C10.5244 36.9889 10.6512 36.519 10.7232 36.2307C10.7953 35.9424 10.9181 35.4559 10.9962 35.1495C11.0742 34.8431 11.1961 34.3566 11.2671 34.0682C11.3382 33.7799 11.4513 33.3629 11.5185 33.1415C11.5856 32.9202 11.6406 32.6351 11.6406 32.5081C11.6406 32.1794 11.9513 32.3247 12.0568 32.7029ZM8.94872 38.9744C8.99026 39.0418 8.91229 39.3513 8.77533 39.6624C8.63838 39.9734 8.34231 40.6555 8.11755 41.1781C7.89278 41.7008 7.5249 42.5558 7.29988 43.0784C7.07498 43.6011 6.71432 44.4414 6.49846 44.946C5.33979 47.6552 5.39194 47.6147 4.77296 46.2894C3.20053 42.9226 2.50213 40.4245 3.1333 40.4245C3.28834 40.4245 3.77679 40.3107 4.21872 40.1716C4.66064 40.0324 5.28763 39.8509 5.612 39.7681C6.31696 39.5881 7.90564 39.1373 8.36421 38.9871C8.82225 38.837 8.86327 38.8361 8.94872 38.9744ZM34.0365 39.1902C34.1829 39.3765 34.3377 39.6565 34.3804 39.8128C34.4787 40.1721 34.8585 41.0982 35.4915 42.5215C35.764 43.1341 36.1772 44.0778 36.4097 44.6184C36.6423 45.159 37.0325 46.0299 37.2768 46.5537C37.5212 47.0774 37.7211 47.564 37.7211 47.6349C37.7211 47.8254 28.0665 47.8094 27.9487 47.6187C27.8994 47.539 27.9253 47.2441 28.0064 46.9634C28.0876 46.6828 28.2175 46.2026 28.2953 45.8962C28.373 45.5898 28.5454 44.9558 28.6781 44.4873C28.8109 44.0188 28.9799 43.3995 29.0539 43.1112C29.5224 41.2811 29.4916 41.3405 30.1846 40.9279C30.5454 40.7131 31.4598 40.1642 32.2167 39.7083C33.8432 38.7282 33.7042 38.7678 34.0365 39.1902ZM36.2139 39.2018C36.8336 39.3859 37.2088 39.4849 38.4419 39.7892C38.7302 39.8603 39.3277 40.0324 39.7696 40.1716C40.2116 40.3107 40.6946 40.4245 40.8431 40.4245C41.2033 40.4245 41.2747 40.5724 41.1346 41.0278C41.0704 41.2367 40.8929 41.8203 40.7403 42.3249C40.4357 43.3318 40.1764 43.9879 39.4197 45.6668C39.1437 46.2795 38.8863 46.884 38.8478 47.0102C38.6756 47.5746 38.3546 47.0622 37.2271 44.4218C36.3282 42.3166 35.9594 41.4795 35.4582 40.4066C34.9183 39.2507 34.874 38.7335 35.3303 38.9158C35.4559 38.9659 35.8535 39.0946 36.2139 39.2018ZM11.3827 39.554C11.921 39.8681 12.8481 40.4072 13.4427 40.7522C14.2377 41.2132 14.5239 41.4499 14.5239 41.6463C14.5239 41.793 14.5786 42.0942 14.6455 42.3156C14.8766 43.0807 15.2901 44.5548 15.4202 45.0771C15.7224 46.2905 15.8573 46.8022 15.9695 47.1605C16.0349 47.3693 16.0573 47.5904 16.0191 47.652C15.9208 47.8111 6.26729 47.7964 6.26729 47.6371C6.26729 47.4997 6.42732 47.1099 7.18418 45.4047C7.73908 44.1542 8.59879 42.1608 9.47308 40.0969C10.0246 38.7952 10.0634 38.7842 11.3827 39.554ZM16.4819 42.5039C16.9548 42.7826 17.8014 43.2691 18.3634 43.5851C21.2986 45.2356 21.2491 45.1617 19.9256 45.9137C19.3694 46.2297 18.5088 46.7275 18.0133 47.0199C17.0259 47.6025 16.8455 47.5615 16.6742 46.7153C16.5504 46.104 16.2085 44.8441 15.6476 42.9323C15.3148 41.7983 15.2987 41.8067 16.4819 42.5039ZM28.416 42.2828C28.416 42.3677 28.361 42.6184 28.2939 42.8398C28.2266 43.0611 28.1041 43.5077 28.0214 43.832C27.9387 44.1564 27.7624 44.8051 27.6297 45.2737C27.4969 45.7422 27.3143 46.3909 27.224 46.7153C26.9826 47.5824 26.9436 47.5909 25.9329 46.9967C25.4245 46.6977 24.581 46.206 24.0583 45.9038C23.5357 45.6017 23.0921 45.3447 23.0723 45.3328C22.9137 45.2371 23.3071 44.8506 23.8694 44.55C24.2437 44.3497 25.1101 43.8484 25.7949 43.4358C27.8912 42.1726 28.416 41.9418 28.416 42.2828ZM22.715 46.1251C23.1475 46.3755 23.9437 46.8115 24.4843 47.0939C26.8504 48.3304 26.8324 48.2858 25.8103 50.4164C25.3863 51.3001 24.6858 52.7898 24.2535 53.7269C22.0773 58.444 21.9718 58.6271 21.7271 58.1094C21.6779 58.0056 21.2685 57.1245 20.817 56.1514C20.3657 55.1783 19.5972 53.527 19.1091 52.4818C17.0739 48.1225 17.1444 48.5234 18.2885 47.8156C22.146 45.4292 21.7644 45.575 22.715 46.1251ZM15.7621 48.6701C15.8336 48.7857 15.2291 49.8325 13.9774 51.761C12.8085 53.5619 11.9202 54.9853 11.8684 55.1404C11.7493 55.498 10.1208 54.1071 8.75738 52.483C8.5051 52.1825 8.23774 51.8677 8.1633 51.7833C8.08886 51.699 7.88531 51.4235 7.71087 51.1712C7.53657 50.919 7.35534 50.6831 7.30829 50.647C7.09375 50.4829 6.14476 48.7734 6.20976 48.6682C6.30687 48.511 15.6649 48.5129 15.7621 48.6701ZM37.7848 48.6783C37.8511 48.7855 36.673 50.7038 36.4147 50.9091C36.3695 50.9452 36.1906 51.1811 36.0172 51.4334C35.8439 51.6856 35.608 51.9805 35.4931 52.0886C35.3782 52.1968 35.1402 52.4916 34.9642 52.7439C34.1973 53.8434 32.2994 55.4403 32.1083 55.147C31.7758 54.6367 30.7583 53.0328 30.2095 52.1542C29.8494 51.5775 29.3082 50.7224 29.0069 50.2538C28.2611 49.0944 28.1285 48.8283 28.2211 48.6784C28.3287 48.5044 37.6772 48.5041 37.7848 48.6783ZM17.2279 50.3521C17.4886 50.9107 18.0554 52.1345 18.4876 53.0716C18.9198 54.0086 19.5612 55.3805 19.913 56.1202C20.2648 56.8599 20.5526 57.5291 20.5526 57.6072C20.5526 57.6853 20.6744 57.9203 20.8234 58.1296C21.1724 58.6198 21.1282 59.2509 20.7491 59.1874C20.605 59.1631 20.1627 59.0939 19.7662 59.0335C18.4572 58.8339 17.546 58.5612 15.5068 57.7583C14.9253 57.5294 12.7994 56.2978 12.5147 56.0248C12.3865 55.902 12.7625 55.1317 13.5361 53.9322C13.8413 53.4588 14.5409 52.3639 15.0906 51.4989C16.7571 48.8766 16.5831 48.97 17.2279 50.3521ZM27.9451 50.0649C28.2112 50.4655 28.7872 51.3944 29.225 52.129C29.663 52.8637 30.0695 53.4955 30.1284 53.5333C30.2323 53.5999 31.4303 55.7036 31.4303 55.8196C31.4303 56.2324 28.2015 57.967 26.4501 58.4951C25.9095 58.6582 25.2861 58.8462 25.0647 58.9131C24.8434 58.98 24.3825 59.0347 24.0404 59.0347C23.6985 59.0347 23.2982 59.0992 23.151 59.1779C22.5901 59.4781 22.6246 59.0887 23.2809 57.7094C23.6371 56.9606 24.2965 55.5518 24.7461 54.5787C27.4004 48.834 27.2597 49.0325 27.9451 50.0649Z"
                                    fill="currentColor"></path>
                            </g>
                            <defs>
                                <clipPath id="clip0_5606_82">
                                    <rect width="43" height="60" fill="white" transform="translate(0.5)">
                                    </rect>
                                </clipPath>
                            </defs>
                        </svg>