<?xml version="1.0" standalone="no"?>
<!DOCTYPE svg PUBLIC "-//W3C//DTD SVG 20010904//EN"
 "http://www.w3.org/TR/2001/REC-SVG-20010904/DTD/svg10.dtd">
<svg version="1.0" xmlns="http://www.w3.org/2000/svg"
 width="512.000000pt" height="512.000000pt" viewBox="0 0 512.000000 512.000000"
 preserveAspectRatio="xMidYMid meet">

<g transform="translate(0.000000,512.000000) scale(0.100000,-0.100000)"
fill="#000000" stroke="none">
<path d="M1265 4299 c-534 -308 -978 -569 -987 -581 -17 -19 -18 -89 -18
-1162 l0 -1143 22 -20 c44 -39 1943 -1128 1974 -1131 25 -3 60 13 165 74 344
199 462 266 475 271 8 3 41 -20 81 -57 124 -116 286 -205 468 -257 94 -26 111
-28 285 -27 166 0 195 3 280 26 317 86 590 309 737 603 142 283 149 638 20
941 -78 185 -244 383 -414 495 l-83 54 0 647 c0 450 -3 654 -11 671 -8 18
-230 151 -813 488 -440 254 -881 509 -978 566 -112 65 -187 103 -205 103 -20
0 -336 -178 -998 -561z m1245 264 c132 -76 238 -142 237 -146 -1 -5 -413 -245
-914 -534 -664 -383 -914 -532 -922 -550 -7 -16 -11 -121 -11 -302 0 -251 2
-281 18 -300 24 -30 672 -401 700 -401 13 0 34 11 47 25 l25 24 0 258 1 258
382 219 c210 121 622 359 915 528 293 170 539 311 547 315 8 3 141 -67 300
-158 l284 -164 1 -594 c0 -561 -1 -593 -17 -586 -242 92 -568 79 -824 -34
-427 -188 -706 -637 -675 -1086 15 -211 69 -380 181 -562 14 -23 22 -44 18
-46 -319 -188 -538 -307 -551 -302 -9 3 -428 243 -929 533 l-913 527 0 1075 0
1075 922 533 c507 292 926 532 931 532 4 0 116 -62 247 -137z m641 -370 c131
-76 239 -140 239 -143 0 -5 -201 -122 -1325 -770 -269 -155 -498 -291 -507
-302 -16 -18 -18 -44 -18 -229 0 -115 -3 -209 -7 -209 -3 0 -114 62 -245 138
l-238 137 2 224 3 224 735 424 c404 234 818 473 920 533 102 59 189 108 194
109 4 1 116 -61 247 -136z m740 -1838 c323 -56 586 -255 723 -546 73 -154 91
-236 91 -424 0 -191 -18 -273 -95 -430 -94 -193 -251 -349 -445 -445 -165 -81
-229 -95 -435 -95 -153 0 -185 3 -255 23 -221 64 -427 211 -555 397 -52 75
-118 224 -142 321 -32 129 -32 353 0 474 47 177 162 367 293 484 225 202 531
292 820 241z"/>
<path d="M3676 2188 c-14 -19 -16 -72 -16 -375 l0 -353 -214 0 c-201 0 -215
-1 -240 -21 -31 -25 -34 -66 -7 -100 19 -24 19 -24 284 -27 l265 -3 28 25 29
24 0 405 c0 384 -1 406 -19 426 -27 30 -89 29 -110 -1z"/>
</g>
</svg>
