                            <svg xmlns="http://www.w3.org/2000/svg" width="25" height="25" viewBox="0 0 48 60"
                                fill="none" class="group-hover:text-dark-blue mb-2">
                                <g clip-path="url(#clip0_5606_70)">
                                    <path fill-rule="evenodd" clip-rule="evenodd"
                                        d="M3.58071 3.08071L0.5 6.1614V30V53.8386L3.58071 56.9193L6.6614 60H23.9498H41.2382L44.3188 56.9193L47.3996 53.8386V30V6.1614L44.3188 3.08071L41.2382 0H23.9498H6.6614L3.58071 3.08071ZM38.5933 0.949782C38.5289 1.15795 37.5145 1.64988 32.9891 3.66787C32.3046 3.97298 31.0076 4.56275 30.107 4.97817C29.2063 5.39358 27.9389 5.96921 27.2904 6.25715C26.6419 6.54523 25.626 7.00559 25.0328 7.28018L23.9542 7.77957L23.1332 7.41275C22.6817 7.211 21.6784 6.75761 20.9039 6.40508C16.9768 4.61792 16.771 4.52528 13.0437 2.86703C12.3771 2.57044 11.3447 2.09882 10.7491 1.819C10.1537 1.53904 9.58239 1.31004 9.47956 1.31004C9.24977 1.31004 9.10253 1.09389 9.21179 0.917031C9.34214 0.706114 38.6587 0.738734 38.5933 0.949782ZM6.81479 1.5393C6.92378 1.66546 7.24883 2.2107 7.53691 2.75109C7.82499 3.29148 8.37272 4.29367 8.7542 4.97817C9.13569 5.66266 9.84217 6.95961 10.3244 7.86026C10.8065 8.76092 11.3934 9.84027 11.6287 10.2588C12.2363 11.3399 12.1755 11.3308 9.23904 9.90222C7.78293 9.19388 5.619 8.14403 4.43013 7.56918C1.21332 6.0135 1.25 6.46087 4.10537 3.60537C6.54978 1.16096 6.51243 1.18952 6.81479 1.5393ZM43.7942 3.60537C46.5826 6.3938 46.5383 6.12499 44.3741 7.12416C43.7685 7.40373 43.1698 7.68368 43.0437 7.74643C42.9175 7.80905 42.7113 7.91045 42.5852 7.97176C42.459 8.0332 40.929 8.78253 39.1848 9.63707C35.2198 11.5797 35.3546 11.9114 38.0629 6.87773C38.5669 5.94105 39.3319 4.51401 39.7632 3.70663C41.3253 0.782351 40.9798 0.791004 43.7942 3.60537ZM9.57061 2.14689C10.382 2.53506 11.6059 3.10219 12.2904 3.40704C12.9749 3.71189 14.1539 4.24205 14.9105 4.58515C15.667 4.92825 16.8461 5.45882 17.5306 5.76419C19.1941 6.50633 21.5508 7.57639 22.107 7.84206C22.7725 8.15988 22.7235 8.28904 21.8195 8.59966C21.37 8.75424 20.5158 9.06367 19.9214 9.28743C19.327 9.51118 18.3837 9.86502 17.8253 10.0737C17.267 10.2824 16.4858 10.584 16.0895 10.7438C13.2622 11.8843 13.4193 11.9086 12.5178 10.1936C12.1272 9.45066 11.4952 8.28275 11.1133 7.59825C10.7313 6.91376 10.0814 5.73472 9.66899 4.97817C9.25659 4.22162 8.67715 3.16048 8.38121 2.62009C7.58562 1.16725 7.55157 1.18087 9.57061 2.14689ZM40.0633 1.54637C40.0633 1.6044 39.884 1.93467 39.6647 2.28039C39.4454 2.62624 38.9438 3.53673 38.55 4.30389C38.1562 5.07105 37.5409 6.19978 37.183 6.81223C36.825 7.42467 36.1472 8.66266 35.6766 9.56332C34.4283 11.9532 34.6881 11.785 33.0911 11.2369C32.3506 10.9827 31.4203 10.6435 31.024 10.483C30.6277 10.3225 29.8319 10.0153 29.2555 9.80044C28.679 9.58547 27.7358 9.23188 27.1594 9.0148C26.583 8.7976 25.9197 8.55236 25.6853 8.46996C25.4511 8.38756 25.2782 8.26073 25.3012 8.18841C25.3549 8.01902 25.141 8.11978 33.5458 4.30702C36.699 2.87659 37.946 2.30528 38.8188 1.89144C39.7586 1.44576 40.0633 1.36126 40.0633 1.54637ZM3.74105 8.13839C13.711 12.9224 12.8344 12.2714 12.2757 14.476C12.2027 14.7642 12.0914 15.2653 12.0284 15.5895C11.9654 15.9138 11.8475 16.4443 11.7664 16.7686C11.6853 17.0928 11.5674 17.6234 11.5044 17.9476C11.4414 18.2718 11.3234 18.8024 11.2424 19.1266C11.1613 19.4509 11.0434 19.9814 10.9803 20.3057C10.9173 20.6299 10.8031 21.1457 10.7266 21.452C10.65 21.7583 10.5247 22.2592 10.4481 22.5655C10.3716 22.8718 10.2573 23.3876 10.1943 23.7118C10.1313 24.036 10.0134 24.5666 9.93231 24.8908C9.85122 25.2151 9.73332 25.7456 9.67031 26.0699C9.17563 28.6145 9.14132 28.623 8.36237 26.3974C8.05975 25.5328 7.40497 23.6611 6.90716 22.238C6.40947 20.8149 5.58454 18.4568 5.07415 16.9978C4.56363 15.5388 3.73659 13.1365 3.23628 11.6594C2.73585 10.1823 2.20227 8.69816 2.05043 8.36135C1.50519 7.15126 1.64524 7.1328 3.74105 8.13839ZM46.0075 7.44051C46.0783 7.55501 46.0446 7.65393 42.0396 19.0939C41.0908 21.8042 39.7906 25.4933 39.2347 27.0524C38.8528 28.1235 38.5965 28.2331 38.4681 27.3799C38.4193 27.0557 38.3162 26.5399 38.2388 26.2336C37.8841 24.8285 37.8125 24.5259 37.7052 23.9738C37.6422 23.6496 37.5243 23.119 37.4432 22.7948C37.3621 22.4705 37.2442 21.94 37.1812 21.6157C37.0721 21.0541 36.9393 20.4882 36.6431 19.3231C36.5697 19.0349 36.4582 18.5338 36.3952 18.2096C36.3322 17.8854 36.2143 17.3548 36.1332 17.0306C36.0521 16.7063 35.9342 16.1758 35.8712 15.8515C35.8082 15.5273 35.6905 14.9967 35.6098 14.6725C35.0304 12.3447 34.5985 12.8035 39.7594 10.2658C45.9879 7.20328 45.8886 7.2482 46.0075 7.44051ZM24.4645 8.83793C24.6685 8.94339 25.0634 9.11515 25.3423 9.21956C25.6211 9.32397 26.321 9.58637 26.8974 9.80252C28.8766 10.5449 30.1737 11.0283 30.9258 11.3037C32.1998 11.7702 31.9112 11.7904 23.9498 11.7904C19.6987 11.7904 16.2205 11.7444 16.2205 11.6881C16.2205 11.577 16.5216 11.4439 18.1201 10.8482C18.6965 10.6334 19.6251 10.2859 20.1834 10.0759C20.7417 9.86608 21.6556 9.529 22.214 9.32699C22.7723 9.12498 23.3472 8.89101 23.4913 8.80691C23.84 8.60372 24.0226 8.60946 24.4645 8.83793ZM46.6135 30C46.6135 41.3843 46.5664 50.6987 46.5087 50.6987C46.3042 50.6987 46.0895 50.38 46.0895 50.0764C46.0895 49.9072 46.0035 49.6023 45.8983 49.3988C45.7932 49.1955 45.327 47.9161 44.8623 46.5561C44.3976 45.1958 43.6653 43.0808 43.2348 41.8559C42.4501 39.6225 42.25 39.0494 42.0003 38.3188C41.9264 38.1026 41.4551 36.7467 40.953 35.3057C40.4507 33.8646 39.8305 32.0813 39.5745 31.3428L39.1092 30L39.5745 28.6572C39.8305 27.9187 40.4507 26.1354 40.953 24.6943C41.4551 23.2533 41.9264 21.8974 42.0003 21.6812C42.2509 20.9479 42.451 20.3747 43.2349 18.1441C43.6654 16.9192 44.4995 14.5022 45.0884 12.7729C46.1971 9.51707 46.2842 9.30131 46.4903 9.30131C46.5668 9.30131 46.6135 17.1537 46.6135 30ZM2.24694 11.3422C2.59528 12.3453 3.28803 14.3302 3.78624 15.7533C4.28445 17.1764 5.11006 19.5345 5.62084 20.9935C6.13163 22.4524 6.92994 24.7592 7.39474 26.1194C7.85955 27.4795 8.32594 28.7588 8.43101 28.9622C8.53621 29.1656 8.62227 29.6325 8.62227 30C8.62227 30.3675 8.53621 30.8344 8.43101 31.0378C8.32594 31.2411 7.85955 32.5205 7.39474 33.8806C6.54518 36.3668 5.40559 39.635 3.90599 43.8865C3.46123 45.1474 2.7635 47.1471 2.35543 48.3302C1.94735 49.5135 1.53991 50.5058 1.44978 50.5356C1.3193 50.5785 1.28603 46.413 1.28603 30C1.28603 13.5869 1.3193 9.42145 1.44978 9.46455C1.53991 9.49429 1.8986 10.3393 2.24694 11.3422ZM34.0829 12.8166C34.2833 13.0379 34.2975 14.3883 34.2669 30.2074L34.2336 47.3581H23.9498H13.6659L13.6323 30.131C13.6137 20.6561 13.6266 12.8303 13.6608 12.7402C13.7774 12.434 33.8045 12.509 34.0829 12.8166ZM12.8144 30C12.8144 42.139 12.7648 44.1424 12.4968 42.8057C12.4498 42.5716 12.3585 42.1146 12.2937 41.7904C12.1807 41.2255 12.041 40.6335 11.7522 39.4978C11.6789 39.2096 11.5674 38.7085 11.5044 38.3843C11.4414 38.06 11.3234 37.5295 11.2424 37.2052C11.1613 36.881 11.0434 36.3504 10.9803 36.0262C10.9173 35.702 10.7994 35.1714 10.7183 34.8472C10.6372 34.5229 10.5193 33.9924 10.4563 33.6681C10.3367 33.0532 10.168 32.3517 9.91255 31.4083C9.71617 30.6829 9.7201 29.3031 9.9208 28.559C10.0082 28.2347 10.1313 27.7041 10.1943 27.3799C10.2573 27.0557 10.3716 26.5399 10.4481 26.2336C10.5247 25.9273 10.65 25.4264 10.7266 25.1201C10.8031 24.8138 10.9173 24.298 10.9803 23.9738C11.0434 23.6496 11.1613 23.119 11.2424 22.7948C11.3234 22.4705 11.4414 21.94 11.5044 21.6157C11.5674 21.2915 11.6853 20.7609 11.7664 20.4367C11.8475 20.1124 11.9654 19.5819 12.0284 19.2576C12.0914 18.9334 12.2093 18.4028 12.2903 18.0786C12.3712 17.7544 12.47 17.3269 12.5098 17.1288C12.7633 15.8657 12.8144 18.0232 12.8144 30ZM35.3883 17.2598C35.426 17.5301 35.5243 18.0164 35.6067 18.3406C35.6891 18.6648 35.8082 19.1954 35.8712 19.5196C35.9342 19.8439 36.0521 20.3745 36.1332 20.6987C36.2143 21.0229 36.3322 21.5535 36.3952 21.8777C36.4582 22.202 36.5697 22.7031 36.6431 22.9913C36.9393 24.1563 37.0721 24.7222 37.1812 25.2838C37.2442 25.6081 37.3621 26.1386 37.4432 26.4629C37.5243 26.7871 37.6422 27.3177 37.7052 27.6419C37.7683 27.9662 37.8902 28.4967 37.9764 28.821C38.0625 29.1452 38.133 29.6758 38.133 30C38.133 30.3242 38.0625 30.8548 37.9764 31.179C37.8902 31.5033 37.7683 32.0338 37.7052 32.3581C37.6422 32.6823 37.528 33.1981 37.4515 33.5044C37.3748 33.8107 37.2496 34.3116 37.173 34.6179C37.0965 34.9242 36.9822 35.44 36.9192 35.7642C36.8562 36.0884 36.7383 36.619 36.6572 36.9432C36.5761 37.2675 36.4582 37.798 36.3952 38.1223C36.3322 38.4465 36.2143 38.9771 36.1332 39.3013C36.0521 39.6255 35.9342 40.1561 35.8712 40.4803C35.8082 40.8046 35.6891 41.3352 35.6067 41.6594C35.5243 41.9836 35.426 42.47 35.3883 42.7402C35.1454 44.4794 35.0852 41.9475 35.0852 30C35.0852 18.0525 35.1454 15.5206 35.3883 17.2598ZM9.2258 32.1187C9.32038 32.2719 9.45284 32.8114 9.67031 33.9301C9.73332 34.2544 9.85122 34.7849 9.93231 35.1092C10.0134 35.4334 10.1313 35.964 10.1943 36.2882C10.2573 36.6124 10.3752 37.143 10.4563 37.4672C10.5374 37.7915 10.6553 38.3221 10.7183 38.6463C10.7814 38.9705 10.8956 39.4863 10.9721 39.7926C11.0487 40.0989 11.174 40.5998 11.2506 40.9061C11.3271 41.2124 11.4414 41.7282 11.5044 42.0524C11.5674 42.3766 11.6853 42.9072 11.7664 43.2314C11.8475 43.5557 11.9654 44.0862 12.0284 44.4105C12.0914 44.7347 12.2117 45.2653 12.2956 45.5895C12.3796 45.9138 12.4771 46.4861 12.5122 46.8614L12.576 47.5437L10.2389 48.6825C8.95346 49.3087 7.75437 49.903 7.57424 50.003C7.3941 50.103 6.80458 50.3972 6.26419 50.6568C5.7238 50.9163 5.17856 51.1794 5.0524 51.2412C4.92624 51.303 4.72004 51.4043 4.59389 51.466C1.33895 53.0599 1.42933 53.5649 3.75937 46.8013C3.84007 46.5672 3.97216 46.1839 4.05285 45.9498C4.34106 45.1133 6.01791 40.3043 6.90796 37.762C7.40617 36.3389 8.06536 34.4526 8.37283 33.5699C8.92004 31.9994 9.03309 31.807 9.2258 32.1187ZM39.0038 32.2055C39.0745 32.3378 39.5723 33.7378 40.1101 35.3168C40.6479 36.8958 41.5057 39.3816 42.0166 40.8406C46.0337 52.3141 46.0783 52.445 46.0075 52.5595C45.8959 52.7401 45.5124 52.6676 45.1725 52.4017C44.9924 52.2608 44.7709 52.1442 44.6804 52.1426C44.4692 52.1389 35.3914 47.6012 35.3004 47.4538C35.2244 47.3308 35.3837 46.2362 35.6098 45.3275C35.6905 45.0033 35.8082 44.4727 35.8712 44.1485C35.9342 43.8242 36.0484 43.3085 36.1249 43.0022C36.2016 42.6959 36.3268 42.1949 36.4034 41.8886C36.48 41.5824 36.5942 41.0666 36.6572 40.7424C36.7202 40.4181 36.8381 39.8876 36.9192 39.5633C37.0003 39.2391 37.1182 38.7085 37.1812 38.3843C37.2442 38.06 37.3621 37.5295 37.4432 37.2052C37.5243 36.881 37.6422 36.3504 37.7052 36.0262C37.8124 35.4747 37.8812 35.1838 38.2387 33.7664C38.316 33.4601 38.4085 33.0033 38.4442 32.7511C38.5645 31.9026 38.7466 31.7249 39.0038 32.2055ZM31.679 48.3151C31.679 48.373 31.34 48.5435 30.9258 48.6941C30.5115 48.8445 29.8483 49.098 29.452 49.2573C28.6671 49.5727 27.2183 50.1175 25.9803 50.5626C25.548 50.7179 24.9212 50.9665 24.5874 51.1146L23.9806 51.3841L23.2118 51.0941C22.7891 50.9345 22.0011 50.6391 21.4607 50.4375C20.9203 50.2359 20.1539 49.9407 19.7576 49.7817C19.3614 49.6226 18.595 49.3279 18.0546 49.1269C16.5292 48.5592 16.2205 48.4221 16.2205 48.3119C16.2205 48.2556 19.6987 48.2096 23.9498 48.2096C28.2009 48.2096 31.679 48.257 31.679 48.3151ZM14.5175 48.6586C14.9858 48.8274 15.6932 49.0964 16.0895 49.2562C16.4858 49.416 17.267 49.7176 17.8253 49.9263C18.3837 50.135 19.327 50.4876 19.9214 50.7101C20.5158 50.9327 21.2326 51.2008 21.5143 51.3062C22.6674 51.7375 22.7601 51.9063 22.0175 52.2215C21.7473 52.3362 20.8924 52.7185 20.1179 53.0709C17.1259 54.4324 15.8485 55.0104 14.6485 55.5458C12.8384 56.3535 10.6794 57.3372 9.4391 57.9195C7.78569 58.696 7.68153 58.6256 8.4462 57.2489C8.70625 56.7806 9.21439 55.8668 9.57544 55.2183C10.499 53.5593 11.6994 51.352 12.3896 50.0437C13.4265 48.0783 13.2414 48.1987 14.5175 48.6586ZM34.6896 48.6354C34.7951 48.7976 35.2727 49.667 35.7512 50.5677C36.2296 51.4683 36.9906 52.8832 37.4422 53.7118C37.8939 54.5404 38.6012 55.8507 39.0138 56.6238C39.4266 57.3967 39.84 58.1202 39.9324 58.2317C40.2703 58.6386 39.9021 58.5973 38.8485 58.11C38.2557 57.8358 37.1517 57.3308 36.3952 56.9878C35.6386 56.6449 34.3712 56.0692 33.5786 55.7087C32.786 55.348 31.5775 54.8032 30.893 54.4978C24.6627 51.7182 24.833 51.8277 26.08 51.4026C26.5295 51.2493 27.2216 50.9927 27.6179 50.8322C28.0142 50.6717 28.7954 50.3697 29.3537 50.161C29.9121 49.9524 30.8554 49.5991 31.4498 49.3758C34.586 48.1984 34.4289 48.2342 34.6896 48.6354ZM12.026 48.9629C12.0247 49.0169 11.8387 49.3854 11.6126 49.7817C11.1408 50.6087 10.0259 52.6539 8.7559 55.0218C6.99887 58.298 6.75886 58.69 6.51021 58.69C6.372 58.69 1.67904 54.0082 1.67904 53.8704C1.67904 53.8128 2.22428 53.5117 2.89083 53.2015C3.55738 52.8912 4.32376 52.5253 4.59389 52.3885C7.58039 50.8762 11.7095 48.8792 11.8646 48.8721C11.9548 48.868 12.0273 48.9089 12.026 48.9629ZM39.9323 50.7642C42.0209 51.809 43.7947 52.6638 43.8741 52.6638C43.9535 52.6638 44.175 52.773 44.3663 52.9066C44.5575 53.0403 44.8664 53.1863 45.053 53.2313C46.1735 53.5017 46.2587 53.9253 45.3647 54.7841C44.5238 55.592 44.6508 55.4645 42.8731 57.2817C41.1099 59.0838 41.272 59.144 39.6621 56.0885C39.1822 55.1776 38.4193 53.7544 37.967 52.9258C35.8029 48.9614 35.7562 48.8646 36.0031 48.8646C36.0756 48.8646 37.8437 49.7194 39.9323 50.7642ZM25.4216 52.9107C26.0172 53.1905 27.0496 53.6621 27.7162 53.9587C28.3827 54.2552 29.4732 54.7406 30.1397 55.0372C30.8063 55.3337 32.0884 55.9162 32.9891 56.3314C33.8897 56.7465 35.3046 57.3946 36.1332 57.7716C38.3973 58.8016 38.5348 58.8731 38.5916 59.0502C38.6334 59.1806 35.635 59.214 23.8952 59.214C14.0787 59.214 9.14629 59.1698 9.14629 59.082C9.14629 58.9514 10.1407 58.4543 12.5524 57.3794C13.2369 57.0743 14.4307 56.5369 15.2052 56.1853C15.9797 55.8335 17.2473 55.2582 18.0218 54.9064C18.7963 54.5548 19.9902 54.0172 20.6747 53.7118C21.3592 53.4064 22.2729 52.9902 22.7052 52.787C23.7564 52.2929 24.1449 52.3106 25.4216 52.9107Z"
                                        fill="currentColor"></path>
                                </g>
                                <defs>
                                    <clipPath id="clip0_5606_70">
                                        <rect width="47" height="60" fill="white" transform="translate(0.5)">
                                        </rect>
                                    </clipPath>
                                </defs>
                            </svg>