<svg xmlns="http://www.w3.org/2000/svg" width="25" height="25" viewBox="0 0 60 60"
    fill="none" class="group-hover:text-dark-blue mb-2">
    <path
        d="M60 30.09C59.6 31.61 59.19 33.19 58.77 34.78C58.01 37.61 57.17 40.43 56.52 43.28C56.044 44.8143 55.1172 46.1698 53.86 47.17C51.1 49.88 48.34 52.59 45.64 55.36C44.64 56.36 43.37 56.36 42.21 56.74C38.36 57.86 34.46 58.85 30.58 59.89C30.2521 59.9747 29.908 59.9747 29.58 59.89L15.48 56.14C14.75 55.95 14.38 55.3 13.89 54.83C11.26 52.27 8.76003 49.57 6.00003 47.14C4.49383 45.6943 3.47059 43.819 3.07003 41.77C2.13003 38.27 1.15003 34.77 0.190026 31.27C-0.016477 30.7141 -0.0649356 30.1118 0.0500258 29.53C1.30003 24.92 2.51003 20.29 3.77003 15.67C4.13003 14.36 5.32003 13.67 6.19003 12.72C8.55003 10.25 11.03 7.88001 13.4 5.41001C14.2898 4.46974 15.4323 3.80649 16.69 3.50001C20.78 2.42001 24.85 1.29001 28.93 0.190011C29.4217 0.00617395 29.9545 -0.0388016 30.47 0.060011C35.0234 1.30001 39.5767 2.52001 44.13 3.72001C44.7383 3.90249 45.2848 4.24838 45.71 4.72001C48.71 7.79001 51.81 10.87 54.9 13.9C55.6861 14.6483 56.2413 15.6061 56.5 16.66C57.6 20.85 58.72 25.03 59.83 29.21C59.9 29.45 59.93 29.73 60 30.09ZM39 29.51H46C47.34 29.51 47.36 29.51 46.68 28.28C44.46 24.4467 42.2334 20.6167 40 16.79C39 15.15 39 15.15 38.09 16.79C35.83 20.79 33.58 24.73 31.28 28.69C30.89 29.36 31.04 29.5 31.75 29.5C34.18 29.5 36.59 29.51 39 29.51ZM20.9 29.51H28C29 29.51 29.08 29.39 28.58 28.51L21.45 16.24C20.89 15.24 20.77 15.24 20.2 16.24C17.8734 20.3267 15.54 24.41 13.2 28.49C12.71 29.35 12.77 29.49 13.78 29.49H20.9V29.51ZM30 45.26H37.33C37.95 45.26 38.21 45.15 37.79 44.5C37.37 43.85 37 43 36.54 42.22C34.5 38.74 32.4634 35.2433 30.43 31.73C30.19 31.32 30.02 30.91 29.62 31.62C27.2067 35.8733 24.7567 40.1367 22.27 44.41C21.83 45.16 22.1 45.27 22.82 45.27C25.23 45.27 27.64 45.27 30.05 45.27L30 45.26ZM20.86 44.79C21.21 44.23 21.46 43.85 21.68 43.47L28.41 31.75C28.58 31.46 28.96 31.19 28.81 30.84C28.66 30.49 28.13 30.58 27.81 30.58C23.2034 30.58 18.5934 30.58 13.98 30.58C13.62 30.58 13.13 30.39 12.98 30.82C12.83 31.25 13.18 31.53 13.37 31.82L17.23 38.42C18.44 40.42 19.64 42.5 20.95 44.74L20.86 44.79ZM30 29.07C31.22 26.94 32.34 25 33.47 23L37.69 15.64C37.82 15.41 38.08 15.18 37.88 14.88C37.68 14.58 37.37 14.74 37.1 14.75C35.5 14.75 33.89 14.8 32.28 14.81H23.17C21.79 14.81 21.78 14.81 22.43 16.08C22.73 16.67 23.1 17.22 23.43 17.79C25.58 21.46 27.72 25.14 29.99 29.04L30 29.07ZM39.07 44.66C39.22 44.55 39.29 44.52 39.32 44.47C41.84 40.13 44.3567 35.7967 46.87 31.47C47.32 30.7 46.96 30.6 46.28 30.6H32C31.12 30.6 31 30.82 31.43 31.6C33.01 34.31 34.54 37.05 36.11 39.76C37.1 41.39 38.09 43 39.07 44.66ZM38.19 13.66C35.51 9.66001 32.93 5.76001 30.37 1.90001C29.92 1.23001 29.68 1.60001 29.37 2.04001C27.0434 5.60001 24.71 9.16001 22.37 12.72C22.21 12.97 21.88 13.26 22.03 13.55C22.18 13.84 22.67 13.73 23.03 13.73H37.03L38.16 13.66H38.19ZM11.83 29C12.25 28.26 12.58 27.7 12.9 27.13L19.43 15.78C19.86 15.04 19.67 14.78 18.84 14.78C17.84 14.86 16.75 14.93 15.71 14.99C12.64 15.2 9.57003 15.38 6.51003 15.61C5.23003 15.7 5.14003 15.9 5.70003 17C6.84003 19.24 7.98336 21.48 9.13003 23.72L11.83 29ZM40.83 45.12C45.2 45.04 49.54 44.54 53.89 44.37C54.66 44.37 54.68 43.97 54.41 43.37C53.64 41.81 52.88 40.24 52.11 38.67L48.73 32C48.36 31.25 48.01 31.22 47.61 32C47.34 32.53 47.05 33.05 46.75 33.56C44.6434 37.1867 42.53 40.7933 40.41 44.38C40.14 44.84 40 45.25 40.78 45.16L40.83 45.12ZM41.42 14.85C41.25 14.85 40.65 14.6 40.42 14.96C40.19 15.32 40.66 15.77 40.87 16.14C43.07 20.1067 45.3067 24.06 47.58 28C48.02 28.76 48.28 28.77 48.7 28C49.41 26.67 50.05 25.32 50.7 24C51.9 21.6 53.11 19.2 54.3 16.79C54.6 16.19 54.76 15.66 53.74 15.61C49.74 15.41 45.66 15.19 41.35 14.96L41.42 14.85ZM11.83 31.11C9.71003 35.38 7.66003 39.5 5.62003 43.62C5.29003 44.27 5.68003 44.38 6.22003 44.44C10.43 44.88 14.66 44.91 18.87 45.23C19.17 45.23 19.57 45.38 19.75 45.08C19.93 44.78 19.62 44.43 19.46 44.14L15 36.54C14 34.78 13 33 11.83 31.11ZM30.13 46.31H23.43C23.03 46.31 22.43 46.1 22.26 46.5C22.09 46.9 22.51 47.32 22.75 47.68C25 51.08 27.29 54.46 29.52 57.89C29.96 58.56 30.15 58.55 30.57 57.89C32.89 54.3167 35.2234 50.76 37.57 47.22C38.05 46.48 37.88 46.22 37.05 46.22C34.74 46.33 32.44 46.31 30.13 46.31ZM5.45003 14.6C6.90003 14.6 7.94003 14.65 8.97003 14.6C12.3 14.38 15.63 14.09 18.97 13.87C19.79 13.81 19.91 13.59 19.49 12.87C18.1567 10.6233 16.8467 8.36334 15.56 6.09001C15.19 5.45001 14.86 5.42001 14.37 5.91001C13.3434 6.95001 12.3034 7.98001 11.25 9.00001L5.45003 14.6ZM31 1.25001L39.07 13.3C40.64 10.58 42.07 8.07001 43.57 5.57001C43.98 4.89001 43.79 4.57001 43.05 4.43001C41.26 4.00001 39.49 3.44001 37.7 3.00001C35.58 2.41001 33.45 1.87001 31 1.25001ZM53.94 14.56C54 14.44 54.07 14.34 54.13 14.23L45.46 5.75001C45.04 5.33001 44.74 5.29001 44.46 5.86001C43.1267 8.18668 41.7934 10.52 40.46 12.86C40.08 13.51 40.18 13.77 40.98 13.86C43.31 14.01 45.64 14.3 47.98 14.38C49.9605 14.5717 51.9516 14.6318 53.94 14.56ZM27.87 1.48001L27.31 1.63001C23.78 2.63001 20.25 3.63001 16.71 4.51001C15.77 4.76001 16.06 5.19001 16.36 5.71001C17.67 7.94001 18.99 10.15 20.26 12.4C20.73 13.22 21.08 13.09 21.5 12.4C22.14 11.4 22.79 10.4 23.44 9.40001C25.04 6.97334 26.63 4.55001 28.21 2.13001C28.32 1.96001 28.5 1.79001 28.39 1.56001C28.28 1.33001 28.1 1.46001 27.87 1.48001ZM4.62003 43.56L10.67 31.27C10.94 30.73 10.67 30.59 10.2 30.59L2.00003 30.62C1.35003 30.62 1.12003 30.9 1.30003 31.54C1.63003 32.72 1.94003 33.91 2.30003 35.08L4.62003 43.56ZM6.04003 45.56C6.08197 45.6928 6.13901 45.8203 6.21003 45.94L14.8 54.4C15.2 54.8 15.36 54.61 15.57 54.24C16.86 51.97 18.18 49.7 19.48 47.43C20.05 46.43 20.01 46.28 18.8 46.19C16.12 45.99 13.44 45.81 10.8 45.73C9.20756 45.5393 7.60166 45.4858 6.00003 45.57L6.04003 45.56ZM55.38 16.75L53.05 21.39C51.86 23.76 50.69 26.13 49.49 28.49C49.1 29.25 49.23 29.54 50.14 29.49C52.65 29.49 55.14 29.49 57.68 29.49C58.59 29.49 58.84 29.25 58.6 28.34C57.72 25.07 56.9 21.79 56.04 18.52C55.9 18 55.66 17.52 55.38 16.75ZM31.38 58.42L31.55 58.62L32.55 58.38L42.96 55.55C43.96 55.28 44.06 55.17 43.52 54.24C42.23 52 40.91 49.78 39.66 47.51C39.22 46.71 38.96 46.85 38.55 47.51C37.32 49.42 36.06 51.31 34.82 53.2L31.38 58.42ZM28.85 58.67C28.8018 58.5365 28.745 58.4062 28.68 58.28L21.68 47.64C21.12 46.79 20.96 46.77 20.43 47.64C19.11 49.94 17.83 52.26 16.49 54.55C16.11 55.2 16.36 55.36 16.97 55.55C19.41 56.17 21.82 56.85 24.25 57.49C25.71 57.9 27.22 58.27 28.83 58.67H28.85ZM54 45.94L53.7 45.58C53.6105 45.5306 53.5118 45.4999 53.41 45.49C49.22 45.57 45.03 45.83 40.85 46.14C40.13 46.2 40.06 46.52 40.42 47.14C41.72 49.37 43.02 51.6 44.27 53.87C44.72 54.7 45.07 54.63 45.66 54.02C46.94 52.6867 48.25 51.3767 49.59 50.09C51.07 48.68 52.56 47.32 54 45.94ZM4.47003 16.69C3.39003 20.8 2.37003 24.69 1.34003 28.54C1.16003 29.24 1.18003 29.77 2.09003 29.69C4.77003 29.45 7.46003 29.57 10.15 29.54C10.75 29.54 10.88 29.35 10.6 28.8C9.75003 27.16 8.94003 25.5 8.10003 23.85C6.93003 21.52 5.74003 19.2 4.47003 16.69ZM55.41 43.35C56 41.3 56.48 39.53 57 37.76C57.56 35.67 58.11 33.58 58.67 31.49C58.81 30.97 58.8 30.58 58.1 30.59H49.77C49.28 30.59 49.15 30.81 49.36 31.25C49.5 31.53 49.61 31.83 49.75 32.11C51.13 34.8633 52.5034 37.61 53.87 40.35C54.34 41.28 54.82 42.19 55.41 43.35Z"
        fill="currentColor"></path>
</svg>