<?xml version="1.0" encoding="utf-8"?>
<!-- Svg Vector Icons : http://www.onlinewebfonts.com/icon -->
<!DOCTYPE svg PUBLIC "-//W3C//DTD SVG 1.1//EN" "http://www.w3.org/Graphics/SVG/1.1/DTD/svg11.dtd">
<svg version="1.1" xmlns="http://www.w3.org/2000/svg" xmlns:xlink="http://www.w3.org/1999/xlink" x="0px" y="0px" viewBox="0 0 256 256" enable-background="new 0 0 256 256" xml:space="preserve">
<metadata> Svg Vector Icons : http://www.onlinewebfonts.com/icon </metadata>
<g><g><path fill="#000000" d="M191.3,127.8l4.9,0.3l-4,61.7l-4.9-0.3L191.3,127.8L191.3,127.8z"/><path fill="#000000" d="M66.5,187.3l61.7,4l-0.3,4.9l-61.7-4L66.5,187.3z"/><path fill="#000000" d="M191.4,188l42.7,42.7l-3.5,3.5L188,191.4L191.4,188z"/><path fill="#000000" d="M189.5,187.3l0.3,4.9l-61.7,4l-0.3-4.9L189.5,187.3z"/><path fill="#000000" d="M64.6,188l3.5,3.5l-42.7,42.7l-3.5-3.5L64.6,188z"/><path fill="#000000" d="M64.7,127.9l4,61.7l-4.9,0.3l-4-61.7L64.7,127.9L64.7,127.9z"/><path fill="#000000" d="M128.9,191.4l104.4,38.7l-1.7,4.6L127.2,196L128.9,191.4L128.9,191.4z"/><path fill="#000000" d="M127.2,191.4l1.7,4.6L24.4,234.7l-1.7-4.6L127.2,191.4z"/><path fill="#000000" d="M192.1,66.1l4,61.7l-4.9,0.3l-4-61.7L192.1,66.1z"/><path fill="#000000" d="M230.7,21.8l3.5,3.5L191.4,68l-3.5-3.5L230.7,21.8z"/><path fill="#000000" d="M128.2,59.8l61.7,4l-0.3,4.9l-61.7-4L128.2,59.8L128.2,59.8z"/><path fill="#000000" d="M230.1,22.7l4.6,1.7L196,128.9l-4.6-1.7L230.1,22.7L230.1,22.7z"/><path fill="#000000" d="M196.1,127.2l38.7,104.4l-4.6,1.7l-38.7-104.4L196.1,127.2L196.1,127.2z"/><path fill="#000000" d="M63.9,66.1l4.9,0.3l-4,61.7l-4.9-0.3L63.9,66.1z"/><path fill="#000000" d="M25.3,21.8L68,64.6L64.6,68L21.8,25.3L25.3,21.8z"/><path fill="#000000" d="M127.8,59.8l0.3,4.9l-61.7,4l-0.3-4.9L127.8,59.8z"/><path fill="#000000" d="M25.9,22.7l38.7,104.4l-4.6,1.7L21.3,24.4L25.9,22.7L25.9,22.7z"/><path fill="#000000" d="M59.9,127.2l4.6,1.7L25.9,233.3l-4.6-1.7L59.9,127.2z"/><path fill="#000000" d="M24.4,21.3l104.4,38.7l-1.7,4.6L22.7,25.9L24.4,21.3z"/><path fill="#000000" d="M231.6,21.3l1.7,4.6L128.8,64.5l-1.7-4.6L231.6,21.3z"/><path fill="#000000" d="M230,23.6h4.9v208.9H230V23.6z"/><path fill="#000000" d="M21.1,23.6H26v208.9h-4.9V23.6z"/><path fill="#000000" d="M23.6,230h208.9v4.9H23.6V230z"/><path fill="#000000" d="M234.2,230.7l11.1,11.1l-3.5,3.5l-11.1-11.1L234.2,230.7z"/><path fill="#000000" d="M21.8,230.7l3.5,3.5l-11.1,11.1l-3.5-3.5L21.8,230.7z"/><path fill="#000000" d="M12.5,241.1h231.1v4.9H12.5V241.1L12.5,241.1z"/><path fill="#000000" d="M23.6,21.1h208.9V26H23.6V21.1z"/><path fill="#000000" d="M14.2,10.7l11.1,11.1l-3.5,3.5L10.7,14.2L14.2,10.7z"/><path fill="#000000" d="M241.8,10.7l3.5,3.5l-11.1,11.1l-3.5-3.5L241.8,10.7z"/><path fill="#000000" d="M10,12.5h4.9v231.1H10V12.5z"/><path fill="#000000" d="M241.1,12.5h4.9v231.1h-4.9V12.5z"/><path fill="#000000" d="M12.5,10h231.1v4.9H12.5V10L12.5,10z"/></g></g>
</svg>