<svg xmlns="http://www.w3.org/2000/svg" width="25" height="25" viewBox="0 0 60 60"
    fill="none" class="group-hover:text-dark-blue mb-2">
    <g clip-path="url(#clip0_5606_160)">
        <path
            d="M30.1 59H20.87C19.9058 58.9451 18.9467 58.8214 18 58.63C15.34 58.25 12.69 57.84 10 57.43L1.28 56.11C0.969997 56.11 0.959997 55.92 1.05 55.69C1.59 54.31 2.05 52.94 2.65 51.58C3.65 49.04 4.59 46.45 5.57 43.94L8.36 36.6C8.94808 35.2935 9.616 34.0244 10.36 32.8C11.3 30.99 12.27 29.22 13.23 27.43C14.46 25.16 15.74 22.9 16.9 20.59C18.209 18.1782 19.6825 15.8594 21.31 13.65C22.63 11.73 23.9 9.78999 25.24 7.86999C26.58 5.94999 27.9 4.03999 29.24 2.11999L29.86 1.11999C30.02 0.879987 30.14 0.909987 30.3 1.11999C31.14 2.32999 31.98 3.52999 32.81 4.74999L36.81 10.5C38.25 12.56 39.66 14.67 41.13 16.72C42.1015 18.1884 42.9766 19.7183 43.75 21.3C45.06 23.75 46.35 26.21 47.64 28.66C48.5 30.29 49.3 31.95 50.22 33.55C51.4307 35.8843 52.4604 38.3081 53.3 40.8C54.47 43.8 55.61 46.75 56.75 49.72C57.52 51.72 58.27 53.72 59.04 55.65C59.14 55.89 59.1 56 58.8 56.06L51 57.3L43.06 58.52C42.06 58.68 40.94 58.84 39.87 58.98C39.7502 58.99 39.6298 58.99 39.51 58.98L30.1 59ZM30 47.71H45.53C45.98 47.71 45.99 47.71 45.78 47.29L44.78 45.37C43.5533 42.99 42.3167 40.6167 41.07 38.25C39.84 35.88 38.59 33.51 37.36 31.14C36.47 29.46 35.61 27.76 34.73 26.08C33.85 24.4 33.08 23 32.26 21.41L30.26 17.5C30.19 17.39 30.15 17.19 30.01 17.19C29.87 17.19 29.84 17.4 29.77 17.51L27.83 21.25L23.53 29.51L20.96 34.44L17.62 40.85C16.62 42.85 15.47 44.95 14.39 47C14.03 47.68 14.03 47.68 14.79 47.68L30 47.71ZM1.77 55.65V55.73L29.16 53.67V53.6L28.41 53.31L23 51.31L14 48.04C13.9353 48.0058 13.8632 47.988 13.79 47.988C13.7168 47.988 13.6447 48.0058 13.58 48.04L10.5 50.04L3.92 54.3L1.77 55.65ZM30.84 53.65V53.73L58.21 55.79C57.7735 55.4253 57.3124 55.0912 56.83 54.79C55.46 53.92 54.09 53.06 52.72 52.17C50.72 50.86 48.62 49.55 46.56 48.17C46.4651 48.1029 46.3547 48.0613 46.2391 48.049C46.1236 48.0367 46.0068 48.0543 45.9 48.1L40.9 49.93L32.62 52.93L30.84 53.65ZM58.37 55.45L43.18 30.45C43.37 31.82 43.61 33.17 43.86 34.55C44.3 36.87 44.73 39.19 45.18 41.55L46.32 47.55C46.3304 47.6424 46.3609 47.7314 46.4093 47.8109C46.4576 47.8903 46.5227 47.9583 46.6 48.01L52.35 51.66L55.35 53.59L58.37 55.45ZM1.62 55.45C1.78174 55.4174 1.9329 55.3452 2.06 55.24L4.06 53.96L10.06 50.14C11.22 49.41 12.36 48.66 13.51 47.94C13.5798 47.9023 13.6392 47.8478 13.6829 47.7815C13.7265 47.7152 13.753 47.6391 13.76 47.56C14.01 46.26 14.27 44.97 14.52 43.69C15.28 39.8767 16.0367 36.0733 16.79 32.28L17.13 30.49H17L1.62 55.45ZM30.17 1.77999V16.38C30.1719 16.4771 30.1942 16.5727 30.2355 16.6606C30.2769 16.7485 30.3364 16.8267 30.41 16.89L36.31 22.82C37.42 23.94 38.53 25.05 39.66 26.16L42.32 28.76L30.17 1.77999ZM29.79 1.93999L17.91 28.74L18.02 28.82L18.29 28.47L21.29 25.39L24.82 21.79C26.42 20.16 28.01 18.53 29.62 16.91C29.7049 16.8227 29.7715 16.7193 29.8162 16.6061C29.8608 16.4928 29.8825 16.3717 29.88 16.25V2.24999C29.8904 2.13898 29.8582 2.02819 29.79 1.93999ZM14.84 48V48.05L16.29 48.6L22.1 50.66L29.83 53.48C29.9621 53.5299 30.1079 53.5299 30.24 53.48L35.65 51.54L43.65 48.64L45.25 48H14.84ZM45.84 46.72H45.92L45.55 44.66L43.91 35.86C43.57 33.97 43.19 32.09 42.84 30.2C42.7889 29.8266 42.6249 29.4777 42.37 29.2C40.23 27.1467 38.1067 25.0567 36 22.93C34.33 21.26 32.68 19.58 31 17.93C30.9633 17.8712 30.9136 17.8216 30.8546 17.7852C30.7956 17.7487 30.729 17.7264 30.66 17.72L45.84 46.72ZM14.18 46.77L29.36 17.77H29.28L28.72 18.33C26.81 20.33 24.89 22.24 22.98 24.19L17.98 29.32C17.7202 29.5687 17.5483 29.8951 17.49 30.25C17.15 32.05 16.79 33.86 16.49 35.66C15.99 38.23 15.49 40.79 14.97 43.34C14.62 44.37 14.38 45.59 14.15 46.78L14.18 46.77ZM2.3 56H2.37L9.45 57L20.09 58.73C20.2025 58.774 20.3275 58.774 20.44 58.73L22.83 57.47C24.4 56.6 26 55.78 27.54 55C28.0982 54.7387 28.6334 54.4309 29.14 54.08C20.16 54.63 11.23 55.37 2.3 56ZM57.72 56L30.92 54L32.38 54.75L39.69 58.53C39.8105 58.601 39.9515 58.6292 40.09 58.61L47.04 57.61L53.04 56.69L57.72 56ZM16.82 30.23C16.7657 30.23 16.7121 30.2426 16.6635 30.2669C16.6149 30.2912 16.5726 30.3265 16.54 30.37L14.07 32.21C12.43 33.45 10.8 34.69 9.15 35.92C8.92386 36.0856 8.75306 36.3156 8.66 36.58C8.33 37.42 8.01 38.25 7.66 39.09L2.55 52.58L1.83 54.42L16.82 30.23ZM58 54.14C57.9867 53.8261 57.9048 53.5188 57.76 53.24C56.83 50.83 55.89 48.43 54.97 46.06L51.3 36.52C51.2428 36.3186 51.1239 36.1402 50.96 36.01L49.96 35.19L44.65 31.09C44.3069 30.7751 43.9194 30.5123 43.5 30.31L58 54.14ZM17.63 28.48H17.7L29.19 2.63999C28.71 3.24999 28.29 3.85999 27.86 4.48999L23.12 11.37C21.86 13.21 20.6 15.04 19.36 16.88C18.833 17.4545 18.4855 18.1705 18.36 18.94C18.31 20.54 18.13 22.13 18 23.73C17.92 24.66 17.84 25.6 17.77 26.53L17.63 28.48ZM31 2.61999H30.94L42.55 28.62C42.58 28.2072 42.58 27.7928 42.55 27.38C42.44 26.05 42.31 24.7 42.2 23.38C42.09 22.06 41.94 20.68 41.84 19.38C41.841 18.7524 41.6451 18.1404 41.28 17.63C40.69 16.85 40.17 16.03 39.62 15.24L32.72 5.19999L31 2.61999ZM39.27 58.73L38.27 58.19L30.27 54.08C30.2035 54.0458 30.1298 54.0279 30.055 54.0279C29.9802 54.0279 29.9065 54.0458 29.84 54.08C29.48 54.28 29.11 54.45 28.74 54.65L23.19 57.56L20.94 58.73H39.27ZM18.14 18.94H18.07L9.16 35.5C9.30979 35.4495 9.44883 35.3715 9.57 35.27L11.92 33.49L16.92 29.72C17.0105 29.6626 17.0877 29.5865 17.1464 29.4968C17.205 29.4072 17.2438 29.3059 17.26 29.2L17.66 24.33C17.75 23.19 17.85 22.03 17.95 20.87L18.14 18.94ZM50.7 35.45L50.76 35.4L42.1 19C42.06 19.2853 42.06 19.5747 42.1 19.86L42.53 24.68L42.93 29.22C42.9331 29.3069 42.9564 29.392 42.998 29.4683C43.0397 29.5447 43.0986 29.6103 43.17 29.66C43.5 29.91 43.83 30.18 44.17 30.44L49.3 34.38L50.7 35.45Z"
            fill="currentColor" stroke="currentColor" stroke-width="0.5"
            stroke-miterlimit="10">
        </path>
    </g>
    <defs>
        <clipPath id="clip0_5606_160">
            <rect width="60" height="60" fill="white"></rect>
        </clipPath>
    </defs>
</svg>