<svg width="205" height="88" viewBox="0 0 205 88" fill="none" xmlns="http://www.w3.org/2000/svg">
<rect width="205" height="87.5795" rx="5" fill="white"/>
<g clip-path="url(#clip0_6657_226)">
<path d="M83.5886 11.9395H91.6611V13.4456H88.487V21.9122H86.7416V13.4456H83.5815V11.9395H83.5886ZM91.3162 14.6913H92.8082V16.0848H92.8364C92.8856 15.8877 92.9771 15.6977 93.1109 15.5147C93.2446 15.3317 93.4065 15.1558 93.5965 15.008C93.7865 14.8531 93.9976 14.7335 94.2299 14.635C94.4621 14.5435 94.7014 14.4942 94.9407 14.4942C95.1237 14.4942 95.2574 14.5013 95.3278 14.5083C95.3982 14.5153 95.4686 14.5294 95.546 14.5364V16.0707C95.4334 16.0496 95.3208 16.0355 95.2011 16.0214C95.0815 16.0074 94.9689 16.0003 94.8563 16.0003C94.5888 16.0003 94.3355 16.0566 94.0962 16.1622C93.8569 16.2678 93.6528 16.4296 93.4768 16.6337C93.3009 16.8449 93.1601 17.0982 93.0546 17.4079C92.949 17.7176 92.8997 18.0695 92.8997 18.4706V21.9051H91.3092V14.6913H91.3162ZM102.858 21.9122H101.296V20.9057H101.268C101.071 21.2717 100.782 21.5603 100.395 21.7784C100.008 21.9966 99.6139 22.1092 99.2127 22.1092C98.2626 22.1092 97.5729 21.877 97.1506 21.4054C96.7283 20.9339 96.5172 20.2231 96.5172 19.2729V14.6913H98.1078V19.1181C98.1078 19.7515 98.2274 20.202 98.4737 20.4624C98.713 20.7228 99.0579 20.8565 99.4942 20.8565C99.8321 20.8565 100.107 20.8072 100.332 20.7016C100.557 20.5961 100.74 20.4624 100.874 20.2864C101.014 20.1175 101.113 19.9064 101.176 19.6671C101.24 19.4278 101.268 19.1674 101.268 18.8859V14.6983H102.858V21.9122ZM105.568 19.5967C105.617 20.0612 105.793 20.3849 106.096 20.575C106.405 20.7579 106.771 20.8565 107.201 20.8565C107.349 20.8565 107.517 20.8424 107.707 20.8213C107.897 20.8002 108.08 20.7509 108.242 20.6876C108.411 20.6242 108.545 20.5257 108.658 20.399C108.763 20.2723 108.812 20.1105 108.805 19.9064C108.798 19.7023 108.721 19.5333 108.58 19.4067C108.439 19.2729 108.263 19.1744 108.045 19.09C107.827 19.0125 107.581 18.9422 107.299 18.8859C107.018 18.8296 106.736 18.7662 106.448 18.7029C106.152 18.6395 105.864 18.5551 105.589 18.4636C105.315 18.3721 105.068 18.2454 104.85 18.0835C104.632 17.9287 104.456 17.7246 104.329 17.4783C104.196 17.232 104.132 16.9293 104.132 16.5634C104.132 16.1692 104.231 15.8455 104.421 15.578C104.611 15.3106 104.857 15.0995 105.146 14.9376C105.441 14.7757 105.765 14.6631 106.124 14.5927C106.483 14.5294 106.828 14.4942 107.151 14.4942C107.524 14.4942 107.883 14.5364 108.221 14.6139C108.559 14.6913 108.869 14.818 109.143 15.0009C109.418 15.1769 109.643 15.4091 109.826 15.6907C110.009 15.9722 110.121 16.317 110.171 16.7182H108.51C108.432 16.3381 108.263 16.0777 107.989 15.9511C107.715 15.8173 107.398 15.754 107.046 15.754C106.933 15.754 106.8 15.761 106.645 15.7821C106.49 15.8033 106.349 15.8385 106.208 15.8877C106.075 15.937 105.962 16.0144 105.864 16.1129C105.772 16.2115 105.723 16.3381 105.723 16.5C105.723 16.6971 105.793 16.8519 105.927 16.9716C106.061 17.0912 106.237 17.1897 106.455 17.2742C106.673 17.3516 106.919 17.422 107.201 17.4783C107.482 17.5346 107.771 17.5979 108.066 17.6613C108.355 17.7246 108.636 17.8091 108.918 17.9006C109.2 17.992 109.446 18.1187 109.664 18.2806C109.882 18.4425 110.058 18.6395 110.192 18.8788C110.326 19.1181 110.396 19.4207 110.396 19.7726C110.396 20.202 110.297 20.5609 110.1 20.8635C109.903 21.1591 109.65 21.4054 109.34 21.5884C109.031 21.7714 108.679 21.9122 108.299 21.9966C107.919 22.0811 107.539 22.1233 107.166 22.1233C106.708 22.1233 106.286 22.074 105.899 21.9685C105.512 21.8629 105.174 21.7081 104.892 21.504C104.611 21.2928 104.386 21.0324 104.224 20.7228C104.062 20.4131 103.977 20.0401 103.963 19.6108H105.568V19.5967ZM110.818 14.6913H112.022V12.5236H113.612V14.6913H115.048V15.8807H113.612V19.7374C113.612 19.9064 113.619 20.0471 113.633 20.1738C113.647 20.2934 113.683 20.399 113.732 20.4835C113.781 20.5679 113.859 20.6313 113.964 20.6735C114.07 20.7157 114.203 20.7368 114.386 20.7368C114.499 20.7368 114.612 20.7368 114.724 20.7298C114.837 20.7228 114.949 20.7087 115.062 20.6805V21.9122C114.886 21.9333 114.71 21.9473 114.548 21.9685C114.379 21.9896 114.21 21.9966 114.035 21.9966C113.612 21.9966 113.274 21.9544 113.021 21.877C112.768 21.7996 112.564 21.6799 112.423 21.5251C112.275 21.3702 112.184 21.1802 112.127 20.948C112.078 20.7157 112.043 20.4483 112.036 20.1527V15.8948H110.832V14.6913H110.818ZM116.174 14.6913H117.68V15.6695H117.708C117.934 15.2473 118.243 14.9517 118.644 14.7687C119.046 14.5857 119.475 14.4942 119.946 14.4942C120.516 14.4942 121.009 14.5927 121.431 14.7968C121.854 14.9939 122.206 15.2684 122.487 15.6203C122.769 15.9722 122.973 16.3804 123.113 16.8449C123.254 17.3094 123.325 17.8091 123.325 18.3369C123.325 18.8225 123.261 19.2941 123.135 19.7445C123.008 20.202 122.818 20.6031 122.564 20.955C122.311 21.3069 121.987 21.5814 121.593 21.7925C121.199 22.0037 120.742 22.1092 120.207 22.1092C119.975 22.1092 119.742 22.0881 119.51 22.0459C119.278 22.0037 119.053 21.9333 118.841 21.8418C118.63 21.7503 118.426 21.6306 118.25 21.4828C118.067 21.3351 117.919 21.1661 117.793 20.9761H117.765V24.5795H116.174V14.6913ZM121.734 18.3088C121.734 17.985 121.692 17.6683 121.607 17.3586C121.523 17.049 121.396 16.7815 121.227 16.5422C121.058 16.303 120.847 16.1129 120.601 15.9722C120.348 15.8314 120.059 15.754 119.735 15.754C119.067 15.754 118.56 15.9862 118.222 16.4507C117.884 16.9152 117.715 17.5346 117.715 18.3088C117.715 18.6747 117.758 19.0125 117.849 19.3222C117.941 19.6319 118.067 19.8993 118.25 20.1245C118.426 20.3497 118.637 20.5257 118.884 20.6524C119.13 20.7861 119.419 20.8494 119.742 20.8494C120.108 20.8494 120.411 20.772 120.664 20.6242C120.918 20.4764 121.122 20.2794 121.284 20.0471C121.445 19.8078 121.565 19.5404 121.635 19.2378C121.699 18.9351 121.734 18.6255 121.734 18.3088ZM124.542 11.9395H126.133V13.4456H124.542V11.9395ZM124.542 14.6913H126.133V21.9122H124.542V14.6913ZM127.554 11.9395H129.145V21.9122H127.554V11.9395ZM134.022 22.1092C133.445 22.1092 132.931 22.0107 132.481 21.8207C132.03 21.6306 131.65 21.3632 131.334 21.0324C131.024 20.6946 130.785 20.2934 130.623 19.8289C130.461 19.3644 130.377 18.8507 130.377 18.2947C130.377 17.7457 130.461 17.239 130.623 16.7745C130.785 16.31 131.024 15.9088 131.334 15.571C131.643 15.2332 132.03 14.9728 132.481 14.7828C132.931 14.5927 133.445 14.4942 134.022 14.4942C134.599 14.4942 135.113 14.5927 135.563 14.7828C136.014 14.9728 136.394 15.2402 136.711 15.571C137.02 15.9088 137.26 16.31 137.421 16.7745C137.583 17.239 137.668 17.7457 137.668 18.2947C137.668 18.8507 137.583 19.3644 137.421 19.8289C137.26 20.2934 137.02 20.6946 136.711 21.0324C136.401 21.3702 136.014 21.6306 135.563 21.8207C135.113 22.0107 134.599 22.1092 134.022 22.1092ZM134.022 20.8494C134.374 20.8494 134.684 20.772 134.944 20.6242C135.205 20.4764 135.416 20.2794 135.585 20.0401C135.754 19.8008 135.873 19.5263 135.958 19.2237C136.035 18.9211 136.077 18.6114 136.077 18.2947C136.077 17.985 136.035 17.6824 135.958 17.3727C135.88 17.063 135.754 16.7956 135.585 16.5563C135.416 16.317 135.205 16.127 134.944 15.9792C134.684 15.8314 134.374 15.754 134.022 15.754C133.67 15.754 133.361 15.8314 133.1 15.9792C132.84 16.127 132.629 16.3241 132.46 16.5563C132.291 16.7956 132.171 17.063 132.087 17.3727C132.009 17.6824 131.967 17.985 131.967 18.2947C131.967 18.6114 132.009 18.9211 132.087 19.2237C132.164 19.5263 132.291 19.8008 132.46 20.0401C132.629 20.2794 132.84 20.4764 133.1 20.6242C133.361 20.7791 133.67 20.8494 134.022 20.8494ZM138.132 14.6913H139.336V12.5236H140.926V14.6913H142.362V15.8807H140.926V19.7374C140.926 19.9064 140.933 20.0471 140.947 20.1738C140.962 20.2934 140.997 20.399 141.046 20.4835C141.095 20.5679 141.173 20.6313 141.278 20.6735C141.384 20.7157 141.518 20.7368 141.701 20.7368C141.813 20.7368 141.926 20.7368 142.038 20.7298C142.151 20.7228 142.264 20.7087 142.376 20.6805V21.9122C142.2 21.9333 142.024 21.9473 141.862 21.9685C141.693 21.9896 141.525 21.9966 141.349 21.9966C140.926 21.9966 140.589 21.9544 140.335 21.877C140.082 21.7996 139.878 21.6799 139.737 21.5251C139.589 21.3702 139.498 21.1802 139.441 20.948C139.392 20.7157 139.357 20.4483 139.35 20.1527V15.8948H138.146V14.6913H138.132Z" fill="#222222"/>
<path d="M81.7312 11.9394H74.4399L72.1878 5L69.9286 11.9394L62.6373 11.9323L68.5421 16.2255L66.283 23.1578L72.1878 18.8717L78.0855 23.1578L75.8334 16.2255L81.7312 11.9394Z" fill="#51B37F"/>
<path d="M76.3407 17.795L75.834 16.2256L72.1884 18.8718L76.3407 17.795Z" fill="#005128"/>
</g>
<rect x="37.5" y="32.5796" width="22" height="22" rx="2" fill="#51B37F"/>
<path d="M56.3397 41.5274H50.4052L48.5722 35.8794L46.7334 41.5274L40.799 41.5217L45.6049 45.0159L43.7662 50.6583L48.5722 47.1698L53.3724 50.6583L51.5394 45.0159L56.3397 41.5274Z" fill="white"/>
<path d="M51.9529 46.2935L51.5405 45.0161L48.5732 47.1699L51.9529 46.2935Z" fill="#51B37F"/>
<rect x="64.5" y="32.5796" width="22" height="22" rx="2" fill="#51B37F"/>
<path d="M83.3397 41.5274H77.4052L75.5722 35.8794L73.7334 41.5274L67.799 41.5217L72.6049 45.0159L70.7662 50.6583L75.5722 47.1698L80.3724 50.6583L78.5394 45.0159L83.3397 41.5274Z" fill="white"/>
<path d="M78.9529 46.2935L78.5405 45.0161L75.5732 47.1699L78.9529 46.2935Z" fill="#51B37F"/>
<rect x="91.5" y="32.5796" width="22" height="22" rx="2" fill="#51B37F"/>
<path d="M110.34 41.5274H104.405L102.572 35.8794L100.733 41.5274L94.799 41.5217L99.6049 45.0159L97.7662 50.6583L102.572 47.1698L107.372 50.6583L105.539 45.0159L110.34 41.5274Z" fill="white"/>
<path d="M105.953 46.2935L105.54 45.0161L102.573 47.1699L105.953 46.2935Z" fill="#51B37F"/>
<rect x="118.5" y="32.5796" width="22" height="22" rx="2" fill="#51B37F"/>
<path d="M137.34 41.5274H131.405L129.572 35.8794L127.733 41.5274L121.799 41.5217L126.605 45.0159L124.766 50.6583L129.572 47.1698L134.372 50.6583L132.539 45.0159L137.34 41.5274Z" fill="white"/>
<path d="M132.953 46.2935L132.54 45.0161L129.573 47.1699L132.953 46.2935Z" fill="#51B37F"/>
<rect x="145.5" y="32.5796" width="22" height="22" rx="2" fill="#51B37F"/>
<path d="M164.34 41.5274H158.405L156.572 35.8794L154.733 41.5274L148.799 41.5217L153.605 45.0159L151.766 50.6583L156.572 47.1698L161.372 50.6583L159.539 45.0159L164.34 41.5274Z" fill="white"/>
<path d="M159.953 46.2935L159.54 45.0161L156.573 47.1699L159.953 46.2935Z" fill="#51B37F"/>
<path d="M10 76.5796V68.9476H7.048V68.1796H13.84V68.9476H10.888V76.5796H10ZM14.9146 76.5796V70.2796H15.7306V71.9956L15.6466 71.6956C15.8226 71.2156 16.1186 70.8516 16.5346 70.6036C16.9506 70.3476 17.4666 70.2196 18.0826 70.2196V71.0476C18.0506 71.0476 18.0186 71.0476 17.9866 71.0476C17.9546 71.0396 17.9226 71.0356 17.8906 71.0356C17.2266 71.0356 16.7066 71.2396 16.3306 71.6476C15.9546 72.0476 15.7666 72.6196 15.7666 73.3636V76.5796H14.9146ZM22.335 76.6396C21.799 76.6396 21.331 76.5396 20.931 76.3396C20.531 76.1396 20.219 75.8396 19.995 75.4396C19.779 75.0396 19.671 74.5396 19.671 73.9396V70.2796H20.523V73.8436C20.523 74.5156 20.687 75.0236 21.015 75.3676C21.351 75.7036 21.819 75.8716 22.419 75.8716C22.859 75.8716 23.239 75.7836 23.559 75.6076C23.887 75.4236 24.135 75.1596 24.303 74.8156C24.479 74.4716 24.567 74.0596 24.567 73.5796V70.2796H25.419V76.5796H24.603V74.8516L24.735 75.1636C24.535 75.6276 24.223 75.9916 23.799 76.2556C23.383 76.5116 22.895 76.6396 22.335 76.6396ZM29.4855 76.6396C28.9655 76.6396 28.4735 76.5676 28.0095 76.4236C27.5455 76.2716 27.1815 76.0836 26.9175 75.8596L27.3015 75.1876C27.5575 75.3796 27.8855 75.5476 28.2855 75.6916C28.6855 75.8276 29.1055 75.8956 29.5455 75.8956C30.1455 75.8956 30.5775 75.8036 30.8415 75.6196C31.1055 75.4276 31.2375 75.1756 31.2375 74.8636C31.2375 74.6316 31.1615 74.4516 31.0095 74.3236C30.8655 74.1876 30.6735 74.0876 30.4335 74.0236C30.1935 73.9516 29.9255 73.8916 29.6295 73.8436C29.3335 73.7956 29.0375 73.7396 28.7415 73.6756C28.4535 73.6116 28.1895 73.5196 27.9495 73.3996C27.7095 73.2716 27.5135 73.0996 27.3615 72.8836C27.2175 72.6676 27.1455 72.3796 27.1455 72.0196C27.1455 71.6756 27.2415 71.3676 27.4335 71.0956C27.6255 70.8236 27.9055 70.6116 28.2735 70.4596C28.6495 70.2996 29.1055 70.2196 29.6415 70.2196C30.0495 70.2196 30.4575 70.2756 30.8655 70.3876C31.2735 70.4916 31.6095 70.6316 31.8735 70.8076L31.5015 71.4916C31.2215 71.2996 30.9215 71.1636 30.6015 71.0836C30.2815 70.9956 29.9615 70.9516 29.6415 70.9516C29.0735 70.9516 28.6535 71.0516 28.3815 71.2516C28.1175 71.4436 27.9855 71.6916 27.9855 71.9956C27.9855 72.2356 28.0575 72.4236 28.2015 72.5596C28.3535 72.6956 28.5495 72.8036 28.7895 72.8836C29.0375 72.9556 29.3055 73.0156 29.5935 73.0636C29.8895 73.1116 30.1815 73.1716 30.4695 73.2436C30.7655 73.3076 31.0335 73.3996 31.2735 73.5196C31.5215 73.6316 31.7175 73.7956 31.8615 74.0116C32.0135 74.2196 32.0895 74.4956 32.0895 74.8396C32.0895 75.2076 31.9855 75.5276 31.7775 75.7996C31.5775 76.0636 31.2815 76.2716 30.8895 76.4236C30.5055 76.5676 30.0375 76.6396 29.4855 76.6396ZM35.6448 76.6396C35.0528 76.6396 34.5968 76.4796 34.2768 76.1596C33.9568 75.8396 33.7968 75.3876 33.7968 74.8036V68.8876H34.6488V74.7556C34.6488 75.1236 34.7408 75.4076 34.9248 75.6076C35.1168 75.8076 35.3888 75.9076 35.7408 75.9076C36.1168 75.9076 36.4288 75.7996 36.6768 75.5836L36.9768 76.1956C36.8088 76.3476 36.6048 76.4596 36.3648 76.5316C36.1328 76.6036 35.8928 76.6396 35.6448 76.6396ZM32.6688 70.9876V70.2796H36.5688V70.9876H32.6688ZM40.2198 76.6396C39.6998 76.6396 39.2078 76.5676 38.7438 76.4236C38.2798 76.2716 37.9158 76.0836 37.6518 75.8596L38.0358 75.1876C38.2918 75.3796 38.6198 75.5476 39.0198 75.6916C39.4198 75.8276 39.8398 75.8956 40.2798 75.8956C40.8798 75.8956 41.3118 75.8036 41.5758 75.6196C41.8398 75.4276 41.9718 75.1756 41.9718 74.8636C41.9718 74.6316 41.8958 74.4516 41.7438 74.3236C41.5998 74.1876 41.4078 74.0876 41.1678 74.0236C40.9278 73.9516 40.6598 73.8916 40.3638 73.8436C40.0678 73.7956 39.7718 73.7396 39.4758 73.6756C39.1878 73.6116 38.9238 73.5196 38.6838 73.3996C38.4438 73.2716 38.2478 73.0996 38.0958 72.8836C37.9518 72.6676 37.8798 72.3796 37.8798 72.0196C37.8798 71.6756 37.9758 71.3676 38.1678 71.0956C38.3598 70.8236 38.6398 70.6116 39.0078 70.4596C39.3838 70.2996 39.8398 70.2196 40.3758 70.2196C40.7838 70.2196 41.1918 70.2756 41.5998 70.3876C42.0078 70.4916 42.3438 70.6316 42.6078 70.8076L42.2358 71.4916C41.9558 71.2996 41.6558 71.1636 41.3358 71.0836C41.0158 70.9956 40.6958 70.9516 40.3758 70.9516C39.8078 70.9516 39.3878 71.0516 39.1158 71.2516C38.8518 71.4436 38.7198 71.6916 38.7198 71.9956C38.7198 72.2356 38.7918 72.4236 38.9358 72.5596C39.0878 72.6956 39.2838 72.8036 39.5238 72.8836C39.7718 72.9556 40.0398 73.0156 40.3278 73.0636C40.6238 73.1116 40.9158 73.1716 41.2038 73.2436C41.4998 73.3076 41.7678 73.3996 42.0078 73.5196C42.2558 73.6316 42.4518 73.7956 42.5958 74.0116C42.7478 74.2196 42.8238 74.4956 42.8238 74.8396C42.8238 75.2076 42.7198 75.5276 42.5118 75.7996C42.3118 76.0636 42.0158 76.2716 41.6238 76.4236C41.2398 76.5676 40.7718 76.6396 40.2198 76.6396ZM47.0032 76.6396C46.3792 76.6396 45.8192 76.5036 45.3232 76.2316C44.8352 75.9516 44.4512 75.5716 44.1712 75.0916C43.8912 74.6036 43.7512 74.0476 43.7512 73.4236C43.7512 72.7916 43.8912 72.2356 44.1712 71.7556C44.4512 71.2756 44.8352 70.8996 45.3232 70.6276C45.8192 70.3556 46.3792 70.2196 47.0032 70.2196C47.5392 70.2196 48.0232 70.3236 48.4552 70.5316C48.8872 70.7396 49.2272 71.0516 49.4752 71.4676L48.8392 71.8996C48.6232 71.5796 48.3552 71.3436 48.0352 71.1916C47.7152 71.0396 47.3672 70.9636 46.9912 70.9636C46.5432 70.9636 46.1392 71.0676 45.7792 71.2756C45.4192 71.4756 45.1352 71.7596 44.9272 72.1276C44.7192 72.4956 44.6152 72.9276 44.6152 73.4236C44.6152 73.9196 44.7192 74.3516 44.9272 74.7196C45.1352 75.0876 45.4192 75.3756 45.7792 75.5836C46.1392 75.7836 46.5432 75.8836 46.9912 75.8836C47.3672 75.8836 47.7152 75.8076 48.0352 75.6556C48.3552 75.5036 48.6232 75.2716 48.8392 74.9596L49.4752 75.3916C49.2272 75.7996 48.8872 76.1116 48.4552 76.3276C48.0232 76.5356 47.5392 76.6396 47.0032 76.6396ZM53.6115 76.6396C53.0035 76.6396 52.4555 76.5036 51.9675 76.2316C51.4875 75.9516 51.1075 75.5716 50.8275 75.0916C50.5475 74.6036 50.4075 74.0476 50.4075 73.4236C50.4075 72.7916 50.5475 72.2356 50.8275 71.7556C51.1075 71.2756 51.4875 70.8996 51.9675 70.6276C52.4475 70.3556 52.9955 70.2196 53.6115 70.2196C54.2355 70.2196 54.7875 70.3556 55.2675 70.6276C55.7555 70.8996 56.1355 71.2756 56.4075 71.7556C56.6875 72.2356 56.8275 72.7916 56.8275 73.4236C56.8275 74.0476 56.6875 74.6036 56.4075 75.0916C56.1355 75.5716 55.7555 75.9516 55.2675 76.2316C54.7795 76.5036 54.2275 76.6396 53.6115 76.6396ZM53.6115 75.8836C54.0675 75.8836 54.4715 75.7836 54.8235 75.5836C55.1755 75.3756 55.4515 75.0876 55.6515 74.7196C55.8595 74.3436 55.9635 73.9116 55.9635 73.4236C55.9635 72.9276 55.8595 72.4956 55.6515 72.1276C55.4515 71.7596 55.1755 71.4756 54.8235 71.2756C54.4715 71.0676 54.0715 70.9636 53.6235 70.9636C53.1755 70.9636 52.7755 71.0676 52.4235 71.2756C52.0715 71.4756 51.7915 71.7596 51.5835 72.1276C51.3755 72.4956 51.2715 72.9276 51.2715 73.4236C51.2715 73.9116 51.3755 74.3436 51.5835 74.7196C51.7915 75.0876 52.0715 75.3756 52.4235 75.5836C52.7755 75.7836 53.1715 75.8836 53.6115 75.8836ZM58.5669 76.5796V70.2796H59.3829V71.9956L59.2989 71.6956C59.4749 71.2156 59.7709 70.8516 60.1869 70.6036C60.6029 70.3476 61.1189 70.2196 61.7349 70.2196V71.0476C61.7029 71.0476 61.6709 71.0476 61.6389 71.0476C61.6069 71.0396 61.5749 71.0356 61.5429 71.0356C60.8789 71.0356 60.3589 71.2396 59.9829 71.6476C59.6069 72.0476 59.4189 72.6196 59.4189 73.3636V76.5796H58.5669ZM65.907 76.6396C65.251 76.6396 64.675 76.5036 64.179 76.2316C63.683 75.9516 63.295 75.5716 63.015 75.0916C62.735 74.6036 62.595 74.0476 62.595 73.4236C62.595 72.7996 62.727 72.2476 62.991 71.7676C63.263 71.2876 63.631 70.9116 64.095 70.6396C64.567 70.3596 65.095 70.2196 65.679 70.2196C66.271 70.2196 66.795 70.3556 67.251 70.6276C67.715 70.8916 68.079 71.2676 68.343 71.7556C68.607 72.2356 68.739 72.7916 68.739 73.4236C68.739 73.4636 68.735 73.5076 68.727 73.5556C68.727 73.5956 68.727 73.6396 68.727 73.6876H63.243V73.0516H68.271L67.935 73.3036C67.935 72.8476 67.835 72.4436 67.635 72.0916C67.443 71.7316 67.179 71.4516 66.843 71.2516C66.507 71.0516 66.119 70.9516 65.679 70.9516C65.247 70.9516 64.859 71.0516 64.515 71.2516C64.171 71.4516 63.903 71.7316 63.711 72.0916C63.519 72.4516 63.423 72.8636 63.423 73.3276V73.4596C63.423 73.9396 63.527 74.3636 63.735 74.7316C63.951 75.0916 64.247 75.3756 64.623 75.5836C65.007 75.7836 65.443 75.8836 65.931 75.8836C66.315 75.8836 66.671 75.8156 66.999 75.6796C67.335 75.5436 67.623 75.3356 67.863 75.0556L68.343 75.6076C68.063 75.9436 67.711 76.1996 67.287 76.3756C66.871 76.5516 66.411 76.6396 65.907 76.6396ZM72.7978 74.8156V73.5076L76.7578 68.1796H78.7978L74.9218 73.5076L73.9738 73.2316H80.5858V74.8156H72.7978ZM77.3218 76.5796V74.8156L77.3818 73.2316V71.6596H79.2178V76.5796H77.3218ZM82.5056 76.6756C82.1856 76.6756 81.9096 76.5676 81.6776 76.3516C81.4536 76.1276 81.3416 75.8436 81.3416 75.4996C81.3416 75.1556 81.4536 74.8796 81.6776 74.6716C81.9096 74.4556 82.1856 74.3476 82.5056 74.3476C82.8336 74.3476 83.1096 74.4556 83.3336 74.6716C83.5576 74.8796 83.6696 75.1556 83.6696 75.4996C83.6696 75.8436 83.5576 76.1276 83.3336 76.3516C83.1096 76.5676 82.8336 76.6756 82.5056 76.6756ZM87.4942 68.0356C88.2702 68.0356 88.9382 68.1956 89.4982 68.5156C90.0582 68.8356 90.4902 69.3036 90.7942 69.9196C91.0982 70.5276 91.2502 71.2876 91.2502 72.1996C91.2502 73.1676 91.0662 73.9876 90.6982 74.6596C90.3382 75.3316 89.8382 75.8436 89.1982 76.1956C88.5582 76.5476 87.8142 76.7236 86.9662 76.7236C86.5262 76.7236 86.1022 76.6756 85.6942 76.5796C85.2862 76.4836 84.9342 76.3396 84.6382 76.1476L85.3582 74.7196C85.5902 74.8796 85.8382 74.9916 86.1022 75.0556C86.3662 75.1116 86.6422 75.1396 86.9302 75.1396C87.6502 75.1396 88.2222 74.9196 88.6462 74.4796C89.0782 74.0396 89.2942 73.3876 89.2942 72.5236C89.2942 72.3796 89.2902 72.2196 89.2822 72.0436C89.2742 71.8676 89.2542 71.6916 89.2222 71.5156L89.7502 72.0196C89.6142 72.3316 89.4222 72.5956 89.1742 72.8116C88.9262 73.0196 88.6382 73.1796 88.3102 73.2916C87.9822 73.3956 87.6142 73.4476 87.2062 73.4476C86.6702 73.4476 86.1822 73.3396 85.7422 73.1236C85.3102 72.9076 84.9622 72.6036 84.6982 72.2116C84.4422 71.8196 84.3142 71.3596 84.3142 70.8316C84.3142 70.2556 84.4542 69.7596 84.7342 69.3436C85.0222 68.9276 85.4062 68.6076 85.8862 68.3836C86.3742 68.1516 86.9102 68.0356 87.4942 68.0356ZM87.6142 69.4876C87.3342 69.4876 87.0902 69.5396 86.8822 69.6436C86.6742 69.7396 86.5102 69.8836 86.3902 70.0756C86.2702 70.2596 86.2102 70.4796 86.2102 70.7356C86.2102 71.1196 86.3382 71.4276 86.5942 71.6596C86.8582 71.8836 87.2062 71.9956 87.6382 71.9956C87.9182 71.9956 88.1662 71.9436 88.3822 71.8396C88.6062 71.7276 88.7782 71.5756 88.8982 71.3836C89.0182 71.1916 89.0782 70.9756 89.0782 70.7356C89.0782 70.4956 89.0182 70.2836 88.8982 70.0996C88.7862 69.9076 88.6222 69.7596 88.4062 69.6556C88.1902 69.5436 87.9262 69.4876 87.6142 69.4876Z" fill="#333333"/>
<line x1="99.25" y1="67.0796" x2="99.25" y2="77.0796" stroke="#333333" stroke-width="0.5"/>
<path d="M107.764 76.5796V68.8996L108.604 69.7396H106.084V68.1796H109.708V76.5796H107.764ZM114.767 76.7236C114.079 76.7236 113.463 76.5556 112.919 76.2196C112.375 75.8756 111.947 75.3796 111.635 74.7316C111.323 74.0836 111.167 73.2996 111.167 72.3796C111.167 71.4596 111.323 70.6756 111.635 70.0276C111.947 69.3796 112.375 68.8876 112.919 68.5516C113.463 68.2076 114.079 68.0356 114.767 68.0356C115.463 68.0356 116.079 68.2076 116.615 68.5516C117.159 68.8876 117.587 69.3796 117.899 70.0276C118.211 70.6756 118.367 71.4596 118.367 72.3796C118.367 73.2996 118.211 74.0836 117.899 74.7316C117.587 75.3796 117.159 75.8756 116.615 76.2196C116.079 76.5556 115.463 76.7236 114.767 76.7236ZM114.767 75.0796C115.095 75.0796 115.379 74.9876 115.619 74.8036C115.867 74.6196 116.059 74.3276 116.195 73.9276C116.339 73.5276 116.411 73.0116 116.411 72.3796C116.411 71.7476 116.339 71.2316 116.195 70.8316C116.059 70.4316 115.867 70.1396 115.619 69.9556C115.379 69.7716 115.095 69.6796 114.767 69.6796C114.447 69.6796 114.163 69.7716 113.915 69.9556C113.675 70.1396 113.483 70.4316 113.339 70.8316C113.203 71.2316 113.135 71.7476 113.135 72.3796C113.135 73.0116 113.203 73.5276 113.339 73.9276C113.483 74.3276 113.675 74.6196 113.915 74.8036C114.163 74.9876 114.447 75.0796 114.767 75.0796ZM122.912 76.7236C122.224 76.7236 121.608 76.5556 121.064 76.2196C120.52 75.8756 120.092 75.3796 119.78 74.7316C119.468 74.0836 119.312 73.2996 119.312 72.3796C119.312 71.4596 119.468 70.6756 119.78 70.0276C120.092 69.3796 120.52 68.8876 121.064 68.5516C121.608 68.2076 122.224 68.0356 122.912 68.0356C123.608 68.0356 124.224 68.2076 124.76 68.5516C125.304 68.8876 125.732 69.3796 126.044 70.0276C126.356 70.6756 126.512 71.4596 126.512 72.3796C126.512 73.2996 126.356 74.0836 126.044 74.7316C125.732 75.3796 125.304 75.8756 124.76 76.2196C124.224 76.5556 123.608 76.7236 122.912 76.7236ZM122.912 75.0796C123.24 75.0796 123.524 74.9876 123.764 74.8036C124.012 74.6196 124.204 74.3276 124.34 73.9276C124.484 73.5276 124.556 73.0116 124.556 72.3796C124.556 71.7476 124.484 71.2316 124.34 70.8316C124.204 70.4316 124.012 70.1396 123.764 69.9556C123.524 69.7716 123.24 69.6796 122.912 69.6796C122.592 69.6796 122.308 69.7716 122.06 69.9556C121.82 70.1396 121.628 70.4316 121.484 70.8316C121.348 71.2316 121.28 71.7476 121.28 72.3796C121.28 73.0116 121.348 73.5276 121.484 73.9276C121.628 74.3276 121.82 74.6196 122.06 74.8036C122.308 74.9876 122.592 75.0796 122.912 75.0796ZM131.056 76.7236C130.368 76.7236 129.752 76.5556 129.208 76.2196C128.664 75.8756 128.236 75.3796 127.924 74.7316C127.612 74.0836 127.456 73.2996 127.456 72.3796C127.456 71.4596 127.612 70.6756 127.924 70.0276C128.236 69.3796 128.664 68.8876 129.208 68.5516C129.752 68.2076 130.368 68.0356 131.056 68.0356C131.752 68.0356 132.368 68.2076 132.904 68.5516C133.448 68.8876 133.876 69.3796 134.188 70.0276C134.5 70.6756 134.656 71.4596 134.656 72.3796C134.656 73.2996 134.5 74.0836 134.188 74.7316C133.876 75.3796 133.448 75.8756 132.904 76.2196C132.368 76.5556 131.752 76.7236 131.056 76.7236ZM131.056 75.0796C131.384 75.0796 131.668 74.9876 131.908 74.8036C132.156 74.6196 132.348 74.3276 132.484 73.9276C132.628 73.5276 132.7 73.0116 132.7 72.3796C132.7 71.7476 132.628 71.2316 132.484 70.8316C132.348 70.4316 132.156 70.1396 131.908 69.9556C131.668 69.7716 131.384 69.6796 131.056 69.6796C130.736 69.6796 130.452 69.7716 130.204 69.9556C129.964 70.1396 129.772 70.4316 129.628 70.8316C129.492 71.2316 129.424 71.7476 129.424 72.3796C129.424 73.0116 129.492 73.5276 129.628 73.9276C129.772 74.3276 129.964 74.6196 130.204 74.8036C130.452 74.9876 130.736 75.0796 131.056 75.0796ZM137.988 75.1516V69.6076H139.536V75.1516H137.988ZM135.912 73.1116V71.6476H141.624V73.1116H135.912ZM146.746 76.5796V68.1796H150.382C151.134 68.1796 151.782 68.3036 152.326 68.5516C152.87 68.7916 153.29 69.1396 153.586 69.5956C153.882 70.0516 154.03 70.5956 154.03 71.2276C154.03 71.8516 153.882 72.3916 153.586 72.8476C153.29 73.2956 152.87 73.6396 152.326 73.8796C151.782 74.1196 151.134 74.2396 150.382 74.2396H147.826L148.69 73.3876V76.5796H146.746ZM152.086 76.5796L149.986 73.5316H152.062L154.186 76.5796H152.086ZM148.69 73.6036L147.826 72.6916H150.274C150.874 72.6916 151.322 72.5636 151.618 72.3076C151.914 72.0436 152.062 71.6836 152.062 71.2276C152.062 70.7636 151.914 70.4036 151.618 70.1476C151.322 69.8916 150.874 69.7636 150.274 69.7636H147.826L148.69 68.8396V73.6036ZM158.642 76.6756C157.906 76.6756 157.258 76.5316 156.698 76.2436C156.146 75.9556 155.718 75.5636 155.414 75.0676C155.11 74.5636 154.958 73.9916 154.958 73.3516C154.958 72.7036 155.106 72.1316 155.402 71.6356C155.706 71.1316 156.118 70.7396 156.638 70.4596C157.158 70.1716 157.746 70.0276 158.402 70.0276C159.034 70.0276 159.602 70.1636 160.106 70.4356C160.618 70.6996 161.022 71.0836 161.318 71.5876C161.614 72.0836 161.762 72.6796 161.762 73.3756C161.762 73.4476 161.758 73.5316 161.75 73.6276C161.742 73.7156 161.734 73.7996 161.726 73.8796H156.482V72.7876H160.742L160.022 73.1116C160.022 72.7756 159.954 72.4836 159.818 72.2356C159.682 71.9876 159.494 71.7956 159.254 71.6596C159.014 71.5156 158.734 71.4436 158.414 71.4436C158.094 71.4436 157.81 71.5156 157.562 71.6596C157.322 71.7956 157.134 71.9916 156.998 72.2476C156.862 72.4956 156.794 72.7916 156.794 73.1356V73.4236C156.794 73.7756 156.87 74.0876 157.022 74.3596C157.182 74.6236 157.402 74.8276 157.682 74.9716C157.97 75.1076 158.306 75.1756 158.69 75.1756C159.034 75.1756 159.334 75.1236 159.59 75.0196C159.854 74.9156 160.094 74.7596 160.31 74.5516L161.306 75.6316C161.01 75.9676 160.638 76.2276 160.19 76.4116C159.742 76.5876 159.226 76.6756 158.642 76.6756ZM164.643 76.5796L161.931 70.1236H163.863L166.119 75.6796H165.159L167.499 70.1236H169.299L166.575 76.5796H164.643ZM170.063 76.5796V70.1236H171.935V76.5796H170.063ZM170.999 69.2236C170.655 69.2236 170.375 69.1236 170.159 68.9236C169.943 68.7236 169.835 68.4756 169.835 68.1796C169.835 67.8836 169.943 67.6356 170.159 67.4356C170.375 67.2356 170.655 67.1356 170.999 67.1356C171.343 67.1356 171.623 67.2316 171.839 67.4236C172.055 67.6076 172.163 67.8476 172.163 68.1436C172.163 68.4556 172.055 68.7156 171.839 68.9236C171.631 69.1236 171.351 69.2236 170.999 69.2236ZM176.877 76.6756C176.141 76.6756 175.493 76.5316 174.933 76.2436C174.381 75.9556 173.953 75.5636 173.649 75.0676C173.345 74.5636 173.193 73.9916 173.193 73.3516C173.193 72.7036 173.341 72.1316 173.637 71.6356C173.941 71.1316 174.353 70.7396 174.873 70.4596C175.393 70.1716 175.981 70.0276 176.637 70.0276C177.269 70.0276 177.837 70.1636 178.341 70.4356C178.853 70.6996 179.257 71.0836 179.553 71.5876C179.849 72.0836 179.997 72.6796 179.997 73.3756C179.997 73.4476 179.993 73.5316 179.985 73.6276C179.977 73.7156 179.969 73.7996 179.961 73.8796H174.717V72.7876H178.977L178.257 73.1116C178.257 72.7756 178.189 72.4836 178.053 72.2356C177.917 71.9876 177.729 71.7956 177.489 71.6596C177.249 71.5156 176.969 71.4436 176.649 71.4436C176.329 71.4436 176.045 71.5156 175.797 71.6596C175.557 71.7956 175.369 71.9916 175.233 72.2476C175.097 72.4956 175.029 72.7916 175.029 73.1356V73.4236C175.029 73.7756 175.105 74.0876 175.257 74.3596C175.417 74.6236 175.637 74.8276 175.917 74.9716C176.205 75.1076 176.541 75.1756 176.925 75.1756C177.269 75.1756 177.569 75.1236 177.825 75.0196C178.089 74.9156 178.329 74.7596 178.545 74.5516L179.541 75.6316C179.245 75.9676 178.873 76.2276 178.425 76.4116C177.977 76.5876 177.461 76.6756 176.877 76.6756ZM182.602 76.5796L180.274 70.1236H182.038L183.97 75.6796H183.13L185.146 70.1236H186.73L188.686 75.6796H187.846L189.838 70.1236H191.494L189.154 76.5796H187.342L185.626 71.8156H186.178L184.402 76.5796H182.602ZM194.442 76.6756C193.89 76.6756 193.358 76.6116 192.846 76.4836C192.342 76.3476 191.942 76.1796 191.646 75.9796L192.27 74.6356C192.566 74.8196 192.914 74.9716 193.314 75.0916C193.722 75.2036 194.122 75.2596 194.514 75.2596C194.946 75.2596 195.25 75.2076 195.426 75.1036C195.61 74.9996 195.702 74.8556 195.702 74.6716C195.702 74.5196 195.63 74.4076 195.486 74.3356C195.35 74.2556 195.166 74.1956 194.934 74.1556C194.702 74.1156 194.446 74.0756 194.166 74.0356C193.894 73.9956 193.618 73.9436 193.338 73.8796C193.058 73.8076 192.802 73.7036 192.57 73.5676C192.338 73.4316 192.15 73.2476 192.006 73.0156C191.87 72.7836 191.802 72.4836 191.802 72.1156C191.802 71.7076 191.918 71.3476 192.15 71.0356C192.39 70.7236 192.734 70.4796 193.182 70.3036C193.63 70.1196 194.166 70.0276 194.79 70.0276C195.23 70.0276 195.678 70.0756 196.134 70.1716C196.59 70.2676 196.97 70.4076 197.274 70.5916L196.65 71.9236C196.338 71.7396 196.022 71.6156 195.702 71.5516C195.39 71.4796 195.086 71.4436 194.79 71.4436C194.374 71.4436 194.07 71.4996 193.878 71.6116C193.686 71.7236 193.59 71.8676 193.59 72.0436C193.59 72.2036 193.658 72.3236 193.794 72.4036C193.938 72.4836 194.126 72.5476 194.358 72.5956C194.59 72.6436 194.842 72.6876 195.114 72.7276C195.394 72.7596 195.674 72.8116 195.954 72.8836C196.234 72.9556 196.486 73.0596 196.71 73.1956C196.942 73.3236 197.13 73.5036 197.274 73.7356C197.418 73.9596 197.49 74.2556 197.49 74.6236C197.49 75.0236 197.37 75.3796 197.13 75.6916C196.89 75.9956 196.542 76.2356 196.086 76.4116C195.638 76.5876 195.09 76.6756 194.442 76.6756Z" fill="#333333"/>
<path d="M106 78.0796H142.356V78.6796H106V78.0796Z" fill="#333333"/>
<path d="M142.352 78.0796H197.778V78.6796H142.352V78.0796Z" fill="#333333"/>
<defs>
<clipPath id="clip0_6657_226">
<rect width="79.7254" height="19.5794" fill="white" transform="translate(62.6373 5)"/>
</clipPath>
</defs>
</svg>
